SplineFontDB: 3.2
FontName: KoreeneSans-MediumItalic
FullName: Koreene Sans Medium Italic
FamilyName: Koreene Sans Medium
Weight: Medium
Copyright: (C) Copyright HanYang I&C Co.,Ltd. All rights reserved.
Version: 2.50; ttfautohint (v1.8.4.7-5d5b-dirty)
ItalicAngle: 0
UnderlinePosition: -122
UnderlineWidth: 45
Ascent: 819
Descent: 205
InvalidEm: 0
sfntRevision: 0x00020147
LayerCount: 2
Layer: 0 1 "Back" 1
Layer: 1 1 "Fore" 0
XUID: [1021 531 -1996577725 4945778]
StyleMap: 0x0001
FSType: 0
OS2Version: 4
OS2_WeightWidthSlopeOnly: 0
OS2_UseTypoMetrics: 1
CreationTime: 1068260456
ModificationTime: 1706915495
PfmFamily: 81
TTFWeight: 500
TTFWidth: 5
LineGap: 256
VLineGap: 0
Panose: 0 0 0 0 0 0 0 0 0 0
OS2TypoAscent: 970
OS2TypoAOffset: 0
OS2TypoDescent: -235
OS2TypoDOffset: 0
OS2TypoLinegap: 256
OS2WinAscent: 1098
OS2WinAOffset: 0
OS2WinDescent: 363
OS2WinDOffset: 0
HheadAscent: 970
HheadAOffset: 0
HheadDescent: -235
HheadDOffset: 0
OS2SubXSize: 205
OS2SubYSize: 205
OS2SubXOff: 0
OS2SubYOff: 287
OS2SupXSize: 205
OS2SupYSize: 205
OS2SupXOff: 0
OS2SupYOff: 963
OS2StrikeYSize: 102
OS2StrikeYPos: 512
OS2CapHeight: 735
OS2XHeight: 531
OS2Vendor: 'HY  '
OS2CodePages: 2000019f.00000000
OS2UnicodeRanges: e10002ff.4000001b.00000000.00000000
Lookup: 1 0 0 "'aalt' Access All Alternates lookup 0" { "'aalt' Access All Alternates lookup 0 subtable"  } ['aalt' ('DFLT' <'dflt' > 'cyrl' <'dflt' > 'grek' <'dflt' > 'hang' <'dflt' > 'jamo' <'dflt' > 'latn' <'dflt' > ) ]
Lookup: 3 0 0 "'aalt' Access All Alternates lookup 1" { "'aalt' Access All Alternates lookup 1 subtable"  } ['aalt' ('DFLT' <'dflt' > 'cyrl' <'dflt' > 'grek' <'dflt' > 'hang' <'dflt' > 'jamo' <'dflt' > 'latn' <'dflt' > ) ]
Lookup: 1 0 0 "'locl' Localized Forms in Latin lookup 2" { "'locl' Localized Forms in Latin lookup 2 subtable"  } ['locl' ('latn' <'MOL ' > ) ]
Lookup: 1 0 0 "'locl' Localized Forms in Latin lookup 3" { "'locl' Localized Forms in Latin lookup 3 subtable"  } ['locl' ('latn' <'ROM ' > ) ]

StartChar: exclam
Encoding: 33 33 4
Width: 291
GlyphClass: 2
Flags: W
LayerCount: 2
Fore
SplineSet
32 -8 m 1,0,-1
 52 115 l 1,1,-1
 184 115 l 1,2,-1
 164 -8 l 1,3,-1
 32 -8 l 1,0,-1
175 205 m 1,4,-1
 92 205 l 1,5,-1
 171 737 l 1,6,-1
 271 737 l 1,7,-1
 175 205 l 1,4,-1
EndSplineSet
EndChar

StartChar: quotedbl
Encoding: 34 34 5
Width: 493
GlyphClass: 2
Flags: W
LayerCount: 2
Fore
SplineSet
307 530 m 1,0,-1
 436 822 l 1,1,-1
 552 822 l 1,2,-1
 378 530 l 1,3,-1
 307 530 l 1,0,-1
101 530 m 1,4,-1
 231 822 l 1,5,-1
 348 822 l 1,6,-1
 173 530 l 1,7,-1
 101 530 l 1,4,-1
EndSplineSet
EndChar

StartChar: numbersign
Encoding: 35 35 6
Width: 695
GlyphClass: 2
Flags: W
LayerCount: 2
Fore
SplineSet
30 196 m 1,0,-1
 42 266 l 1,1,-1
 164 266 l 1,2,-1
 219 449 l 1,3,-1
 102 449 l 1,4,-1
 114 518 l 1,5,-1
 239 518 l 1,6,-1
 297 712 l 1,7,-1
 378 712 l 1,8,-1
 321 518 l 1,9,-1
 497 518 l 1,10,-1
 554 712 l 1,11,-1
 635 712 l 1,12,-1
 577 518 l 1,13,-1
 691 518 l 1,14,-1
 680 449 l 1,15,-1
 557 449 l 1,16,-1
 503 266 l 1,17,-1
 620 266 l 1,18,-1
 608 196 l 1,19,-1
 484 196 l 1,20,-1
 426 2 l 1,21,-1
 343 2 l 1,22,-1
 401 196 l 1,23,-1
 226 196 l 1,24,-1
 168 2 l 1,25,-1
 86 2 l 1,26,-1
 144 196 l 1,27,-1
 30 196 l 1,0,-1
246 266 m 1,28,-1
 421 266 l 1,29,-1
 476 449 l 1,30,-1
 299 449 l 1,31,-1
 246 266 l 1,28,-1
EndSplineSet
EndChar

StartChar: dollar
Encoding: 36 36 7
Width: 565
GlyphClass: 2
Flags: W
LayerCount: 2
Fore
SplineSet
27 141 m 1,0,-1
 101 175 l 1,1,2
 122 131 122 131 163.5 104 c 128,-1,3
 205 77 205 77 253 77 c 0,4,5
 309 77 309 77 352 106.5 c 128,-1,6
 395 136 395 136 405 194 c 0,7,8
 409 217 409 217 403 236 c 128,-1,9
 397 255 397 255 389.5 267.5 c 128,-1,10
 382 280 382 280 359 294.5 c 128,-1,11
 336 309 336 309 322 317 c 128,-1,12
 308 325 308 325 272.5 340.5 c 128,-1,13
 237 356 237 356 220 365 c 0,14,15
 156 397 156 397 130 440.5 c 128,-1,16
 104 484 104 484 114 549 c 0,17,18
 125 613 125 613 179.5 666.5 c 128,-1,19
 234 720 234 720 317 730 c 1,20,-1
 330 812 l 1,21,-1
 414 812 l 1,22,-1
 400 729 l 1,23,24
 452 725 452 725 494 688.5 c 128,-1,25
 536 652 536 652 548 610 c 1,26,-1
 473 576 l 1,27,28
 432 657 432 657 347 657 c 0,29,30
 290 657 290 657 251.5 626 c 128,-1,31
 213 595 213 595 205 548 c 0,32,33
 200 520 200 520 205 501 c 128,-1,34
 210 482 210 482 237 462 c 128,-1,35
 264 442 264 442 277 436 c 128,-1,36
 290 430 290 430 340 407 c 0,37,38
 354 400 354 400 361 397 c 0,39,40
 394 382 394 382 417.5 367 c 128,-1,41
 441 352 441 352 463.5 329 c 128,-1,42
 486 306 486 306 494.5 273.5 c 128,-1,43
 503 241 503 241 497 201 c 0,44,45
 483 117 483 117 423 65 c 128,-1,46
 363 13 363 13 280 2 c 1,47,-1
 267 -74 l 1,48,-1
 184 -74 l 1,49,-1
 197 4 l 1,50,51
 143 9 143 9 94 46.5 c 128,-1,52
 45 84 45 84 27 141 c 1,0,-1
EndSplineSet
EndChar

StartChar: percent
Encoding: 37 37 8
Width: 952
GlyphClass: 2
Flags: W
LayerCount: 2
Fore
SplineSet
496 163 m 256,0,1
 509 242 509 242 570 292.5 c 128,-1,2
 631 343 631 343 714 343 c 0,3,4
 795 343 795 343 840 292.5 c 128,-1,5
 885 242 885 242 872 163 c 0,6,7
 859 82 859 82 797 32.5 c 128,-1,8
 735 -17 735 -17 654 -17 c 0,9,10
 574 -17 574 -17 528.5 33.5 c 128,-1,11
 483 84 483 84 496 163 c 256,0,1
580 163 m 256,12,13
 572 113 572 113 597.5 83 c 128,-1,14
 623 53 623 53 666 53 c 0,15,16
 709 53 709 53 743.5 83 c 128,-1,17
 778 113 778 113 787 163 c 256,18,19
 795 213 795 213 770.5 243 c 128,-1,20
 746 273 746 273 702 273 c 0,21,22
 659 273 659 273 623.5 243 c 128,-1,23
 588 213 588 213 580 163 c 256,12,13
109 572 m 0,24,25
 122 651 122 651 182.5 701.5 c 128,-1,26
 243 752 243 752 327 752 c 0,27,28
 409 752 409 752 453.5 701.5 c 128,-1,29
 498 651 498 651 485 572 c 0,30,31
 472 492 472 492 410 442 c 128,-1,32
 348 392 348 392 267 392 c 256,33,34
 186 392 186 392 141 442 c 128,-1,35
 96 492 96 492 109 572 c 0,24,25
194 572 m 256,36,37
 186 522 186 522 211 492 c 128,-1,38
 236 462 236 462 279 462 c 256,39,40
 321 462 321 462 357 492.5 c 128,-1,41
 393 523 393 523 401 572 c 0,42,43
 409 622 409 622 384 652 c 128,-1,44
 359 682 359 682 315 682 c 0,45,46
 272 682 272 682 237 652 c 128,-1,47
 202 622 202 622 194 572 c 256,36,37
126 -2 m 1,48,-1
 762 737 l 1,49,-1
 855 737 l 1,50,-1
 218 -2 l 1,51,-1
 126 -2 l 1,48,-1
EndSplineSet
EndChar

StartChar: ampersand
Encoding: 38 38 9
Width: 635
GlyphClass: 2
Flags: W
LayerCount: 2
Fore
SplineSet
125 189 m 0,0,1
 115 129 115 129 148 94.5 c 128,-1,2
 181 60 181 60 241 60 c 0,3,4
 322 60 322 60 401 138 c 1,5,-1
 270 370 l 1,6,7
 141 287 141 287 125 189 c 0,0,1
34 188 m 0,8,9
 57 328 57 328 236 434 c 1,10,11
 214 474 214 474 207 488.5 c 128,-1,12
 200 503 200 503 194 530.5 c 128,-1,13
 188 558 188 558 192 586 c 0,14,15
 203 652 203 652 259 697 c 128,-1,16
 315 742 315 742 399 742 c 0,17,18
 471 742 471 742 513.5 706 c 128,-1,19
 556 670 556 670 572 614 c 1,20,-1
 498 583 l 1,21,22
 486 617 486 617 459 641.5 c 128,-1,23
 432 666 432 666 394 666 c 0,24,25
 349 666 349 666 319.5 642 c 128,-1,26
 290 618 290 618 284 583 c 0,27,28
 278 546 278 546 317.5 466.5 c 128,-1,29
 357 387 357 387 460 213 c 1,30,31
 496 272 496 272 521 348 c 1,32,-1
 601 333 l 1,33,34
 567 227 567 227 503 140 c 1,35,-1
 586 0 l 1,36,-1
 480 0 l 1,37,-1
 439 69 l 1,38,39
 343 -17 343 -17 226 -17 c 0,40,41
 118 -17 118 -17 68.5 41.5 c 128,-1,42
 19 100 19 100 34 188 c 0,8,9
EndSplineSet
EndChar

StartChar: quotesingle
Encoding: 39 39 10
Width: 301
GlyphClass: 2
Flags: W
LayerCount: 2
Fore
SplineSet
113 530 m 1,0,-1
 242 822 l 1,1,-1
 358 822 l 1,2,-1
 184 530 l 1,3,-1
 113 530 l 1,0,-1
EndSplineSet
EndChar

StartChar: parenleft
Encoding: 40 40 11
Width: 420
GlyphClass: 2
Flags: W
LayerCount: 2
Fore
SplineSet
141 353 m 0,0,1
 187 632 187 632 390 852 c 1,2,-1
 448 815 l 1,3,4
 412 769 412 769 398.5 751.5 c 128,-1,5
 385 734 385 734 351.5 683 c 128,-1,6
 318 632 318 632 300 592 c 128,-1,7
 282 552 282 552 261 487.5 c 128,-1,8
 240 423 240 423 229 353 c 0,9,10
 215 270 215 270 215 200.5 c 128,-1,11
 215 131 215 131 229 72.5 c 128,-1,12
 243 14 243 14 257 -21.5 c 128,-1,13
 271 -57 271 -57 295 -109 c 1,14,-1
 225 -146 l 1,15,16
 166 -43 166 -43 140.5 75 c 128,-1,17
 115 193 115 193 141 353 c 0,0,1
EndSplineSet
Substitution2: "'sups' Superscript lookup 5 subtable" uni207D
Substitution2: "'aalt' Access All Alternates lookup 0 subtable" uni207D
EndChar

StartChar: parenright
Encoding: 41 41 12
Width: 420
GlyphClass: 2
Flags: W
LayerCount: 2
Fore
SplineSet
-5 -109 m 1,0,1
 85 -1 85 -1 138 104.5 c 128,-1,2
 191 210 191 210 215 353 c 0,3,4
 229 435 229 435 228.5 504 c 128,-1,5
 228 573 228 573 214.5 631.5 c 128,-1,6
 201 690 201 690 187 726.5 c 128,-1,7
 173 763 173 763 148 815 c 1,8,-1
 220 852 l 1,9,10
 350 630 350 630 304 353 c 0,11,12
 278 193 278 193 213 74.5 c 128,-1,13
 148 -44 148 -44 55 -146 c 1,14,-1
 -5 -109 l 1,0,1
EndSplineSet
Substitution2: "'sups' Superscript lookup 5 subtable" uni207E
Substitution2: "'aalt' Access All Alternates lookup 0 subtable" uni207E
EndChar

StartChar: asterisk
Encoding: 42 42 13
Width: 543
GlyphClass: 2
Flags: W
LayerCount: 2
Fore
SplineSet
40 411 m 1,0,-1
 85 486 l 1,1,-1
 258 413 l 1,2,-1
 282 603 l 1,3,-1
 367 603 l 1,4,-1
 329 413 l 1,5,-1
 526 486 l 1,6,-1
 545 411 l 1,7,-1
 337 344 l 1,8,-1
 457 179 l 1,9,-1
 382 129 l 1,10,-1
 274 305 l 1,11,-1
 110 129 l 1,12,-1
 52 179 l 1,13,-1
 227 344 l 1,14,-1
 40 411 l 1,0,-1
EndSplineSet
EndChar

StartChar: plus
Encoding: 43 43 14
Width: 542
GlyphClass: 2
Flags: W
LayerCount: 2
Fore
SplineSet
31 324 m 1,0,-1
 44 404 l 1,1,-1
 247 404 l 1,2,-1
 281 609 l 1,3,-1
 368 609 l 1,4,-1
 335 404 l 1,5,-1
 537 404 l 1,6,-1
 524 324 l 1,7,-1
 321 324 l 1,8,-1
 286 111 l 1,9,-1
 199 111 l 1,10,-1
 234 324 l 1,11,-1
 31 324 l 1,0,-1
EndSplineSet
Substitution2: "'sups' Superscript lookup 5 subtable" uni207A
Substitution2: "'aalt' Access All Alternates lookup 0 subtable" uni207A
EndChar

StartChar: comma
Encoding: 44 44 15
Width: 275
GlyphClass: 2
Flags: W
LayerCount: 2
Fore
SplineSet
-59 -166 m 1,0,-1
 71 126 l 1,1,-1
 188 126 l 1,2,-1
 13 -166 l 1,3,-1
 -59 -166 l 1,0,-1
EndSplineSet
EndChar

StartChar: hyphen
Encoding: 45 45 16
Width: 378
GlyphClass: 2
Flags: W
LayerCount: 2
Fore
SplineSet
37 324 m 1,0,-1
 50 404 l 1,1,-1
 367 404 l 1,2,-1
 354 324 l 1,3,-1
 37 324 l 1,0,-1
EndSplineSet
EndChar

StartChar: period
Encoding: 46 46 17
Width: 275
GlyphClass: 2
Flags: W
LayerCount: 2
Fore
SplineSet
24 0 m 1,0,-1
 44 126 l 1,1,-1
 177 126 l 1,2,-1
 156 0 l 1,3,-1
 24 0 l 1,0,-1
EndSplineSet
EndChar

StartChar: slash
Encoding: 47 47 18
Width: 345
GlyphClass: 2
Flags: W
LayerCount: 2
Fore
SplineSet
-68 -55 m 1,0,-1
 348 781 l 1,1,-1
 441 781 l 1,2,-1
 25 -55 l 1,3,-1
 -68 -55 l 1,0,-1
EndSplineSet
EndChar

StartChar: zero
Encoding: 48 48 19
Width: 550
GlyphClass: 2
Flags: W
LayerCount: 2
Fore
SplineSet
155 367 m 0,0,1
 140 276 140 276 142 210 c 128,-1,2
 144 144 144 144 168 102 c 128,-1,3
 192 60 192 60 240 60 c 0,4,5
 277 60 277 60 308 85 c 128,-1,6
 339 110 339 110 361 154.5 c 128,-1,7
 383 199 383 199 398 251 c 128,-1,8
 413 303 413 303 424 367 c 0,9,10
 447 507 447 507 428 591.5 c 128,-1,11
 409 676 409 676 340 676 c 0,12,13
 271 676 271 676 225 592.5 c 128,-1,14
 179 509 179 509 155 367 c 0,0,1
60 367 m 0,15,16
 77 472 77 472 110 550 c 128,-1,17
 143 628 143 628 183.5 670.5 c 128,-1,18
 224 713 224 713 266 732.5 c 128,-1,19
 308 752 308 752 352 752 c 0,20,21
 461 752 461 752 504.5 652 c 128,-1,22
 548 552 548 552 518 367 c 0,23,24
 489 194 489 194 414.5 88.5 c 128,-1,25
 340 -17 340 -17 227 -17 c 0,26,27
 183 -17 183 -17 147 3 c 128,-1,28
 111 23 111 23 84.5 66.5 c 128,-1,29
 58 110 58 110 50.5 187 c 128,-1,30
 43 264 43 264 60 367 c 0,15,16
EndSplineSet
EndChar

StartChar: one
Encoding: 49 49 20
Width: 550
GlyphClass: 2
Flags: W
LayerCount: 2
Fore
SplineSet
134 547 m 1,0,-1
 145 618 l 1,1,-1
 176 618 l 2,2,3
 258 618 258 618 294 645.5 c 128,-1,4
 330 673 330 673 338 722 c 2,5,-1
 341 743 l 1,6,-1
 421 743 l 1,7,-1
 296 -10 l 1,8,-1
 201 -10 l 1,9,-1
 293 547 l 1,10,-1
 134 547 l 1,0,-1
EndSplineSet
Substitution2: "'subs' Subscript lookup 6 subtable" uni2081
Substitution2: "'sups' Superscript lookup 5 subtable" onesuperior
Substitution2: "'sinf' Scientific Inferiors lookup 4 subtable" uni2081
AlternateSubs2: "'aalt' Access All Alternates lookup 1 subtable" uni2081 onesuperior
EndChar

StartChar: two
Encoding: 50 50 21
Width: 550
GlyphClass: 2
Flags: W
LayerCount: 2
Fore
SplineSet
95 564 m 1,0,1
 130 651 130 651 195 701.5 c 128,-1,2
 260 752 260 752 350 752 c 0,3,4
 444 752 444 752 495 697.5 c 128,-1,5
 546 643 546 643 530 546 c 0,6,7
 512 436 512 436 383 328 c 0,8,9
 372 318 372 318 339 291 c 128,-1,10
 306 264 306 264 296.5 255.5 c 128,-1,11
 287 247 287 247 261.5 225 c 128,-1,12
 236 203 236 203 226.5 193.5 c 128,-1,13
 217 184 217 184 198.5 165.5 c 128,-1,14
 180 147 180 147 171 135 c 128,-1,15
 162 123 162 123 150.5 107.5 c 128,-1,16
 139 92 139 92 130 77 c 1,17,-1
 451 77 l 1,18,-1
 438 0 l 1,19,-1
 7 0 l 1,20,21
 14 40 14 40 36.5 82.5 c 128,-1,22
 59 125 59 125 82.5 156 c 128,-1,23
 106 187 106 187 154.5 232.5 c 128,-1,24
 203 278 203 278 229.5 300.5 c 128,-1,25
 256 323 256 323 317 373 c 0,26,27
 422 460 422 460 436 548 c 0,28,29
 446 609 446 609 418 642.5 c 128,-1,30
 390 676 390 676 336 676 c 0,31,32
 280 676 280 676 238 640 c 128,-1,33
 196 604 196 604 171 541 c 1,34,-1
 95 564 l 1,0,1
EndSplineSet
Substitution2: "'subs' Subscript lookup 6 subtable" uni2082
Substitution2: "'sups' Superscript lookup 5 subtable" twosuperior
Substitution2: "'sinf' Scientific Inferiors lookup 4 subtable" uni2082
AlternateSubs2: "'aalt' Access All Alternates lookup 1 subtable" uni2082 twosuperior
EndChar

StartChar: three
Encoding: 51 51 22
Width: 550
GlyphClass: 2
Flags: W
LayerCount: 2
Fore
SplineSet
11 134 m 1,0,-1
 92 164 l 1,1,2
 124 60 124 60 228 60 c 0,3,4
 290 60 290 60 338 98 c 128,-1,5
 386 136 386 136 398 206 c 0,6,7
 409 272 409 272 369 310 c 128,-1,8
 329 348 329 348 261 348 c 0,9,10
 235 348 235 348 200 345 c 1,11,-1
 213 422 l 1,12,13
 234 420 234 420 270 420 c 0,14,15
 328 420 328 420 372 455 c 128,-1,16
 416 490 416 490 427 552 c 0,17,18
 436 606 436 606 408 641 c 128,-1,19
 380 676 380 676 326 676 c 0,20,21
 238 676 238 676 177 566 c 1,22,-1
 106 591 l 1,23,24
 139 663 139 663 200 707.5 c 128,-1,25
 261 752 261 752 343 752 c 0,26,27
 440 752 440 752 488.5 697.5 c 128,-1,28
 537 643 537 643 523 561 c 0,29,30
 513 499 513 499 473 454 c 128,-1,31
 433 409 433 409 385 389 c 1,32,33
 437 373 437 373 470.5 326.5 c 128,-1,34
 504 280 504 280 492 206 c 0,35,36
 474 100 474 100 399.5 41.5 c 128,-1,37
 325 -17 325 -17 216 -17 c 0,38,39
 131 -17 131 -17 77.5 26.5 c 128,-1,40
 24 70 24 70 11 134 c 1,0,-1
EndSplineSet
Substitution2: "'subs' Subscript lookup 6 subtable" uni2083
Substitution2: "'sups' Superscript lookup 5 subtable" threesuperior
Substitution2: "'sinf' Scientific Inferiors lookup 4 subtable" uni2083
AlternateSubs2: "'aalt' Access All Alternates lookup 1 subtable" uni2083 threesuperior
EndChar

StartChar: four
Encoding: 52 52 23
Width: 550
GlyphClass: 2
Flags: W
LayerCount: 2
Fore
SplineSet
107 239 m 1,0,-1
 334 239 l 1,1,-1
 377 493 l 2,2,3
 387 551 387 551 399 604 c 1,4,-1
 395 604 l 1,5,-1
 319 506 l 1,6,-1
 107 239 l 1,0,-1
18 237 m 1,7,-1
 428 744 l 1,8,-1
 509 744 l 1,9,-1
 426 239 l 1,10,-1
 525 239 l 1,11,-1
 512 162 l 1,12,-1
 413 162 l 1,13,-1
 385 -9 l 1,14,-1
 293 -9 l 1,15,-1
 322 162 l 1,16,-1
 5 162 l 1,17,-1
 18 237 l 1,7,-1
EndSplineSet
Substitution2: "'subs' Subscript lookup 6 subtable" uni2084
Substitution2: "'sups' Superscript lookup 5 subtable" uni2074
Substitution2: "'sinf' Scientific Inferiors lookup 4 subtable" uni2084
AlternateSubs2: "'aalt' Access All Alternates lookup 1 subtable" uni2084 uni2074
EndChar

StartChar: five
Encoding: 53 53 24
Width: 550
GlyphClass: 2
Flags: W
LayerCount: 2
Fore
SplineSet
18 125 m 1,0,-1
 99 153 l 1,1,2
 113 111 113 111 144.5 85.5 c 128,-1,3
 176 60 176 60 220 60 c 0,4,5
 287 60 287 60 332.5 105 c 128,-1,6
 378 150 378 150 390 223 c 256,7,8
 402 296 402 296 369 341.5 c 128,-1,9
 336 387 336 387 271 387 c 0,10,11
 196 387 196 387 129 322 c 1,12,-1
 77 344 l 1,13,-1
 179 735 l 1,14,-1
 527 735 l 1,15,-1
 514 658 l 1,16,-1
 250 658 l 1,17,-1
 188 426 l 1,18,19
 247 463 247 463 316 463 c 0,20,21
 407 463 407 463 455 398.5 c 128,-1,22
 503 334 503 334 485 225 c 0,23,24
 468 125 468 125 397 54 c 128,-1,25
 326 -17 326 -17 209 -17 c 0,26,27
 132 -17 132 -17 84 22 c 128,-1,28
 36 61 36 61 18 125 c 1,0,-1
EndSplineSet
EndChar

StartChar: six
Encoding: 54 54 25
Width: 550
GlyphClass: 2
Flags: W
LayerCount: 2
Fore
SplineSet
136 230 m 0,0,1
 124 155 124 155 154.5 107.5 c 128,-1,2
 185 60 185 60 245 60 c 0,3,4
 304 60 304 60 349.5 106.5 c 128,-1,5
 395 153 395 153 408 230 c 0,6,7
 421 309 421 309 390.5 356 c 128,-1,8
 360 403 360 403 300 403 c 0,9,10
 242 403 242 403 195 353.5 c 128,-1,11
 148 304 148 304 136 230 c 0,0,1
56 329 m 0,12,13
 70 411 70 411 96 484 c 128,-1,14
 122 557 122 557 161.5 618.5 c 128,-1,15
 201 680 201 680 258.5 716 c 128,-1,16
 316 752 316 752 383 752 c 0,17,18
 515 752 515 752 557 614 c 1,19,-1
 480 588 l 1,20,21
 446 676 446 676 371 676 c 0,22,23
 249 676 249 676 182 467 c 0,24,25
 164 414 164 414 157 380 c 1,26,27
 183 424 183 424 228 452 c 128,-1,28
 273 480 273 480 327 480 c 0,29,30
 422 480 422 480 470 409 c 128,-1,31
 518 338 518 338 500 231 c 256,32,33
 482 124 482 124 411 53.5 c 128,-1,34
 340 -17 340 -17 236 -17 c 0,35,36
 126 -17 126 -17 79 61 c 0,37,38
 25 143 25 143 56 329 c 0,12,13
EndSplineSet
EndChar

StartChar: seven
Encoding: 55 55 26
Width: 550
GlyphClass: 2
Flags: W
LayerCount: 2
Fore
SplineSet
104 655 m 1,0,-1
 117 735 l 1,1,-1
 567 735 l 1,2,-1
 557 671 l 1,3,4
 322 367 322 367 178 -9 c 1,5,-1
 84 -9 l 1,6,7
 204 321 204 321 447 655 c 1,8,-1
 104 655 l 1,0,-1
EndSplineSet
EndChar

StartChar: eight
Encoding: 56 56 27
Width: 550
GlyphClass: 2
Flags: W
LayerCount: 2
Fore
SplineSet
202 551 m 0,0,1
 193 495 193 495 221 461.5 c 128,-1,2
 249 428 249 428 299 428 c 0,3,4
 351 428 351 428 390.5 462.5 c 128,-1,5
 430 497 430 497 439 551 c 256,6,7
 448 605 448 605 420 640.5 c 128,-1,8
 392 676 392 676 340 676 c 0,9,10
 287 676 287 676 249 639.5 c 128,-1,11
 211 603 211 603 202 551 c 0,0,1
27 198 m 0,12,13
 40 276 40 276 86.5 324 c 128,-1,14
 133 372 133 372 192 391 c 1,15,16
 90 443 90 443 108 556 c 0,17,18
 122 640 122 640 191 696 c 128,-1,19
 260 752 260 752 353 752 c 0,20,21
 444 752 444 752 496 696.5 c 128,-1,22
 548 641 548 641 534 556 c 0,23,24
 524 493 524 493 485 452 c 128,-1,25
 446 411 446 411 395 391 c 1,26,27
 450 372 450 372 481 323 c 128,-1,28
 512 274 512 274 499 197 c 0,29,30
 483 103 483 103 406 43 c 128,-1,31
 329 -17 329 -17 225 -17 c 0,32,33
 126 -17 126 -17 68.5 41 c 128,-1,34
 11 99 11 99 27 198 c 0,12,13
122 203 m 0,35,36
 112 141 112 141 144.5 100.5 c 128,-1,37
 177 60 177 60 238 60 c 0,38,39
 300 60 300 60 347.5 101 c 128,-1,40
 395 142 395 142 405 203 c 0,41,42
 415 265 415 265 381 308.5 c 128,-1,43
 347 352 347 352 286 352 c 0,44,45
 227 352 227 352 179.5 309 c 128,-1,46
 132 266 132 266 122 203 c 0,35,36
EndSplineSet
EndChar

StartChar: nine
Encoding: 57 57 28
Width: 550
GlyphClass: 2
Flags: W
LayerCount: 2
Fore
SplineSet
170 506 m 0,0,1
 157 430 157 430 189 382.5 c 128,-1,2
 221 335 221 335 276 335 c 0,3,4
 333 335 333 335 379.5 383 c 128,-1,5
 426 431 426 431 438 505 c 0,6,7
 450 577 450 577 420.5 626.5 c 128,-1,8
 391 676 391 676 332 676 c 0,9,10
 274 676 274 676 228 628.5 c 128,-1,11
 182 581 182 581 170 506 c 0,0,1
17 124 m 1,12,-1
 97 150 l 1,13,14
 110 111 110 111 138.5 85.5 c 128,-1,15
 167 60 167 60 210 60 c 0,16,17
 253 60 253 60 288.5 84 c 128,-1,18
 324 108 324 108 349 150.5 c 128,-1,19
 374 193 374 193 390.5 242.5 c 128,-1,20
 407 292 407 292 417 350 c 1,21,22
 393 313 393 313 349.5 286 c 128,-1,23
 306 259 306 259 250 259 c 0,24,25
 163 259 163 259 111 325.5 c 128,-1,26
 59 392 59 392 77 505 c 0,27,28
 95 614 95 614 171.5 683 c 128,-1,29
 248 752 248 752 345 752 c 0,30,31
 427 752 427 752 475.5 697.5 c 128,-1,32
 524 643 524 643 528 557 c 0,33,34
 532 497 532 497 516 404 c 0,35,36
 483 206 483 206 404 94.5 c 128,-1,37
 325 -17 325 -17 196 -17 c 0,38,39
 123 -17 123 -17 77 25.5 c 128,-1,40
 31 68 31 68 17 124 c 1,12,-1
EndSplineSet
EndChar

StartChar: colon
Encoding: 58 58 29
Width: 275
GlyphClass: 2
Flags: W
LayerCount: 2
Fore
SplineSet
24 0 m 1,0,-1
 44 126 l 1,1,-1
 177 126 l 1,2,-1
 156 0 l 1,3,-1
 24 0 l 1,0,-1
88 390 m 1,4,-1
 109 516 l 1,5,-1
 241 516 l 1,6,-1
 220 390 l 1,7,-1
 88 390 l 1,4,-1
EndSplineSet
EndChar

StartChar: semicolon
Encoding: 59 59 30
Width: 275
GlyphClass: 2
Flags: W
LayerCount: 2
Fore
SplineSet
-59 -166 m 1,0,-1
 71 126 l 1,1,-1
 188 126 l 1,2,-1
 13 -166 l 1,3,-1
 -59 -166 l 1,0,-1
93 390 m 1,4,-1
 114 516 l 1,5,-1
 248 516 l 1,6,-1
 227 390 l 1,7,-1
 93 390 l 1,4,-1
EndSplineSet
EndChar

StartChar: less
Encoding: 60 60 31
Width: 540
GlyphClass: 2
Flags: W
LayerCount: 2
Fore
SplineSet
49 314 m 1,0,-1
 63 398 l 1,1,-1
 516 704 l 1,2,-1
 554 636 l 1,3,-1
 144 355 l 1,4,-1
 461 75 l 1,5,-1
 401 7 l 1,6,-1
 49 314 l 1,0,-1
EndSplineSet
EndChar

StartChar: equal
Encoding: 61 61 32
Width: 540
GlyphClass: 2
Flags: W
LayerCount: 2
Fore
SplineSet
33 224 m 1,0,-1
 46 304 l 1,1,-1
 500 304 l 1,2,-1
 487 224 l 1,3,-1
 33 224 l 1,0,-1
66 423 m 1,4,-1
 79 503 l 1,5,-1
 533 503 l 1,6,-1
 520 423 l 1,7,-1
 66 423 l 1,4,-1
EndSplineSet
Substitution2: "'sups' Superscript lookup 5 subtable" uni207C
Substitution2: "'aalt' Access All Alternates lookup 0 subtable" uni207C
EndChar

StartChar: greater
Encoding: 62 62 33
Width: 540
GlyphClass: 2
Flags: W
LayerCount: 2
Fore
SplineSet
46 7 m 1,0,-1
 11 75 l 1,1,-1
 420 355 l 1,2,-1
 104 636 l 1,3,-1
 161 704 l 1,4,-1
 516 398 l 1,5,-1
 502 314 l 1,6,-1
 46 7 l 1,0,-1
EndSplineSet
EndChar

StartChar: question
Encoding: 63 63 34
Width: 539
GlyphClass: 2
Flags: W
LayerCount: 2
Fore
SplineSet
107 588 m 1,0,1
 143 662 143 662 206.5 707.5 c 128,-1,2
 270 753 270 753 349 753 c 0,3,4
 442 753 442 753 488.5 698 c 128,-1,5
 535 643 535 643 520 552 c 0,6,7
 513 507 513 507 490 471 c 128,-1,8
 467 435 467 435 437.5 410 c 128,-1,9
 408 385 408 385 379 361 c 128,-1,10
 350 337 350 337 327 303.5 c 128,-1,11
 304 270 304 270 297 228 c 2,12,-1
 292 200 l 1,13,-1
 200 200 l 1,14,-1
 206 235 l 2,15,16
 214 282 214 282 238 320.5 c 128,-1,17
 262 359 262 359 290.5 384.5 c 128,-1,18
 319 410 319 410 347.5 434 c 128,-1,19
 376 458 376 458 399 488.5 c 128,-1,20
 422 519 422 519 428 555 c 0,21,22
 437 609 437 609 412.5 641.5 c 128,-1,23
 388 674 388 674 337 674 c 0,24,25
 248 674 248 674 182 560 c 1,26,-1
 107 588 l 1,0,1
145 -8 m 1,27,-1
 166 115 l 1,28,-1
 299 115 l 1,29,-1
 279 -8 l 1,30,-1
 145 -8 l 1,27,-1
EndSplineSet
EndChar

StartChar: at
Encoding: 64 64 35
Width: 914
GlyphClass: 2
Flags: W
LayerCount: 2
Fore
SplineSet
60 346 m 0,0,1
 91 531 91 531 229.5 648 c 128,-1,2
 368 765 368 765 557 765 c 0,3,4
 729 765 729 765 819.5 662 c 128,-1,5
 910 559 910 559 883 398 c 0,6,7
 859 255 859 255 789.5 185.5 c 128,-1,8
 720 116 720 116 645 116 c 0,9,10
 602 116 602 116 575 144 c 128,-1,11
 548 172 548 172 551 216 c 1,12,-1
 550 216 l 1,13,14
 529 178 529 178 485 147.5 c 128,-1,15
 441 117 441 117 390 117 c 0,16,17
 319 117 319 117 281.5 170.5 c 128,-1,18
 244 224 244 224 259 313 c 0,19,20
 279 432 279 432 350 499.5 c 128,-1,21
 421 567 421 567 505 567 c 0,22,23
 575 567 575 567 603 509 c 1,24,-1
 615 559 l 1,25,-1
 684 559 l 1,26,-1
 623 274 l 2,27,28
 622 269 622 269 621 264 c 0,29,30
 615 227 615 227 625 206 c 128,-1,31
 635 185 635 185 662 185 c 0,32,33
 708 185 708 185 748 240 c 128,-1,34
 788 295 788 295 804 392 c 0,35,36
 827 528 827 528 757 612.5 c 128,-1,37
 687 697 687 697 545 697 c 0,38,39
 393 697 393 697 279 599 c 128,-1,40
 165 501 165 501 140 346 c 0,41,42
 113 183 113 183 191.5 89 c 128,-1,43
 270 -5 270 -5 419 -5 c 0,44,45
 528 -5 528 -5 634 25 c 1,46,-1
 638 -38 l 1,47,48
 532 -72 532 -72 408 -72 c 0,49,50
 219 -72 219 -72 124 44 c 128,-1,51
 29 160 29 160 60 346 c 0,0,1
342 314 m 0,52,53
 333 261 333 261 352.5 225.5 c 128,-1,54
 372 190 372 190 412 190 c 0,55,56
 458 190 458 190 505 239 c 128,-1,57
 552 288 552 288 571 399 c 0,58,59
 578 440 578 440 560.5 469.5 c 128,-1,60
 543 499 543 499 498 499 c 0,61,62
 451 499 451 499 403.5 448.5 c 128,-1,63
 356 398 356 398 342 314 c 0,52,53
EndSplineSet
EndChar

StartChar: A
Encoding: 65 65 36
Width: 631
GlyphClass: 2
Flags: W
LayerCount: 2
Fore
SplineSet
189 276 m 1,0,-1
 441 276 l 1,1,-1
 402 505 l 2,2,3
 399 522 399 522 391 573 c 128,-1,4
 383 624 383 624 380 647 c 1,5,-1
 374 647 l 1,6,7
 364 626 364 626 339 576 c 128,-1,8
 314 526 314 526 304 505 c 2,9,-1
 189 276 l 1,0,-1
-51 0 m 1,10,-1
 338 735 l 1,11,-1
 445 735 l 1,12,-1
 588 0 l 1,13,-1
 489 0 l 1,14,-1
 455 201 l 1,15,-1
 151 201 l 1,16,-1
 48 0 l 1,17,-1
 -51 0 l 1,10,-1
EndSplineSet
Substitution2: "Single Substitution lookup 12 subtable" ordfeminine
EndChar

StartChar: B
Encoding: 66 66 37
Width: 642
GlyphClass: 2
Flags: W
LayerCount: 2
Fore
SplineSet
39 0 m 1,0,-1
 161 735 l 1,1,-1
 430 735 l 2,2,3
 538 735 538 735 584.5 683.5 c 128,-1,4
 631 632 631 632 617 544 c 0,5,6
 608 487 608 487 573.5 447 c 128,-1,7
 539 407 539 407 491 386 c 1,8,9
 540 370 540 370 569 322.5 c 128,-1,10
 598 275 598 275 587 208 c 0,11,12
 573 121 573 121 507.5 60.5 c 128,-1,13
 442 0 442 0 343 0 c 2,14,-1
 39 0 l 1,0,-1
145 80 m 1,15,-1
 336 80 l 2,16,17
 394 80 394 80 438.5 113.5 c 128,-1,18
 483 147 483 147 493 207 c 0,19,20
 502 264 502 264 471 301.5 c 128,-1,21
 440 339 440 339 376 339 c 2,22,-1
 188 339 l 1,23,-1
 145 80 l 1,15,-1
201 417 m 1,24,-1
 363 417 l 2,25,26
 423 417 423 417 467.5 447.5 c 128,-1,27
 512 478 512 478 521 538 c 0,28,29
 530 591 530 591 503.5 623 c 128,-1,30
 477 655 477 655 407 655 c 2,31,-1
 240 655 l 1,32,-1
 201 417 l 1,24,-1
EndSplineSet
EndChar

StartChar: C
Encoding: 67 67 38
Width: 635
GlyphClass: 2
Flags: W
LayerCount: 2
Fore
SplineSet
57 367 m 0,0,1
 86 545 86 545 189.5 648.5 c 128,-1,2
 293 752 293 752 432 752 c 0,3,4
 519 752 519 752 572.5 703.5 c 128,-1,5
 626 655 626 655 645 586 c 1,6,-1
 562 559 l 1,7,8
 517 672 517 672 417 672 c 0,9,10
 318 672 318 672 246.5 589 c 128,-1,11
 175 506 175 506 152 367 c 0,12,13
 129 226 129 226 174 145 c 128,-1,14
 219 64 219 64 316 64 c 0,15,16
 379 64 379 64 431.5 100 c 128,-1,17
 484 136 484 136 515 189 c 1,18,-1
 593 162 l 1,19,20
 574 129 574 129 547.5 100 c 128,-1,21
 521 71 521 71 485.5 43 c 128,-1,22
 450 15 450 15 403.5 -1 c 128,-1,23
 357 -17 357 -17 305 -17 c 0,24,25
 168 -17 168 -17 97.5 85 c 128,-1,26
 27 187 27 187 57 367 c 0,0,1
EndSplineSet
EndChar

StartChar: D
Encoding: 68 68 39
Width: 663
GlyphClass: 2
Flags: W
LayerCount: 2
Fore
SplineSet
39 0 m 1,0,-1
 161 735 l 1,1,-1
 363 735 l 2,2,3
 520 735 520 735 593.5 640.5 c 128,-1,4
 667 546 667 546 637 367 c 0,5,6
 609 199 609 199 508 99.5 c 128,-1,7
 407 0 407 0 239 0 c 2,8,-1
 39 0 l 1,0,-1
145 79 m 1,9,-1
 240 79 l 2,10,11
 360 79 360 79 439 148 c 128,-1,12
 518 217 518 217 543 367 c 0,13,14
 591 655 591 655 337 655 c 2,15,-1
 240 655 l 1,16,-1
 145 79 l 1,9,-1
EndSplineSet
EndChar

StartChar: E
Encoding: 69 69 40
Width: 584
GlyphClass: 2
Flags: W
LayerCount: 2
Fore
SplineSet
39 0 m 1,0,-1
 161 735 l 1,1,-1
 620 735 l 1,2,-1
 607 655 l 1,3,-1
 240 655 l 1,4,-1
 201 419 l 1,5,-1
 531 419 l 1,6,-1
 518 341 l 1,7,-1
 188 341 l 1,8,-1
 145 80 l 1,9,-1
 519 80 l 1,10,-1
 506 0 l 1,11,-1
 39 0 l 1,0,-1
EndSplineSet
EndChar

StartChar: F
Encoding: 70 70 41
Width: 543
GlyphClass: 2
Flags: W
LayerCount: 2
Fore
SplineSet
39 0 m 1,0,-1
 161 735 l 1,1,-1
 606 735 l 1,2,-1
 593 655 l 1,3,-1
 240 655 l 1,4,-1
 199 409 l 1,5,-1
 516 409 l 1,6,-1
 503 330 l 1,7,-1
 186 330 l 1,8,-1
 132 0 l 1,9,-1
 39 0 l 1,0,-1
EndSplineSet
EndChar

StartChar: G
Encoding: 71 71 42
Width: 689
GlyphClass: 2
Flags: W
LayerCount: 2
Fore
SplineSet
57 367 m 0,0,1
 85 537 85 537 188.5 644.5 c 128,-1,2
 292 752 292 752 438 752 c 0,3,4
 489 752 489 752 530 736 c 128,-1,5
 571 720 571 720 596.5 693.5 c 128,-1,6
 622 667 622 667 636 641.5 c 128,-1,7
 650 616 650 616 658 590 c 1,8,-1
 575 563 l 1,9,10
 526 672 526 672 425 672 c 0,11,12
 319 672 319 672 246.5 588.5 c 128,-1,13
 174 505 174 505 152 367 c 0,14,15
 128 225 128 225 175 144.5 c 128,-1,16
 222 64 222 64 320 64 c 0,17,18
 408 64 408 64 465.5 120 c 128,-1,19
 523 176 523 176 538 256 c 0,20,21
 539 265 539 265 543.5 288.5 c 128,-1,22
 548 312 548 312 550 322 c 1,23,-1
 355 322 l 1,24,-1
 368 402 l 1,25,-1
 651 402 l 1,26,-1
 585 0 l 1,27,-1
 520 0 l 1,28,-1
 528 96 l 1,29,30
 450 -17 450 -17 304 -17 c 0,31,32
 167 -17 167 -17 97.5 86.5 c 128,-1,33
 28 190 28 190 57 367 c 0,0,1
EndSplineSet
EndChar

StartChar: H
Encoding: 72 72 43
Width: 688
GlyphClass: 2
Flags: W
LayerCount: 2
Fore
SplineSet
39 0 m 1,0,-1
 161 735 l 1,1,-1
 253 735 l 1,2,-1
 201 417 l 1,3,-1
 533 417 l 1,4,-1
 585 735 l 1,5,-1
 677 735 l 1,6,-1
 555 0 l 1,7,-1
 464 0 l 1,8,-1
 520 339 l 1,9,-1
 188 339 l 1,10,-1
 132 0 l 1,11,-1
 39 0 l 1,0,-1
EndSplineSet
EndChar

StartChar: I
Encoding: 73 73 44
Width: 264
GlyphClass: 2
Flags: W
LayerCount: 2
Fore
SplineSet
39 0 m 1,0,-1
 161 735 l 1,1,-1
 253 735 l 1,2,-1
 132 0 l 1,3,-1
 39 0 l 1,0,-1
EndSplineSet
EndChar

StartChar: J
Encoding: 74 74 45
Width: 484
GlyphClass: 2
Flags: W
LayerCount: 2
Fore
SplineSet
-16 124 m 1,0,-1
 68 156 l 1,1,2
 73 115 73 115 98.5 89.5 c 128,-1,3
 124 64 124 64 163 64 c 0,4,5
 270 64 270 64 295 218 c 2,6,-1
 381 735 l 1,7,-1
 473 735 l 1,8,-1
 385 204 l 2,9,10
 367 96 367 96 306.5 39.5 c 128,-1,11
 246 -17 246 -17 151 -17 c 0,12,13
 74 -17 74 -17 33.5 23 c 128,-1,14
 -7 63 -7 63 -16 124 c 1,0,-1
EndSplineSet
EndChar

StartChar: K
Encoding: 75 75 46
Width: 622
GlyphClass: 2
Flags: W
LayerCount: 2
Fore
SplineSet
39 0 m 1,0,-1
 161 735 l 1,1,-1
 253 735 l 1,2,-1
 192 366 l 1,3,-1
 194 366 l 1,4,-1
 566 735 l 1,5,-1
 685 735 l 1,6,-1
 357 416 l 1,7,-1
 576 0 l 1,8,-1
 463 0 l 1,9,-1
 287 349 l 1,10,-1
 170 235 l 1,11,-1
 132 0 l 1,12,-1
 39 0 l 1,0,-1
EndSplineSet
EndChar

StartChar: L
Encoding: 76 76 47
Width: 522
GlyphClass: 2
Flags: W
LayerCount: 2
Fore
SplineSet
39 0 m 1,0,-1
 161 735 l 1,1,-1
 253 735 l 1,2,-1
 145 80 l 1,3,-1
 482 80 l 1,4,-1
 469 0 l 1,5,-1
 39 0 l 1,0,-1
EndSplineSet
EndChar

StartChar: M
Encoding: 77 77 48
Width: 837
GlyphClass: 2
Flags: W
LayerCount: 2
Fore
SplineSet
39 0 m 1,0,-1
 161 735 l 1,1,-1
 278 735 l 1,2,-1
 362 358 l 2,3,4
 371 318 371 318 383.5 249 c 128,-1,5
 396 180 396 180 398 171 c 1,6,-1
 401 171 l 1,7,8
 408 185 408 185 501 358 c 2,9,-1
 709 735 l 1,10,-1
 827 735 l 1,11,-1
 705 0 l 1,12,-1
 614 0 l 1,13,-1
 678 387 l 2,14,15
 693 480 693 480 726 611 c 1,16,-1
 722 611 l 1,17,-1
 660 493 l 1,18,-1
 418 50 l 1,19,-1
 344 50 l 1,20,-1
 247 493 l 1,21,-1
 224 612 l 1,22,-1
 220 612 l 1,23,24
 208 461 208 461 196 387 c 2,25,-1
 132 0 l 1,26,-1
 39 0 l 1,0,-1
EndSplineSet
EndChar

StartChar: N
Encoding: 78 78 49
Width: 693
GlyphClass: 2
Flags: W
LayerCount: 2
Fore
SplineSet
39 0 m 1,0,-1
 161 735 l 1,1,-1
 262 735 l 1,2,-1
 438 288 l 1,3,-1
 496 136 l 1,4,-1
 502 136 l 1,5,6
 505 225 505 225 525 345 c 2,7,-1
 589 735 l 1,8,-1
 681 735 l 1,9,-1
 559 0 l 1,10,-1
 458 0 l 1,11,-1
 224 598 l 1,12,-1
 220 598 l 1,13,14
 214 498 214 498 196 389 c 2,15,-1
 132 0 l 1,16,-1
 39 0 l 1,0,-1
EndSplineSet
EndChar

StartChar: O
Encoding: 79 79 50
Width: 690
GlyphClass: 2
Flags: W
LayerCount: 2
Fore
SplineSet
57 367 m 0,0,1
 86 540 86 540 186 646 c 128,-1,2
 286 752 286 752 423 752 c 0,3,4
 562 752 562 752 626.5 646 c 128,-1,5
 691 540 691 540 662 366 c 0,6,7
 633 191 633 191 533 87 c 128,-1,8
 433 -17 433 -17 296 -17 c 256,9,10
 159 -17 159 -17 93.5 87.5 c 128,-1,11
 28 192 28 192 57 367 c 0,0,1
152 367 m 256,12,13
 129 227 129 227 171 145.5 c 128,-1,14
 213 64 213 64 309 64 c 256,15,16
 405 64 405 64 474 144 c 128,-1,17
 543 224 543 224 567 366 c 0,18,19
 590 506 590 506 549.5 589 c 128,-1,20
 509 672 509 672 410 672 c 0,21,22
 314 672 314 672 244.5 589.5 c 128,-1,23
 175 507 175 507 152 367 c 256,12,13
EndSplineSet
Substitution2: "Single Substitution lookup 12 subtable" ordmasculine
EndChar

StartChar: P
Encoding: 80 80 51
Width: 625
GlyphClass: 2
Flags: W
LayerCount: 2
Fore
SplineSet
39 0 m 1,0,-1
 161 735 l 1,1,-1
 437 735 l 2,2,3
 545 735 545 735 596.5 675.5 c 128,-1,4
 648 616 648 616 632 516 c 0,5,6
 615 415 615 415 542 356.5 c 128,-1,7
 469 298 469 298 365 298 c 2,8,-1
 181 298 l 1,9,-1
 132 0 l 1,10,-1
 39 0 l 1,0,-1
194 377 m 1,11,-1
 365 377 l 2,12,13
 436 377 436 377 480.5 412 c 128,-1,14
 525 447 525 447 536 516 c 0,15,16
 547 584 547 584 514.5 619.5 c 128,-1,17
 482 655 482 655 409 655 c 2,18,-1
 240 655 l 1,19,-1
 194 377 l 1,11,-1
EndSplineSet
EndChar

StartChar: Q
Encoding: 81 81 52
Width: 690
GlyphClass: 2
Flags: W
LayerCount: 2
Fore
SplineSet
56 366 m 0,0,1
 85 541 85 541 186 646.5 c 128,-1,2
 287 752 287 752 423 752 c 0,3,4
 561 752 561 752 626 645.5 c 128,-1,5
 691 539 691 539 662 366 c 0,6,7
 634 194 634 194 535 89 c 0,8,9
 534 88 534 88 533 87 c 2,10,-1
 602 1 l 1,11,-1
 536 -50 l 1,12,-1
 470 34 l 1,13,14
 392 -17 392 -17 296 -17 c 0,15,16
 158 -17 158 -17 93 88.5 c 128,-1,17
 28 194 28 194 56 366 c 0,0,1
316 226 m 1,18,-1
 382 278 l 1,19,-1
 481 153 l 1,20,21
 545 233 545 233 567 366 c 0,22,23
 591 510 591 510 548.5 591 c 128,-1,24
 506 672 506 672 410 672 c 0,25,26
 315 672 315 672 245 590 c 128,-1,27
 175 508 175 508 151 366 c 0,28,29
 128 226 128 226 170.5 145 c 128,-1,30
 213 64 213 64 309 64 c 0,31,32
 370 64 370 64 419 96 c 1,33,-1
 316 226 l 1,18,-1
EndSplineSet
EndChar

StartChar: R
Encoding: 82 82 53
Width: 644
GlyphClass: 2
Flags: W
LayerCount: 2
Fore
SplineSet
196 389 m 1,0,-1
 375 389 l 2,1,2
 444 389 444 389 486.5 425 c 128,-1,3
 529 461 529 461 540 524 c 0,4,5
 550 583 550 583 517 619 c 128,-1,6
 484 655 484 655 413 655 c 2,7,-1
 240 655 l 1,8,-1
 196 389 l 1,0,-1
39 0 m 1,9,-1
 161 735 l 1,10,-1
 445 735 l 2,11,12
 553 735 553 735 601.5 676 c 128,-1,13
 650 617 650 617 636 531 c 0,14,15
 623 454 623 454 578.5 405.5 c 128,-1,16
 534 357 534 357 486 344 c 1,17,18
 521 322 521 322 532.5 292 c 128,-1,19
 544 262 544 262 547 206 c 0,20,21
 550 161 550 161 552 136.5 c 128,-1,22
 554 112 554 112 562.5 75 c 128,-1,23
 571 38 571 38 586 0 c 1,24,-1
 483 0 l 1,25,26
 456 70 456 70 450 199 c 0,27,28
 446 252 446 252 427.5 280.5 c 128,-1,29
 409 309 409 309 358 309 c 2,30,-1
 183 309 l 1,31,-1
 132 0 l 1,32,-1
 39 0 l 1,9,-1
EndSplineSet
EndChar

StartChar: S
Encoding: 83 83 54
Width: 591
GlyphClass: 2
Flags: W
LayerCount: 2
Fore
SplineSet
9 144 m 1,0,-1
 96 174 l 1,1,2
 116 123 116 123 160.5 93.5 c 128,-1,3
 205 64 205 64 271 64 c 0,4,5
 341 64 341 64 390 98.5 c 128,-1,6
 439 133 439 133 449 192 c 0,7,8
 454 223 454 223 445 246.5 c 128,-1,9
 436 270 436 270 411.5 287 c 128,-1,10
 387 304 387 304 365 315 c 128,-1,11
 343 326 343 326 304 339 c 0,12,13
 199 377 199 377 161 404 c 0,14,15
 86 459 86 459 102 557 c 0,16,17
 117 645 117 645 192.5 698.5 c 128,-1,18
 268 752 268 752 379 752 c 0,19,20
 466 752 466 752 522.5 711 c 128,-1,21
 579 670 579 670 597 608 c 1,22,-1
 514 581 l 1,23,24
 471 672 471 672 364 672 c 0,25,26
 295 672 295 672 249.5 640.5 c 128,-1,27
 204 609 204 609 196 557 c 0,28,29
 191 527 191 527 201 504 c 128,-1,30
 211 481 211 481 238 464 c 128,-1,31
 265 447 265 447 289.5 436.5 c 128,-1,32
 314 426 314 426 355 411 c 0,33,34
 366 407 366 407 372 406 c 0,35,36
 414 390 414 390 443.5 375 c 128,-1,37
 473 360 473 360 501 335.5 c 128,-1,38
 529 311 529 311 540 276 c 128,-1,39
 551 241 551 241 543 195 c 0,40,41
 526 94 526 94 448 38.5 c 128,-1,42
 370 -17 370 -17 255 -17 c 0,43,44
 157 -17 157 -17 94 26.5 c 128,-1,45
 31 70 31 70 9 144 c 1,0,-1
EndSplineSet
EndChar

StartChar: T
Encoding: 84 84 55
Width: 540
GlyphClass: 2
Flags: W
LayerCount: 2
Fore
SplineSet
72 655 m 1,0,-1
 86 735 l 1,1,-1
 607 735 l 1,2,-1
 594 655 l 1,3,-1
 379 655 l 1,4,-1
 271 0 l 1,5,-1
 179 0 l 1,6,-1
 287 655 l 1,7,-1
 72 655 l 1,0,-1
EndSplineSet
EndChar

StartChar: U
Encoding: 85 85 56
Width: 685
GlyphClass: 2
Flags: W
LayerCount: 2
Fore
SplineSet
81 269 m 2,0,-1
 158 735 l 1,1,-1
 251 735 l 1,2,-1
 175 271 l 2,3,4
 158 166 158 166 195 115 c 128,-1,5
 232 64 232 64 306 64 c 0,6,7
 382 64 382 64 436.5 117 c 128,-1,8
 491 170 491 170 508 271 c 2,9,-1
 585 735 l 1,10,-1
 677 735 l 1,11,-1
 600 269 l 2,12,13
 577 133 577 133 498.5 58 c 128,-1,14
 420 -17 420 -17 293 -17 c 0,15,16
 171 -17 171 -17 114.5 56.5 c 128,-1,17
 58 130 58 130 81 269 c 2,0,-1
EndSplineSet
EndChar

StartChar: V
Encoding: 86 86 57
Width: 582
GlyphClass: 2
Flags: W
LayerCount: 2
Fore
SplineSet
74 735 m 1,0,-1
 174 735 l 1,1,-1
 240 257 l 2,2,3
 242 229 242 229 249 177 c 128,-1,4
 256 125 256 125 259 95 c 1,5,-1
 263 94 l 1,6,7
 276 124 276 124 298.5 175.5 c 128,-1,8
 321 227 321 227 335 257 c 2,9,-1
 559 735 l 1,10,-1
 660 735 l 1,11,-1
 300 0 l 1,12,-1
 191 0 l 1,13,-1
 74 735 l 1,0,-1
EndSplineSet
EndChar

StartChar: W
Encoding: 87 87 58
Width: 839
GlyphClass: 2
Flags: W
LayerCount: 2
Fore
SplineSet
86 735 m 1,0,-1
 185 735 l 1,1,-1
 199 270 l 2,2,3
 199 145 199 145 199 104 c 1,4,-1
 205 104 l 1,5,6
 210 118 210 118 232 179.5 c 128,-1,7
 254 241 254 241 264 270 c 2,8,-1
 447 735 l 1,9,-1
 542 735 l 1,10,-1
 573 270 l 2,11,12
 575 228 575 228 577 104 c 1,13,-1
 581 104 l 1,14,15
 585 116 585 116 637 270 c 1,16,-1
 807 735 l 1,17,-1
 906 735 l 1,18,-1
 617 0 l 1,19,-1
 510 0 l 1,20,-1
 482 459 l 2,21,22
 481 477 481 477 480 509 c 128,-1,23
 479 541 479 541 478 567.5 c 128,-1,24
 477 594 477 594 478 618 c 1,25,-1
 474 618 l 1,26,27
 468 601 468 601 416 459 c 2,28,-1
 236 0 l 1,29,-1
 131 0 l 1,30,-1
 86 735 l 1,0,-1
EndSplineSet
EndChar

StartChar: X
Encoding: 88 88 59
Width: 579
GlyphClass: 2
Flags: W
LayerCount: 2
Fore
SplineSet
-48 0 m 1,0,-1
 250 378 l 1,1,-1
 87 735 l 1,2,-1
 197 735 l 1,3,-1
 269 564 l 2,4,5
 275 551 275 551 283.5 528 c 128,-1,6
 292 505 292 505 300 485.5 c 128,-1,7
 308 466 308 466 315 448 c 1,8,-1
 319 448 l 1,9,10
 335 471 335 471 365 510.5 c 128,-1,11
 395 550 395 550 405 564 c 2,12,-1
 532 735 l 1,13,-1
 645 735 l 1,14,-1
 362 378 l 1,15,-1
 534 0 l 1,16,-1
 425 0 l 1,17,-1
 346 180 l 2,18,19
 328 223 328 223 295 304 c 1,20,-1
 292 304 l 1,21,22
 240 233 240 233 200 180 c 2,23,-1
 63 0 l 1,24,-1
 -48 0 l 1,0,-1
EndSplineSet
EndChar

StartChar: Y
Encoding: 89 89 60
Width: 592
GlyphClass: 2
Flags: W
LayerCount: 2
Fore
SplineSet
72 735 m 1,0,-1
 180 735 l 1,1,-1
 263 513 l 2,2,3
 290 440 290 440 311 381 c 1,4,-1
 313 381 l 1,5,6
 330 404 330 404 361.5 449.5 c 128,-1,7
 393 495 393 495 407 513 c 2,8,-1
 562 735 l 1,9,-1
 670 735 l 1,10,-1
 346 301 l 1,11,-1
 296 0 l 1,12,-1
 204 0 l 1,13,-1
 254 301 l 1,14,-1
 72 735 l 1,0,-1
EndSplineSet
EndChar

StartChar: Z
Encoding: 90 90 61
Width: 588
GlyphClass: 2
Flags: W
LayerCount: 2
Fore
SplineSet
1 68 m 1,0,-1
 493 655 l 1,1,-1
 128 655 l 1,2,-1
 141 735 l 1,3,-1
 620 735 l 1,4,-1
 608 665 l 1,5,-1
 114 80 l 1,6,-1
 520 80 l 1,7,-1
 507 0 l 1,8,-1
 -11 0 l 1,9,-1
 1 68 l 1,0,-1
EndSplineSet
EndChar

StartChar: bracketleft
Encoding: 91 91 62
Width: 419
GlyphClass: 2
Flags: W
LayerCount: 2
Fore
SplineSet
59 -125 m 1,0,-1
 217 830 l 1,1,-1
 429 830 l 1,2,-1
 416 755 l 1,3,-1
 294 755 l 1,4,-1
 160 -51 l 1,5,-1
 283 -51 l 1,6,-1
 270 -125 l 1,7,-1
 59 -125 l 1,0,-1
EndSplineSet
EndChar

StartChar: backslash
Encoding: 92 92 63
Width: 329
GlyphClass: 2
Flags: W
LayerCount: 2
Fore
SplineSet
70 781 m 1,0,-1
 162 781 l 1,1,-1
 288 -55 l 1,2,-1
 196 -55 l 1,3,-1
 70 781 l 1,0,-1
EndSplineSet
EndChar

StartChar: bracketright
Encoding: 93 93 64
Width: 419
GlyphClass: 2
Flags: W
LayerCount: 2
Fore
SplineSet
26 -51 m 1,0,-1
 149 -51 l 1,1,-1
 282 755 l 1,2,-1
 159 755 l 1,3,-1
 171 830 l 1,4,-1
 383 830 l 1,5,-1
 225 -125 l 1,6,-1
 13 -125 l 1,7,-1
 26 -51 l 1,0,-1
EndSplineSet
EndChar

StartChar: asciicircum
Encoding: 94 94 65
Width: 496
GlyphClass: 2
Flags: W
LayerCount: 2
Fore
SplineSet
43 471 m 1,0,-1
 293 808 l 1,1,-1
 378 808 l 1,2,-1
 515 471 l 1,3,-1
 423 471 l 1,4,-1
 324 736 l 1,5,-1
 136 471 l 1,6,-1
 43 471 l 1,0,-1
EndSplineSet
EndChar

StartChar: underscore
Encoding: 95 95 66
Width: 452
GlyphClass: 2
Flags: W
LayerCount: 2
Fore
SplineSet
-44 -13 m 1,0,-1
 400 -13 l 1,1,-1
 388 -88 l 1,2,-1
 -56 -88 l 1,3,-1
 -44 -13 l 1,0,-1
EndSplineSet
EndChar

StartChar: grave
Encoding: 96 96 67
Width: 301
GlyphClass: 2
Flags: W
LayerCount: 2
Fore
SplineSet
200 530 m 1,0,-1
 123 822 l 1,1,-1
 237 822 l 1,2,-1
 271 530 l 1,3,-1
 200 530 l 1,0,-1
EndSplineSet
EndChar

StartChar: a
Encoding: 97 97 68
Width: 516
GlyphClass: 2
Flags: W
LayerCount: 2
Fore
SplineSet
96 141 m 0,0,1
 90 106 90 106 114 82 c 128,-1,2
 138 58 138 58 184 58 c 0,3,4
 247 58 247 58 297.5 100.5 c 128,-1,5
 348 143 348 143 358 209 c 2,6,-1
 369 275 l 1,7,8
 330 265 330 265 247 251 c 0,9,10
 110 228 110 228 96 141 c 0,0,1
11 133 m 0,11,12
 36 282 36 282 255 317 c 0,13,14
 350 332 350 332 381 342 c 1,15,-1
 385 372 l 2,16,17
 393 418 393 418 367 447 c 128,-1,18
 341 476 341 476 286 476 c 0,19,20
 241 476 241 476 197.5 454.5 c 128,-1,21
 154 433 154 433 120 397 c 1,22,-1
 74 445 l 1,23,24
 120 492 120 492 178 520 c 128,-1,25
 236 548 236 548 296 548 c 0,26,27
 499 548 499 548 464 336 c 2,28,-1
 408 0 l 1,29,-1
 327 0 l 1,30,-1
 340 80 l 1,31,32
 318 40 318 40 269.5 11.5 c 128,-1,33
 221 -17 221 -17 161 -17 c 0,34,35
 79 -17 79 -17 39.5 24.5 c 128,-1,36
 0 66 0 66 11 133 c 0,11,12
EndSplineSet
Substitution2: "Single Substitution lookup 12 subtable" ordfeminine
EndChar

StartChar: b
Encoding: 98 98 69
Width: 549
GlyphClass: 2
Flags: W
LayerCount: 2
Fore
SplineSet
25 0 m 1,0,-1
 151 761 l 1,1,-1
 235 761 l 1,2,-1
 184 448 l 1,3,4
 205 486 205 486 249 517 c 128,-1,5
 293 548 293 548 345 548 c 0,6,7
 438 548 438 548 484.5 472.5 c 128,-1,8
 531 397 531 397 510 266 c 0,9,10
 498 193 498 193 469.5 136 c 128,-1,11
 441 79 441 79 403.5 46.5 c 128,-1,12
 366 14 366 14 328 -1.5 c 128,-1,13
 290 -17 290 -17 252 -17 c 0,14,15
 202 -17 202 -17 167.5 13 c 128,-1,16
 133 43 133 43 123 86 c 1,17,-1
 109 0 l 1,18,-1
 25 0 l 1,0,-1
152 266 m 0,19,20
 136 171 136 171 165.5 115 c 128,-1,21
 195 59 195 59 252 59 c 0,22,23
 312 59 312 59 359.5 113.5 c 128,-1,24
 407 168 407 168 423 266 c 0,25,26
 439 360 439 360 410.5 416 c 128,-1,27
 382 472 382 472 321 472 c 0,28,29
 264 472 264 472 215.5 415.5 c 128,-1,30
 167 359 167 359 152 266 c 0,19,20
EndSplineSet
EndChar

StartChar: c
Encoding: 99 99 70
Width: 479
GlyphClass: 2
Flags: W
LayerCount: 2
Fore
SplineSet
32 265 m 0,0,1
 53 392 53 392 128.5 470 c 128,-1,2
 204 548 204 548 307 548 c 0,3,4
 378 548 378 548 419.5 504.5 c 128,-1,5
 461 461 461 461 467 404 c 1,6,-1
 390 381 l 1,7,8
 383 419 383 419 358.5 445.5 c 128,-1,9
 334 472 334 472 295 472 c 0,10,11
 230 472 230 472 182.5 413 c 128,-1,12
 135 354 135 354 120 265 c 0,13,14
 104 170 104 170 134.5 114.5 c 128,-1,15
 165 59 165 59 226 59 c 0,16,17
 269 59 269 59 307 88.5 c 128,-1,18
 345 118 345 118 365 156 c 1,19,-1
 434 133 l 1,20,21
 406 72 406 72 345 27.5 c 128,-1,22
 284 -17 284 -17 213 -17 c 0,23,24
 112 -17 112 -17 61.5 59.5 c 128,-1,25
 11 136 11 136 32 265 c 0,0,1
EndSplineSet
EndChar

StartChar: d
Encoding: 100 100 71
Width: 549
GlyphClass: 2
Flags: W
LayerCount: 2
Fore
SplineSet
33 266 m 0,0,1
 55 397 55 397 127.5 472.5 c 128,-1,2
 200 548 200 548 292 548 c 0,3,4
 343 548 343 548 376.5 518 c 128,-1,5
 410 488 410 488 420 450 c 1,6,-1
 472 761 l 1,7,-1
 556 761 l 1,8,-1
 430 0 l 1,9,-1
 349 0 l 1,10,-1
 363 87 l 1,11,12
 338 42 338 42 293.5 12.5 c 128,-1,13
 249 -17 249 -17 199 -17 c 0,14,15
 160 -17 160 -17 126 -1.5 c 128,-1,16
 92 14 92 14 66 46.5 c 128,-1,17
 40 79 40 79 30.5 136 c 128,-1,18
 21 193 21 193 33 266 c 0,0,1
120 266 m 0,19,20
 104 171 104 171 132.5 115 c 128,-1,21
 161 59 161 59 222 59 c 0,22,23
 278 59 278 59 327 115 c 128,-1,24
 376 171 376 171 392 266 c 0,25,26
 407 359 407 359 377.5 415.5 c 128,-1,27
 348 472 348 472 291 472 c 0,28,29
 228 472 228 472 181.5 415 c 128,-1,30
 135 358 135 358 120 266 c 0,19,20
EndSplineSet
EndChar

StartChar: e
Encoding: 101 101 72
Width: 523
GlyphClass: 2
Flags: W
LayerCount: 2
Fore
SplineSet
33 269 m 0,0,1
 54 394 54 394 131.5 471 c 128,-1,2
 209 548 209 548 310 548 c 256,3,4
 411 548 411 548 459 472 c 128,-1,5
 507 396 507 396 488 277 c 0,6,7
 486 262 486 262 479 235 c 1,8,-1
 114 235 l 1,9,10
 102 162 102 162 133 109.5 c 128,-1,11
 164 57 164 57 234 57 c 0,12,13
 327 57 327 57 384 142 c 1,14,-1
 452 118 l 1,15,16
 419 59 419 59 359 21 c 128,-1,17
 299 -17 299 -17 220 -17 c 0,18,19
 115 -17 115 -17 63.5 61.5 c 128,-1,20
 12 140 12 140 33 269 c 0,0,1
127 302 m 1,21,-1
 406 302 l 1,22,23
 418 374 418 374 389.5 424 c 128,-1,24
 361 474 361 474 298 474 c 256,25,26
 234 474 234 474 187 422.5 c 128,-1,27
 140 371 140 371 127 302 c 1,21,-1
EndSplineSet
EndChar

StartChar: f
Encoding: 102 102 73
Width: 320
GlyphClass: 2
Flags: W
LayerCount: 2
Fore
SplineSet
49 455 m 1,0,-1
 62 531 l 1,1,-1
 145 531 l 1,2,-1
 158 604 l 2,3,4
 171 684 171 684 215 722.5 c 128,-1,5
 259 761 259 761 325 761 c 2,6,-1
 395 761 l 1,7,-1
 383 686 l 1,8,-1
 325 686 l 2,9,10
 256 686 256 686 241 596 c 2,11,-1
 230 531 l 1,12,-1
 346 531 l 1,13,-1
 333 455 l 1,14,-1
 217 455 l 1,15,-1
 142 0 l 1,16,-1
 58 0 l 1,17,-1
 133 455 l 1,18,-1
 49 455 l 1,0,-1
EndSplineSet
EndChar

StartChar: g
Encoding: 103 103 74
Width: 535
GlyphClass: 2
Flags: W
LayerCount: 2
Fore
SplineSet
122 276 m 0,0,1
 107 186 107 186 134.5 132.5 c 128,-1,2
 162 79 162 79 221 79 c 0,3,4
 279 79 279 79 323 131 c 128,-1,5
 367 183 367 183 383 276 c 0,6,7
 398 368 398 368 370.5 420 c 128,-1,8
 343 472 343 472 287 472 c 0,9,10
 226 472 226 472 181 417 c 128,-1,11
 136 362 136 362 122 276 c 0,0,1
35 275 m 0,12,13
 55 398 55 398 126.5 473 c 128,-1,14
 198 548 198 548 289 548 c 0,15,16
 343 548 343 548 373 518.5 c 128,-1,17
 403 489 403 489 412 453 c 1,18,-1
 425 531 l 1,19,-1
 509 531 l 1,20,-1
 432 66 l 2,21,22
 407 -84 407 -84 342.5 -157 c 128,-1,23
 278 -230 278 -230 166 -230 c 0,24,25
 43 -230 43 -230 -8 -132 c 1,26,-1
 56 -91 l 1,27,28
 101 -157 101 -157 180 -157 c 0,29,30
 240 -157 240 -157 283 -108 c 128,-1,31
 326 -59 326 -59 341 22 c 0,32,33
 343 36 343 36 347 60 c 128,-1,34
 351 84 351 84 353 93 c 1,35,36
 329 54 329 54 289 28.5 c 128,-1,37
 249 3 249 3 201 3 c 0,38,39
 106 3 106 3 60.5 78.5 c 128,-1,40
 15 154 15 154 35 275 c 0,12,13
EndSplineSet
EndChar

StartChar: h
Encoding: 104 104 75
Width: 530
GlyphClass: 2
Flags: W
LayerCount: 2
Fore
SplineSet
25 0 m 1,0,-1
 151 761 l 1,1,-1
 235 761 l 1,2,-1
 185 456 l 1,3,-1
 187 456 l 1,4,5
 212 494 212 494 256.5 521 c 128,-1,6
 301 548 301 548 348 548 c 0,7,8
 423 548 423 548 460 500 c 128,-1,9
 497 452 497 452 479 343 c 2,10,-1
 422 0 l 1,11,-1
 337 0 l 1,12,-1
 392 329 l 2,13,14
 416 472 416 472 320 472 c 0,15,16
 266 472 266 472 219 424.5 c 128,-1,17
 172 377 172 377 161 311 c 2,18,-1
 109 0 l 1,19,-1
 25 0 l 1,0,-1
EndSplineSet
Substitution2: "'sups' Superscript lookup 5 subtable" uni02B0
Substitution2: "'aalt' Access All Alternates lookup 0 subtable" uni02B0
EndChar

StartChar: i
Encoding: 105 105 76
Width: 248
GlyphClass: 2
Flags: W
LayerCount: 2
Fore
SplineSet
132 636 m 1,0,-1
 150 746 l 1,1,-1
 251 746 l 1,2,-1
 233 636 l 1,3,-1
 132 636 l 1,0,-1
36 0 m 1,4,-1
 124 531 l 1,5,-1
 207 531 l 1,6,-1
 119 0 l 1,7,-1
 36 0 l 1,4,-1
EndSplineSet
EndChar

StartChar: j
Encoding: 106 106 77
Width: 256
GlyphClass: 2
Flags: W
LayerCount: 2
Fore
SplineSet
139 636 m 1,0,-1
 158 746 l 1,1,-1
 260 746 l 1,2,-1
 242 636 l 1,3,-1
 139 636 l 1,0,-1
-81 -143 m 1,4,-1
 -59 -143 l 2,5,6
 19 -143 19 -143 38 -27 c 2,7,-1
 131 531 l 1,8,-1
 215 531 l 1,9,-1
 122 -32 l 2,10,11
 107 -124 107 -124 60 -172 c 128,-1,12
 13 -220 13 -220 -58 -220 c 2,13,-1
 -93 -220 l 1,14,-1
 -81 -143 l 1,4,-1
EndSplineSet
Substitution2: "'sups' Superscript lookup 5 subtable" uni02B2
Substitution2: "'aalt' Access All Alternates lookup 0 subtable" uni02B2
EndChar

StartChar: k
Encoding: 107 107 78
Width: 484
GlyphClass: 2
Flags: W
LayerCount: 2
Fore
SplineSet
27 0 m 1,0,-1
 153 761 l 1,1,-1
 237 761 l 1,2,-1
 158 283 l 1,3,-1
 404 531 l 1,4,-1
 516 531 l 1,5,-1
 298 317 l 1,6,-1
 445 0 l 1,7,-1
 342 0 l 1,8,-1
 232 254 l 1,9,-1
 138 162 l 1,10,-1
 111 0 l 1,11,-1
 27 0 l 1,0,-1
EndSplineSet
EndChar

StartChar: l
Encoding: 108 108 79
Width: 237
GlyphClass: 2
Flags: W
LayerCount: 2
Fore
SplineSet
30 0 m 1,0,-1
 156 761 l 1,1,-1
 240 761 l 1,2,-1
 114 0 l 1,3,-1
 30 0 l 1,0,-1
EndSplineSet
Substitution2: "'sups' Superscript lookup 5 subtable" uni02E1
Substitution2: "'aalt' Access All Alternates lookup 0 subtable" uni02E1
EndChar

StartChar: m
Encoding: 109 109 80
Width: 782
GlyphClass: 2
Flags: W
LayerCount: 2
Fore
SplineSet
19 0 m 1,0,-1
 107 531 l 1,1,-1
 191 531 l 1,2,-1
 179 458 l 1,3,4
 198 490 198 490 238 519 c 128,-1,5
 278 548 278 548 331 548 c 0,6,7
 420 548 420 548 439 438 c 1,8,9
 447 452 447 452 459.5 467 c 128,-1,10
 472 482 472 482 493.5 502 c 128,-1,11
 515 522 515 522 547.5 535 c 128,-1,12
 580 548 580 548 616 548 c 0,13,14
 765 548 765 548 731 343 c 2,15,-1
 674 0 l 1,16,-1
 589 0 l 1,17,-1
 644 337 l 2,18,19
 655 404 655 404 644 438 c 128,-1,20
 633 472 633 472 585 472 c 0,21,22
 535 472 535 472 493 427 c 128,-1,23
 451 382 451 382 440 315 c 2,24,-1
 388 0 l 1,25,-1
 305 0 l 1,26,-1
 362 339 l 2,27,28
 384 472 384 472 300 472 c 0,29,30
 246 472 246 472 208 429.5 c 128,-1,31
 170 387 170 387 159 319 c 2,32,-1
 106 0 l 1,33,-1
 19 0 l 1,0,-1
EndSplineSet
EndChar

StartChar: n
Encoding: 110 110 81
Width: 526
GlyphClass: 2
Flags: W
LayerCount: 2
Fore
SplineSet
19 0 m 1,0,-1
 107 531 l 1,1,-1
 191 531 l 1,2,-1
 177 448 l 1,3,-1
 178 448 l 1,4,5
 195 484 195 484 241.5 516 c 128,-1,6
 288 548 288 548 347 548 c 0,7,8
 419 548 419 548 456.5 501 c 128,-1,9
 494 454 494 454 475 343 c 2,10,-1
 419 0 l 1,11,-1
 333 0 l 1,12,-1
 387 328 l 2,13,14
 411 472 411 472 315 472 c 0,15,16
 262 472 262 472 215.5 425.5 c 128,-1,17
 169 379 169 379 158 313 c 2,18,-1
 106 0 l 1,19,-1
 19 0 l 1,0,-1
EndSplineSet
Substitution2: "'sups' Superscript lookup 5 subtable" uni207F
Substitution2: "'aalt' Access All Alternates lookup 0 subtable" uni207F
EndChar

StartChar: o
Encoding: 111 111 82
Width: 527
GlyphClass: 2
Flags: W
LayerCount: 2
Fore
SplineSet
120 265 m 0,0,1
 104 168 104 168 136 113.5 c 128,-1,2
 168 59 168 59 227 59 c 256,3,4
 286 59 286 59 336.5 113.5 c 128,-1,5
 387 168 387 168 403 265 c 0,6,7
 419 364 419 364 386.5 418 c 128,-1,8
 354 472 354 472 296 472 c 0,9,10
 238 472 238 472 187.5 418.5 c 128,-1,11
 137 365 137 365 120 265 c 0,0,1
32 265 m 0,12,13
 52 385 52 385 125 466.5 c 128,-1,14
 198 548 198 548 308 548 c 0,15,16
 417 548 417 548 463 466.5 c 128,-1,17
 509 385 509 385 489 265 c 0,18,19
 481 215 481 215 461 167.5 c 128,-1,20
 441 120 441 120 409 77.5 c 128,-1,21
 377 35 377 35 326 9 c 128,-1,22
 275 -17 275 -17 215 -17 c 0,23,24
 155 -17 155 -17 113 8.5 c 128,-1,25
 71 34 71 34 52.5 76 c 128,-1,26
 34 118 34 118 29 166 c 128,-1,27
 24 214 24 214 32 265 c 0,12,13
EndSplineSet
Substitution2: "Single Substitution lookup 12 subtable" ordmasculine
EndChar

StartChar: p
Encoding: 112 112 83
Width: 549
GlyphClass: 2
Flags: W
LayerCount: 2
Fore
SplineSet
154 266 m 0,0,1
 138 172 138 172 164 115.5 c 128,-1,2
 190 59 190 59 252 59 c 0,3,4
 312 59 312 59 360 114.5 c 128,-1,5
 408 170 408 170 424 266 c 0,6,7
 439 357 439 357 411.5 414.5 c 128,-1,8
 384 472 384 472 321 472 c 0,9,10
 261 472 261 472 215 414 c 128,-1,11
 169 356 169 356 154 266 c 0,0,1
-13 -226 m 1,12,-1
 113 531 l 1,13,-1
 195 531 l 1,14,-1
 180 444 l 1,15,16
 208 490 208 490 252 519 c 128,-1,17
 296 548 296 548 345 548 c 0,18,19
 437 548 437 548 484 471.5 c 128,-1,20
 531 395 531 395 510 266 c 0,21,22
 487 127 487 127 411.5 55 c 128,-1,23
 336 -17 336 -17 252 -17 c 0,24,25
 198 -17 198 -17 165 11 c 128,-1,26
 132 39 132 39 123 81 c 1,27,-1
 72 -226 l 1,28,-1
 -13 -226 l 1,12,-1
EndSplineSet
EndChar

StartChar: q
Encoding: 113 113 84
Width: 547
GlyphClass: 2
Flags: W
LayerCount: 2
Fore
SplineSet
120 266 m 0,0,1
 104 170 104 170 133.5 114.5 c 128,-1,2
 163 59 163 59 222 59 c 0,3,4
 283 59 283 59 329 115 c 128,-1,5
 375 171 375 171 391 266 c 0,6,7
 406 356 406 356 378.5 414 c 128,-1,8
 351 472 351 472 291 472 c 0,9,10
 225 472 225 472 180 414 c 128,-1,11
 135 356 135 356 120 266 c 0,0,1
33 266 m 0,12,13
 54 395 54 395 127 471.5 c 128,-1,14
 200 548 200 548 292 548 c 0,15,16
 340 548 340 548 374 519.5 c 128,-1,17
 408 491 408 491 422 444 c 1,18,-1
 436 531 l 1,19,-1
 518 531 l 1,20,-1
 393 -226 l 1,21,-1
 308 -226 l 1,22,-1
 359 82 l 1,23,24
 334 39 334 39 292 11 c 128,-1,25
 250 -17 250 -17 199 -17 c 0,26,27
 113 -17 113 -17 61.5 55 c 128,-1,28
 10 127 10 127 33 266 c 0,12,13
EndSplineSet
EndChar

StartChar: r
Encoding: 114 114 85
Width: 347
GlyphClass: 2
Flags: W
LayerCount: 2
Fore
SplineSet
19 0 m 1,0,-1
 107 531 l 1,1,-1
 189 531 l 1,2,-1
 177 460 l 1,3,4
 197 494 197 494 236 521 c 128,-1,5
 275 548 275 548 325 548 c 0,6,7
 363 548 363 548 392 535 c 1,8,-1
 379 453 l 1,9,10
 348 466 348 466 311 466 c 0,11,12
 249 466 249 466 208 417 c 128,-1,13
 167 368 167 368 153 287 c 2,14,-1
 106 0 l 1,15,-1
 19 0 l 1,0,-1
EndSplineSet
Substitution2: "'sups' Superscript lookup 5 subtable" uni02B3
Substitution2: "'aalt' Access All Alternates lookup 0 subtable" uni02B3
EndChar

StartChar: s
Encoding: 115 115 86
Width: 463
GlyphClass: 2
Flags: W
LayerCount: 2
Fore
SplineSet
0 107 m 1,0,-1
 68 145 l 1,1,2
 108 58 108 58 198 58 c 0,3,4
 249 58 249 58 284 78 c 128,-1,5
 319 98 319 98 325 135 c 0,6,7
 327 148 327 148 324.5 159.5 c 128,-1,8
 322 171 322 171 311.5 181.5 c 128,-1,9
 301 192 301 192 293.5 198 c 128,-1,10
 286 204 286 204 264 213 c 128,-1,11
 242 222 242 222 231.5 225.5 c 128,-1,12
 221 229 221 229 191 240 c 0,13,14
 160 250 160 250 139.5 261.5 c 128,-1,15
 119 273 119 273 97 290.5 c 128,-1,16
 75 308 75 308 66.5 335 c 128,-1,17
 58 362 58 362 64 397 c 0,18,19
 75 464 75 464 134.5 506 c 128,-1,20
 194 548 194 548 279 548 c 0,21,22
 341 548 341 548 388.5 514 c 128,-1,23
 436 480 436 480 452 431 c 1,24,-1
 388 392 l 1,25,26
 373 426 373 426 342 449.5 c 128,-1,27
 311 473 311 473 267 473 c 0,28,29
 216 473 216 473 186 452.5 c 128,-1,30
 156 432 156 432 150 396 c 0,31,32
 147 375 147 375 154.5 358 c 128,-1,33
 162 341 162 341 183.5 328 c 128,-1,34
 205 315 205 315 221 308.5 c 128,-1,35
 237 302 237 302 267 291 c 0,36,37
 299 280 299 280 322.5 268.5 c 128,-1,38
 346 257 346 257 370.5 239 c 128,-1,39
 395 221 395 221 405 194 c 128,-1,40
 415 167 415 167 410 134 c 0,41,42
 399 70 399 70 339.5 26.5 c 128,-1,43
 280 -17 280 -17 186 -17 c 0,44,45
 117 -17 117 -17 69 15.5 c 128,-1,46
 21 48 21 48 0 107 c 1,0,-1
EndSplineSet
Substitution2: "'hist' Historical Forms lookup 11 subtable" longs
Substitution2: "'sups' Superscript lookup 5 subtable" uni02E2
AlternateSubs2: "'aalt' Access All Alternates lookup 1 subtable" uni02E2 longs
EndChar

StartChar: t
Encoding: 116 116 87
Width: 340
GlyphClass: 2
Flags: W
LayerCount: 2
Fore
SplineSet
45 455 m 1,0,-1
 57 531 l 1,1,-1
 143 531 l 1,2,-1
 170 696 l 1,3,-1
 255 696 l 1,4,-1
 227 531 l 1,5,-1
 354 531 l 1,6,-1
 341 455 l 1,7,-1
 215 455 l 1,8,-1
 166 161 l 2,9,10
 159 116 159 116 172 96.5 c 128,-1,11
 185 77 185 77 222 77 c 2,12,-1
 280 77 l 1,13,-1
 267 0 l 1,14,-1
 198 0 l 2,15,16
 55 0 55 0 80 153 c 2,17,-1
 130 455 l 1,18,-1
 45 455 l 1,0,-1
EndSplineSet
EndChar

StartChar: u
Encoding: 117 117 88
Width: 523
GlyphClass: 2
Flags: W
LayerCount: 2
Fore
SplineSet
45 189 m 2,0,-1
 102 531 l 1,1,-1
 187 531 l 1,2,-1
 133 204 l 2,3,4
 109 59 109 59 209 59 c 0,5,6
 270 59 270 59 311 110 c 128,-1,7
 352 161 352 161 364 230 c 2,8,-1
 414 531 l 1,9,-1
 498 531 l 1,10,-1
 410 0 l 1,11,-1
 328 0 l 1,12,-1
 341 77 l 1,13,-1
 340 77 l 1,14,15
 324 45 324 45 282.5 14 c 128,-1,16
 241 -17 241 -17 178 -17 c 0,17,18
 107 -17 107 -17 67.5 33.5 c 128,-1,19
 28 84 28 84 45 189 c 2,0,-1
EndSplineSet
EndChar

StartChar: v
Encoding: 118 118 89
Width: 479
GlyphClass: 2
Flags: W
LayerCount: 2
Fore
SplineSet
48 531 m 1,0,-1
 143 531 l 1,1,-1
 189 220 l 2,2,3
 194 190 194 190 199 136 c 128,-1,4
 204 82 204 82 204 77 c 1,5,-1
 206 77 l 1,6,7
 217 102 217 102 240.5 153 c 128,-1,8
 264 204 264 204 271 220 c 2,9,-1
 419 531 l 1,10,-1
 513 531 l 1,11,-1
 243 0 l 1,12,-1
 142 0 l 1,13,-1
 48 531 l 1,0,-1
EndSplineSet
EndChar

StartChar: w
Encoding: 119 119 90
Width: 686
GlyphClass: 2
Flags: W
LayerCount: 2
Fore
SplineSet
48 531 m 1,0,-1
 142 531 l 1,1,-1
 158 223 l 2,2,3
 159 202 159 202 159.5 157 c 128,-1,4
 160 112 160 112 162 85 c 1,5,-1
 165 85 l 1,6,7
 203 187 203 187 217 223 c 2,8,-1
 336 531 l 1,9,-1
 433 531 l 1,10,-1
 451 220 l 2,11,12
 452 202 452 202 454.5 157.5 c 128,-1,13
 457 113 457 113 457 85 c 1,14,-1
 461 85 l 1,15,16
 466 100 466 100 483 148.5 c 128,-1,17
 500 197 500 197 510 223 c 2,18,-1
 627 531 l 1,19,-1
 722 531 l 1,20,-1
 495 0 l 1,21,-1
 393 0 l 1,22,-1
 375 299 l 2,23,24
 371 402 371 402 370 434 c 1,25,-1
 367 434 l 1,26,27
 338 351 338 351 318 299 c 2,28,-1
 201 0 l 1,29,-1
 98 0 l 1,30,-1
 48 531 l 1,0,-1
EndSplineSet
Substitution2: "'sups' Superscript lookup 5 subtable" uni02B7
Substitution2: "'aalt' Access All Alternates lookup 0 subtable" uni02B7
EndChar

StartChar: x
Encoding: 120 120 91
Width: 473
GlyphClass: 2
Flags: W
LayerCount: 2
Fore
SplineSet
-42 0 m 1,0,-1
 184 275 l 1,1,-1
 54 531 l 1,2,-1
 157 531 l 1,3,-1
 215 402 l 2,4,5
 221 388 221 388 231 366.5 c 128,-1,6
 241 345 241 345 243 338 c 1,7,-1
 246 338 l 1,8,9
 254 349 254 349 270 370 c 128,-1,10
 286 391 286 391 294 402 c 2,11,-1
 395 531 l 1,12,-1
 498 531 l 1,13,-1
 285 275 l 1,14,-1
 420 0 l 1,15,-1
 319 0 l 1,16,-1
 253 147 l 2,17,18
 242 171 242 171 225 210 c 1,19,-1
 222 210 l 1,20,21
 202 183 202 183 174 147 c 2,22,-1
 59 0 l 1,23,-1
 -42 0 l 1,0,-1
EndSplineSet
Substitution2: "'sups' Superscript lookup 5 subtable" uni02E3
Substitution2: "'aalt' Access All Alternates lookup 0 subtable" uni02E3
EndChar

StartChar: y
Encoding: 121 121 92
Width: 477
GlyphClass: 2
Flags: W
LayerCount: 2
Fore
SplineSet
48 531 m 1,0,-1
 145 531 l 1,1,-1
 194 233 l 2,2,3
 207 152 207 152 211 103 c 1,4,-1
 215 103 l 1,5,6
 257 196 257 196 274 233 c 2,7,-1
 416 531 l 1,8,-1
 512 531 l 1,9,-1
 197 -82 l 2,10,11
 156 -162 156 -162 110.5 -194 c 128,-1,12
 65 -226 65 -226 7 -226 c 2,13,-1
 -22 -226 l 1,14,-1
 -10 -151 l 1,15,-1
 7 -151 l 2,16,17
 44 -151 44 -151 72 -131 c 128,-1,18
 100 -111 100 -111 126 -59 c 2,19,-1
 154 0 l 1,20,-1
 48 531 l 1,0,-1
EndSplineSet
Substitution2: "'sups' Superscript lookup 5 subtable" uni02B8
Substitution2: "'aalt' Access All Alternates lookup 0 subtable" uni02B8
EndChar

StartChar: z
Encoding: 122 122 93
Width: 454
GlyphClass: 2
Flags: W
LayerCount: 2
Fore
SplineSet
-21 0 m 1,0,-1
 -11 61 l 1,1,-1
 338 455 l 1,2,-1
 79 455 l 1,3,-1
 92 531 l 1,4,-1
 461 531 l 1,5,-1
 451 474 l 1,6,-1
 101 76 l 1,7,-1
 395 76 l 1,8,-1
 382 0 l 1,9,-1
 -21 0 l 1,0,-1
EndSplineSet
EndChar

StartChar: braceleft
Encoding: 123 123 94
Width: 424
GlyphClass: 2
Flags: W
LayerCount: 2
Fore
SplineSet
62 315 m 1,0,-1
 74 384 l 1,1,-1
 102 384 l 2,2,3
 130 384 130 384 153 415.5 c 128,-1,4
 176 447 176 447 187 510 c 2,5,-1
 218 697 l 2,6,7
 228 760 228 760 268 795 c 128,-1,8
 308 830 308 830 362 830 c 2,9,-1
 441 830 l 1,10,-1
 428 755 l 1,11,-1
 367 755 l 2,12,13
 344 755 344 755 327.5 737.5 c 128,-1,14
 311 720 311 720 305 686 c 2,15,-1
 274 496 l 2,16,17
 264 436 264 436 239.5 404 c 128,-1,18
 215 372 215 372 178 350 c 1,19,20
 243 311 243 311 227 213 c 2,21,-1
 196 24 l 2,22,23
 190 -13 190 -13 200.5 -32 c 128,-1,24
 211 -51 211 -51 235 -51 c 2,25,-1
 295 -51 l 1,26,-1
 283 -125 l 1,27,-1
 204 -125 l 2,28,29
 152 -125 152 -125 122.5 -92 c 128,-1,30
 93 -59 93 -59 104 7 c 2,31,-1
 135 199 l 2,32,33
 144 251 144 251 131 283 c 128,-1,34
 118 315 118 315 91 315 c 2,35,-1
 62 315 l 1,0,-1
EndSplineSet
EndChar

StartChar: bar
Encoding: 124 124 95
Width: 257
GlyphClass: 2
Flags: W
LayerCount: 2
Fore
SplineSet
11 -163 m 1,0,-1
 181 864 l 1,1,-1
 270 864 l 1,2,-1
 100 -163 l 1,3,-1
 11 -163 l 1,0,-1
EndSplineSet
EndChar

StartChar: braceright
Encoding: 125 125 96
Width: 424
GlyphClass: 2
Flags: W
LayerCount: 2
Fore
SplineSet
20 -51 m 1,0,-1
 80 -51 l 2,1,2
 104 -51 104 -51 121 -32 c 128,-1,3
 138 -13 138 -13 144 24 c 2,4,-1
 176 213 l 2,5,6
 192 308 192 308 270 350 c 1,7,8
 240 372 240 372 226 403.5 c 128,-1,9
 212 435 212 435 222 496 c 2,10,-1
 254 686 l 2,11,12
 260 720 260 720 249.5 737.5 c 128,-1,13
 239 755 239 755 215 755 c 2,14,-1
 154 755 l 1,15,-1
 166 830 l 1,16,-1
 243 830 l 2,17,18
 297 830 297 830 325.5 795 c 128,-1,19
 354 760 354 760 344 697 c 2,20,-1
 313 510 l 2,21,22
 303 447 303 447 315 415.5 c 128,-1,23
 327 384 327 384 357 384 c 2,24,-1
 384 384 l 1,25,-1
 373 315 l 1,26,-1
 345 315 l 2,27,28
 315 315 315 315 292.5 283 c 128,-1,29
 270 251 270 251 261 199 c 2,30,-1
 230 7 l 2,31,32
 219 -59 219 -59 178 -92 c 128,-1,33
 137 -125 137 -125 85 -125 c 2,34,-1
 8 -125 l 1,35,-1
 20 -51 l 1,0,-1
EndSplineSet
EndChar

StartChar: asciitilde
Encoding: 126 126 97
Width: 744
GlyphClass: 2
Flags: W
LayerCount: 2
Fore
SplineSet
64 305 m 1,0,1
 155 458 155 458 284 458 c 0,2,3
 322 458 322 458 354 437.5 c 128,-1,4
 386 417 386 417 404 393.5 c 128,-1,5
 422 370 422 370 446.5 349.5 c 128,-1,6
 471 329 471 329 498 329 c 0,7,8
 523 329 523 329 543.5 338 c 128,-1,9
 564 347 564 347 583 367.5 c 128,-1,10
 602 388 602 388 608 397 c 128,-1,11
 614 406 614 406 629 432 c 0,12,13
 633 436 633 436 635 439 c 1,14,-1
 703 403 l 1,15,16
 611 250 611 250 487 250 c 0,17,18
 448 250 448 250 415.5 270.5 c 128,-1,19
 383 291 383 291 364.5 314.5 c 128,-1,20
 346 338 346 338 321 358.5 c 128,-1,21
 296 379 296 379 271 379 c 0,22,23
 199 379 199 379 134 269 c 1,24,-1
 64 305 l 1,0,1
EndSplineSet
EndChar

StartChar: exclamdown
Encoding: 161 161 99
Width: 291
GlyphClass: 2
Flags: W
LayerCount: 2
Fore
SplineSet
14 -208 m 1,0,-1
 111 321 l 1,1,-1
 194 321 l 1,2,-1
 114 -208 l 1,3,-1
 14 -208 l 1,0,-1
101 412 m 1,4,-1
 122 535 l 1,5,-1
 254 535 l 1,6,-1
 234 412 l 1,7,-1
 101 412 l 1,4,-1
EndSplineSet
EndChar

StartChar: cent
Encoding: 162 162 100
Width: 492
GlyphClass: 2
Flags: W
LayerCount: 2
Fore
SplineSet
33 266 m 0,0,1
 51 375 51 375 115 453 c 128,-1,2
 179 531 179 531 272 543 c 1,3,-1
 285 621 l 1,4,-1
 367 621 l 1,5,-1
 354 544 l 1,6,7
 412 532 412 532 443.5 492.5 c 128,-1,8
 475 453 475 453 481 404 c 1,9,-1
 402 381 l 1,10,11
 393 419 393 419 369 445.5 c 128,-1,12
 345 472 345 472 305 472 c 0,13,14
 236 472 236 472 187 413.5 c 128,-1,15
 138 355 138 355 124 266 c 0,16,17
 108 172 108 172 139 115.5 c 128,-1,18
 170 59 170 59 235 59 c 0,19,20
 278 59 278 59 317.5 88 c 128,-1,21
 357 117 357 117 377 156 c 1,22,-1
 449 133 l 1,23,24
 424 82 424 82 375 41 c 128,-1,25
 326 0 326 0 262 -13 c 1,26,-1
 248 -95 l 1,27,-1
 167 -95 l 1,28,-1
 180 -13 l 1,29,30
 96 -2 96 -2 54.5 73 c 128,-1,31
 13 148 13 148 33 266 c 0,0,1
EndSplineSet
EndChar

StartChar: sterling
Encoding: 163 163 101
Width: 574
GlyphClass: 2
Flags: W
LayerCount: 2
Fore
SplineSet
42 325 m 1,0,-1
 55 404 l 1,1,-1
 160 404 l 1,2,-1
 187 566 l 2,3,4
 202 656 202 656 266.5 704 c 128,-1,5
 331 752 331 752 425 752 c 0,6,7
 490 752 490 752 532 719 c 128,-1,8
 574 686 574 686 589 642 c 1,9,-1
 518 604 l 1,10,11
 505 631 505 631 477.5 651 c 128,-1,12
 450 671 450 671 412 671 c 0,13,14
 359 671 359 671 322.5 642.5 c 128,-1,15
 286 614 286 614 277 558 c 2,16,-1
 251 404 l 1,17,-1
 464 404 l 1,18,-1
 451 325 l 1,19,-1
 238 325 l 1,20,-1
 220 214 l 2,21,22
 204 120 204 120 157 85 c 1,23,24
 207 94 207 94 234 94 c 256,25,26
 261 94 261 94 307 78.5 c 128,-1,27
 353 63 353 63 385 63 c 0,28,29
 451 63 451 63 510 93 c 1,30,-1
 523 17 l 1,31,32
 448 -17 448 -17 371 -17 c 0,33,34
 340 -17 340 -17 281.5 -1 c 128,-1,35
 223 15 223 15 193 15 c 0,36,37
 159 15 159 15 112.5 8.5 c 128,-1,38
 66 2 66 2 39 -6 c 2,39,-1
 9 -13 l 1,40,-1
 -3 55 l 1,41,42
 51 67 51 67 84.5 108 c 128,-1,43
 118 149 118 149 128 209 c 2,44,-1
 147 325 l 1,45,-1
 42 325 l 1,0,-1
EndSplineSet
EndChar

StartChar: currency
Encoding: 164 164 102
Width: 624
GlyphClass: 2
Flags: W
LayerCount: 2
Fore
SplineSet
0 145 m 1,0,-1
 125 248 l 1,1,2
 94 299 94 299 105 367 c 0,3,4
 116 436 116 436 163 486 c 1,5,-1
 73 588 l 1,6,-1
 143 646 l 1,7,-1
 230 545 l 1,8,9
 298 587 298 587 363 587 c 0,10,11
 431 587 431 587 483 545 c 1,12,-1
 602 645 l 1,13,-1
 653 587 l 1,14,-1
 532 486 l 1,15,16
 560 439 560 439 548 367 c 0,17,18
 537 298 537 298 491 248 c 1,19,-1
 580 145 l 1,20,-1
 510 88 l 1,21,-1
 423 188 l 1,22,23
 358 146 358 146 290 146 c 0,24,25
 219 146 219 146 171 188 c 1,26,-1
 51 88 l 1,27,-1
 0 145 l 1,0,-1
186 367 m 256,28,29
 176 309 176 309 208.5 267 c 128,-1,30
 241 225 241 225 303 225 c 0,31,32
 364 225 364 225 410.5 266.5 c 128,-1,33
 457 308 457 308 467 367 c 256,34,35
 477 426 477 426 443.5 467 c 128,-1,36
 410 508 410 508 350 508 c 0,37,38
 289 508 289 508 242.5 466.5 c 128,-1,39
 196 425 196 425 186 367 c 256,28,29
EndSplineSet
EndChar

StartChar: yen
Encoding: 165 165 103
Width: 591
GlyphClass: 2
Flags: W
LayerCount: 2
Fore
SplineSet
72 735 m 1,0,-1
 180 735 l 1,1,-1
 263 554 l 2,2,3
 304 462 304 462 319 426 c 1,4,-1
 321 426 l 1,5,6
 337 446 337 446 369 489 c 128,-1,7
 401 532 401 532 418 554 c 2,8,-1
 562 735 l 1,9,-1
 670 735 l 1,10,-1
 404 410 l 1,11,-1
 551 410 l 1,12,-1
 540 343 l 1,13,-1
 352 343 l 1,14,-1
 334 234 l 1,15,-1
 522 234 l 1,16,-1
 511 167 l 1,17,-1
 323 167 l 1,18,-1
 295 0 l 1,19,-1
 203 0 l 1,20,-1
 231 167 l 1,21,-1
 42 167 l 1,22,-1
 53 234 l 1,23,-1
 242 234 l 1,24,-1
 260 343 l 1,25,-1
 71 343 l 1,26,-1
 82 410 l 1,27,-1
 230 410 l 1,28,-1
 72 735 l 1,0,-1
EndSplineSet
EndChar

StartChar: brokenbar
Encoding: 166 166 104
Width: 257
GlyphClass: 2
Flags: W
LayerCount: 2
Fore
SplineSet
114 459 m 1,0,-1
 181 864 l 1,1,-1
 270 864 l 1,2,-1
 203 459 l 1,3,-1
 114 459 l 1,0,-1
11 -162 m 1,4,-1
 78 242 l 1,5,-1
 167 242 l 1,6,-1
 100 -162 l 1,7,-1
 11 -162 l 1,4,-1
EndSplineSet
EndChar

StartChar: section
Encoding: 167 167 105
Width: 537
GlyphClass: 2
Flags: W
LayerCount: 2
Fore
SplineSet
8 49 m 1,0,-1
 76 94 l 1,1,2
 93 64 93 64 126.5 44 c 128,-1,3
 160 24 160 24 205 24 c 0,4,5
 314 24 314 24 325 90 c 0,6,7
 329 114 329 114 316 128.5 c 128,-1,8
 303 143 303 143 271 159 c 2,9,-1
 174 208 l 2,10,11
 114 238 114 238 89.5 273 c 128,-1,12
 65 308 65 308 73 356 c 0,13,14
 86 433 86 433 187 500 c 1,15,16
 132 549 132 549 142 607 c 0,17,18
 153 672 153 672 210.5 712 c 128,-1,19
 268 752 268 752 369 752 c 0,20,21
 434 752 434 752 480.5 724 c 128,-1,22
 527 696 527 696 551 650 c 1,23,-1
 485 604 l 1,24,25
 436 673 436 673 353 673 c 0,26,27
 299 673 299 673 269.5 655 c 128,-1,28
 240 637 240 637 235 607 c 0,29,30
 233 595 233 595 235.5 585.5 c 128,-1,31
 238 576 238 576 245.5 566.5 c 128,-1,32
 253 557 253 557 259.5 550.5 c 128,-1,33
 266 544 266 544 281.5 535 c 128,-1,34
 297 526 297 526 305 521.5 c 128,-1,35
 313 517 313 517 333.5 506.5 c 128,-1,36
 354 496 354 496 363 492 c 0,37,38
 393 477 393 477 407.5 468.5 c 128,-1,39
 422 460 422 460 445 443.5 c 128,-1,40
 468 427 468 427 477.5 411.5 c 128,-1,41
 487 396 487 396 493 373 c 128,-1,42
 499 350 499 350 495 323 c 0,43,44
 482 244 482 244 394 180 c 1,45,46
 425 142 425 142 416 90 c 0,47,48
 405 24 405 24 349.5 -15.5 c 128,-1,49
 294 -55 294 -55 193 -55 c 0,50,51
 125 -55 125 -55 76 -24 c 128,-1,52
 27 7 27 7 8 49 c 1,0,-1
167 360 m 0,53,54
 162 327 162 327 177 309.5 c 128,-1,55
 192 292 192 292 238 269 c 2,56,-1
 330 223 l 1,57,58
 394 271 394 271 403 323 c 0,59,60
 408 352 408 352 389 371.5 c 128,-1,61
 370 391 370 391 325 416 c 2,62,-1
 249 459 l 1,63,64
 175 410 175 410 167 360 c 0,53,54
EndSplineSet
EndChar

StartChar: dieresis
Encoding: 168 168 106
Width: 465
GlyphClass: 2
Flags: W
LayerCount: 2
Fore
SplineSet
145 624 m 1,0,-1
 164 735 l 1,1,-1
 271 735 l 1,2,-1
 252 624 l 1,3,-1
 145 624 l 1,0,-1
327 624 m 1,4,-1
 345 735 l 1,5,-1
 452 735 l 1,6,-1
 434 624 l 1,7,-1
 327 624 l 1,4,-1
EndSplineSet
EndChar

StartChar: copyright
Encoding: 169 169 107
Width: 843
GlyphClass: 2
Flags: W
LayerCount: 2
Fore
SplineSet
254 372 m 0,0,1
 272 480 272 480 335 543.5 c 128,-1,2
 398 607 398 607 489 607 c 0,3,4
 550 607 550 607 583 573.5 c 128,-1,5
 616 540 616 540 627 489 c 1,6,-1
 557 467 l 1,7,8
 533 538 533 538 477 538 c 256,9,10
 421 538 421 538 382.5 493.5 c 128,-1,11
 344 449 344 449 331 372 c 0,12,13
 318 293 318 293 342.5 249.5 c 128,-1,14
 367 206 367 206 422 206 c 0,15,16
 457 206 457 206 488 228 c 128,-1,17
 519 250 519 250 536 283 c 1,18,-1
 599 262 l 1,19,20
 574 211 574 211 524 174 c 128,-1,21
 474 137 474 137 410 137 c 0,22,23
 323 137 323 137 279.5 200 c 128,-1,24
 236 263 236 263 254 372 c 0,0,1
54 373 m 256,25,26
 83 549 83 549 210.5 658.5 c 128,-1,27
 338 768 338 768 501 768 c 0,28,29
 669 768 669 768 759.5 657.5 c 128,-1,30
 850 547 850 547 821 373 c 0,31,32
 793 201 793 201 665.5 90 c 128,-1,33
 538 -21 538 -21 371 -21 c 0,34,35
 207 -21 207 -21 116 88 c 128,-1,36
 25 197 25 197 54 373 c 256,25,26
121 373 m 256,37,38
 96 225 96 225 168 132 c 128,-1,39
 240 39 240 39 381 39 c 0,40,41
 520 39 520 39 625 131 c 128,-1,42
 730 223 730 223 755 373 c 0,43,44
 780 521 780 521 705.5 613.5 c 128,-1,45
 631 706 631 706 491 706 c 0,46,47
 352 706 352 706 249 613.5 c 128,-1,48
 146 521 146 521 121 373 c 256,37,38
EndSplineSet
EndChar

StartChar: ordfeminine
Encoding: 170 170 108
Width: 373
GlyphClass: 2
Flags: W
LayerCount: 2
Fore
SplineSet
39 314 m 1,0,-1
 49 375 l 1,1,-1
 357 375 l 1,2,-1
 347 314 l 1,3,-1
 39 314 l 1,0,-1
136 543 m 0,4,5
 132 520 132 520 148 504.5 c 128,-1,6
 164 489 164 489 197 489 c 0,7,8
 239 489 239 489 274 517.5 c 128,-1,9
 309 546 309 546 316 591 c 2,10,-1
 323 632 l 1,11,12
 307 628 307 628 276.5 623 c 128,-1,13
 246 618 246 618 227.5 614.5 c 128,-1,14
 209 611 209 611 187 602.5 c 128,-1,15
 165 594 165 594 152 579 c 128,-1,16
 139 564 139 564 136 543 c 0,4,5
68 538 m 0,17,18
 74 575 74 575 95 600.5 c 128,-1,19
 116 626 116 626 148.5 639.5 c 128,-1,20
 181 653 181 653 210 660 c 128,-1,21
 239 667 239 667 276.5 673 c 128,-1,22
 314 679 314 679 332 684 c 1,23,-1
 335 702 l 2,24,25
 340 732 340 732 321 751.5 c 128,-1,26
 302 771 302 771 265 771 c 0,27,28
 230 771 230 771 198 753 c 128,-1,29
 166 735 166 735 149 716 c 1,30,-1
 113 752 l 1,31,32
 135 777 135 777 180 801.5 c 128,-1,33
 225 826 225 826 273 826 c 0,34,35
 421 826 421 826 396 678 c 2,36,-1
 358 443 l 1,37,-1
 294 443 l 1,38,-1
 302 490 l 1,39,40
 257 432 257 432 179 432 c 0,41,42
 118 432 118 432 89 461.5 c 128,-1,43
 60 491 60 491 68 538 c 0,17,18
EndSplineSet
EndChar

StartChar: guillemotleft
Encoding: 171 171 109
Width: 467
GlyphClass: 2
Flags: W
LayerCount: 2
Fore
SplineSet
30 254 m 1,0,-1
 226 486 l 1,1,-1
 283 443 l 1,2,-1
 126 254 l 1,3,-1
 220 68 l 1,4,-1
 149 23 l 1,5,-1
 30 254 l 1,0,-1
210 254 m 1,6,-1
 404 478 l 1,7,-1
 459 430 l 1,8,-1
 306 254 l 1,9,-1
 400 78 l 1,10,-1
 330 31 l 1,11,-1
 210 254 l 1,6,-1
EndSplineSet
EndChar

StartChar: logicalnot
Encoding: 172 172 110
Width: 531
GlyphClass: 2
Flags: W
LayerCount: 2
Fore
SplineSet
47 309 m 1,0,-1
 60 388 l 1,1,-1
 507 388 l 1,2,-1
 463 122 l 1,3,-1
 378 122 l 1,4,-1
 409 309 l 1,5,-1
 47 309 l 1,0,-1
EndSplineSet
EndChar

StartChar: uni00AD
Encoding: 173 173 111
Width: 540
GlyphClass: 2
Flags: W
LayerCount: 2
Fore
SplineSet
59 325 m 1,0,-1
 72 405 l 1,1,-1
 509 405 l 1,2,-1
 496 325 l 1,3,-1
 59 325 l 1,0,-1
EndSplineSet
EndChar

StartChar: registered
Encoding: 174 174 112
Width: 843
GlyphClass: 2
Flags: W
LayerCount: 2
Fore
SplineSet
258 145 m 1,0,-1
 333 594 l 1,1,-1
 507 594 l 2,2,3
 572 594 572 594 601 557 c 128,-1,4
 630 520 630 520 621 466 c 0,5,6
 608 389 608 389 538 356 c 1,7,8
 565 332 565 332 569 275 c 0,9,10
 571 216 571 216 596 145 c 1,11,-1
 511 145 l 1,12,13
 494 188 494 188 490 267 c 0,14,15
 489 289 489 289 487.5 299 c 128,-1,16
 486 309 486 309 477 319.5 c 128,-1,17
 468 330 468 330 452 330 c 2,18,-1
 365 330 l 1,19,-1
 335 145 l 1,20,-1
 258 145 l 1,0,-1
376 392 m 1,21,-1
 463 392 l 2,22,23
 495 392 495 392 516 410.5 c 128,-1,24
 537 429 537 429 542 459 c 0,25,26
 547 487 547 487 532.5 506 c 128,-1,27
 518 525 518 525 485 525 c 2,28,-1
 398 525 l 1,29,-1
 376 392 l 1,21,-1
54 374 m 0,30,31
 83 550 83 550 210 659 c 128,-1,32
 337 768 337 768 501 768 c 0,33,34
 669 768 669 768 759.5 657.5 c 128,-1,35
 850 547 850 547 821 374 c 256,36,37
 792 201 792 201 665.5 90 c 128,-1,38
 539 -21 539 -21 371 -21 c 0,39,40
 207 -21 207 -21 116 88 c 128,-1,41
 25 197 25 197 54 374 c 0,30,31
121 374 m 0,42,43
 96 225 96 225 167.5 133 c 128,-1,44
 239 41 239 41 381 41 c 0,45,46
 522 41 522 41 626 133 c 128,-1,47
 730 225 730 225 755 374 c 256,48,49
 780 523 780 523 705 614 c 128,-1,50
 630 705 630 705 491 705 c 0,51,52
 351 705 351 705 248.5 613.5 c 128,-1,53
 146 522 146 522 121 374 c 0,42,43
EndSplineSet
EndChar

StartChar: macron
Encoding: 175 175 113
Width: 490
GlyphClass: 2
Flags: W
LayerCount: 2
Fore
SplineSet
74 725 m 1,0,-1
 87 804 l 1,1,-1
 577 804 l 1,2,-1
 564 725 l 1,3,-1
 74 725 l 1,0,-1
EndSplineSet
EndChar

StartChar: degree
Encoding: 176 176 114
Width: 402
GlyphClass: 2
Flags: W
LayerCount: 2
Fore
SplineSet
132 617 m 0,0,1
 141 669 141 669 182 705.5 c 128,-1,2
 223 742 223 742 278 742 c 0,3,4
 331 742 331 742 361 706 c 128,-1,5
 391 670 391 670 382 617 c 256,6,7
 373 564 373 564 330.5 527.5 c 128,-1,8
 288 491 288 491 236 491 c 0,9,10
 183 491 183 491 153 527.5 c 128,-1,11
 123 564 123 564 132 617 c 0,0,1
190 617 m 0,12,13
 185 587 185 587 200.5 567 c 128,-1,14
 216 547 216 547 245 547 c 0,15,16
 272 547 272 547 295 567 c 128,-1,17
 318 587 318 587 323 617 c 0,18,19
 327 644 327 644 312.5 664.5 c 128,-1,20
 298 685 298 685 268 685 c 0,21,22
 238 685 238 685 216 664.5 c 128,-1,23
 194 644 194 644 190 617 c 0,12,13
EndSplineSet
EndChar

StartChar: plusminus
Encoding: 177 177 115
Width: 542
GlyphClass: 2
Flags: W
LayerCount: 2
Fore
SplineSet
58 402 m 1,0,-1
 71 481 l 1,1,-1
 260 481 l 1,2,-1
 288 651 l 1,3,-1
 376 651 l 1,4,-1
 348 481 l 1,5,-1
 536 481 l 1,6,-1
 523 402 l 1,7,-1
 335 402 l 1,8,-1
 307 233 l 1,9,-1
 219 233 l 1,10,-1
 247 402 l 1,11,-1
 58 402 l 1,0,-1
7 91 m 1,12,-1
 20 170 l 1,13,-1
 485 170 l 1,14,-1
 472 91 l 1,15,-1
 7 91 l 1,12,-1
EndSplineSet
EndChar

StartChar: twosuperior
Encoding: 178 178 116
Width: 314
GlyphClass: 2
Flags: W
LayerCount: 2
Fore
SplineSet
95 707 m 1,0,1
 143 825 143 825 246 825 c 0,2,3
 302 825 302 825 332 791.5 c 128,-1,4
 362 758 362 758 353 702 c 0,5,6
 343 640 343 640 263 570 c 0,7,8
 253 562 253 562 229 542 c 128,-1,9
 205 522 205 522 192 510.5 c 128,-1,10
 179 499 179 499 161.5 481 c 128,-1,11
 144 463 144 463 135 447 c 1,12,-1
 310 447 l 1,13,-1
 301 390 l 1,14,-1
 46 390 l 1,15,16
 55 444 55 444 90.5 486 c 128,-1,17
 126 528 126 528 223 610 c 0,18,19
 278 655 278 655 286 703 c 0,20,21
 291 734 291 734 277.5 751 c 128,-1,22
 264 768 264 768 236 768 c 0,23,24
 210 768 210 768 189 750.5 c 128,-1,25
 168 733 168 733 162.5 721.5 c 128,-1,26
 157 710 157 710 149 692 c 1,27,-1
 95 707 l 1,0,1
EndSplineSet
EndChar

StartChar: threesuperior
Encoding: 179 179 117
Width: 315
GlyphClass: 2
Flags: W
LayerCount: 2
Fore
SplineSet
49 477 m 1,0,-1
 106 498 l 1,1,2
 124 437 124 437 178 437 c 0,3,4
 210 437 210 437 235 457 c 128,-1,5
 260 477 260 477 266 513 c 0,6,7
 272 547 272 547 251.5 566 c 128,-1,8
 231 585 231 585 195 585 c 0,9,10
 180 585 180 585 155 583 c 1,11,-1
 165 641 l 1,12,13
 195 639 195 639 202 639 c 0,14,15
 232 639 232 639 254.5 656.5 c 128,-1,16
 277 674 277 674 282 706 c 0,17,18
 287 734 287 734 272.5 751.5 c 128,-1,19
 258 769 258 769 231 769 c 0,20,21
 203 769 203 769 185 752 c 128,-1,22
 167 735 167 735 152 706 c 1,23,-1
 101 723 l 1,24,25
 148 825 148 825 242 825 c 0,26,27
 299 825 299 825 328 792.5 c 128,-1,28
 357 760 357 760 349 711 c 0,29,30
 338 647 338 647 282 617 c 1,31,32
 344 586 344 586 333 513 c 0,33,34
 323 452 323 452 277.5 416.5 c 128,-1,35
 232 381 232 381 169 381 c 0,36,37
 119 381 119 381 88 407 c 128,-1,38
 57 433 57 433 49 477 c 1,0,-1
EndSplineSet
EndChar

StartChar: acute
Encoding: 180 180 118
Width: 334
GlyphClass: 2
Flags: W
LayerCount: 2
Fore
SplineSet
129 650 m 1,0,-1
 265 824 l 1,1,-1
 377 824 l 1,2,-1
 205 650 l 1,3,-1
 129 650 l 1,0,-1
EndSplineSet
EndChar

StartChar: uni00B5
Encoding: 181 181 119
Width: 532
GlyphClass: 2
Flags: W
LayerCount: 2
Fore
SplineSet
-13 -226 m 1,0,-1
 113 531 l 1,1,-1
 198 531 l 1,2,-1
 144 204 l 2,3,4
 120 59 120 59 219 59 c 0,5,6
 280 59 280 59 321 110 c 128,-1,7
 362 161 362 161 374 230 c 2,8,-1
 423 531 l 1,9,-1
 508 531 l 1,10,-1
 420 0 l 1,11,-1
 338 0 l 1,12,-1
 351 77 l 1,13,-1
 350 77 l 1,14,15
 331 38 331 38 288 10.5 c 128,-1,16
 245 -17 245 -17 190 -17 c 0,17,18
 136 -17 136 -17 115 27 c 1,19,-1
 73 -226 l 1,20,-1
 -13 -226 l 1,0,-1
EndSplineSet
EndChar

StartChar: paragraph
Encoding: 182 182 120
Width: 608
GlyphClass: 2
Flags: W
LayerCount: 2
Fore
SplineSet
93 545 m 0,0,1
 110 645 110 645 171.5 706.5 c 128,-1,2
 233 768 233 768 330 768 c 2,3,-1
 610 768 l 1,4,-1
 471 -71 l 1,5,-1
 398 -71 l 1,6,-1
 523 685 l 1,7,-1
 433 685 l 1,8,-1
 308 -71 l 1,9,-1
 233 -71 l 1,10,-1
 299 324 l 1,11,12
 275 316 275 316 243 316 c 0,13,14
 164 316 164 316 119.5 375.5 c 128,-1,15
 75 435 75 435 93 545 c 0,0,1
EndSplineSet
EndChar

StartChar: periodcentered
Encoding: 183 183 121
Width: 319
GlyphClass: 2
Flags: W
LayerCount: 2
Fore
SplineSet
95 290 m 1,0,-1
 115 415 l 1,1,-1
 248 415 l 1,2,-1
 227 290 l 1,3,-1
 95 290 l 1,0,-1
EndSplineSet
EndChar

StartChar: cedilla
Encoding: 184 184 122
Width: 288
GlyphClass: 2
Flags: W
LayerCount: 2
Fore
SplineSet
-33 -154 m 1,0,1
 9 -164 9 -164 28 -164 c 0,2,3
 89 -164 89 -164 95 -127 c 0,4,5
 102 -86 102 -86 11 -79 c 1,6,-1
 76 23 l 1,7,-1
 155 23 l 1,8,-1
 116 -37 l 1,9,10
 148 -46 148 -46 165.5 -69 c 128,-1,11
 183 -92 183 -92 177 -128 c 0,12,13
 170 -171 170 -171 132.5 -200 c 128,-1,14
 95 -229 95 -229 24 -229 c 0,15,16
 -15 -229 -15 -229 -44 -220 c 1,17,-1
 -33 -154 l 1,0,1
EndSplineSet
EndChar

StartChar: onesuperior
Encoding: 185 185 123
Width: 306
GlyphClass: 2
Flags: W
LayerCount: 2
Fore
SplineSet
114 699 m 1,0,-1
 123 752 l 1,1,-1
 147 752 l 2,2,3
 190 752 190 752 207.5 765.5 c 128,-1,4
 225 779 225 779 230 804 c 2,5,-1
 233 823 l 1,6,-1
 291 823 l 1,7,-1
 219 390 l 1,8,-1
 153 390 l 1,9,-1
 204 699 l 1,10,-1
 114 699 l 1,0,-1
EndSplineSet
EndChar

StartChar: ordmasculine
Encoding: 186 186 124
Width: 377
GlyphClass: 2
Flags: W
LayerCount: 2
Fore
SplineSet
148 629 m 0,0,1
 137 563 137 563 159.5 526 c 128,-1,2
 182 489 182 489 223 489 c 0,3,4
 262 489 262 489 297.5 526 c 128,-1,5
 333 563 333 563 344 629 c 0,6,7
 355 696 355 696 332.5 732 c 128,-1,8
 310 768 310 768 269 768 c 0,9,10
 228 768 228 768 193.5 732 c 128,-1,11
 159 696 159 696 148 629 c 0,0,1
81 629 m 0,12,13
 95 713 95 713 147.5 769.5 c 128,-1,14
 200 826 200 826 279 826 c 0,15,16
 357 826 357 826 391 769.5 c 128,-1,17
 425 713 425 713 411 629 c 0,18,19
 405 594 405 594 391 561 c 128,-1,20
 377 528 377 528 353.5 498 c 128,-1,21
 330 468 330 468 293.5 450 c 128,-1,22
 257 432 257 432 214 432 c 0,23,24
 156 432 156 432 122.5 463.5 c 128,-1,25
 89 495 89 495 81 537.5 c 128,-1,26
 73 580 73 580 81 629 c 0,12,13
40 316 m 1,27,-1
 50 377 l 1,28,-1
 361 377 l 1,29,-1
 350 316 l 1,30,-1
 40 316 l 1,27,-1
EndSplineSet
EndChar

StartChar: guillemotright
Encoding: 187 187 125
Width: 466
GlyphClass: 2
Flags: W
LayerCount: 2
Fore
SplineSet
57 430 m 1,0,-1
 128 478 l 1,1,-1
 248 254 l 1,2,-1
 54 31 l 1,3,-1
 0 78 l 1,4,-1
 153 254 l 1,5,-1
 57 430 l 1,0,-1
177 69 m 1,6,-1
 332 254 l 1,7,-1
 236 443 l 1,8,-1
 309 486 l 1,9,-1
 428 254 l 1,10,-1
 233 23 l 1,11,-1
 177 69 l 1,6,-1
EndSplineSet
EndChar

StartChar: onequarter
Encoding: 188 188 126
Width: 938
GlyphClass: 3
Flags: W
LayerCount: 2
Fore
SplineSet
592 133 m 1,0,-1
 708 133 l 1,1,-1
 731 274 l 2,2,3
 732 281 732 281 735.5 298.5 c 128,-1,4
 739 316 739 316 740 322 c 1,5,-1
 706 276 l 1,6,-1
 592 133 l 1,0,-1
129 648 m 1,7,-1
 140 714 l 1,8,-1
 170 714 l 2,9,10
 216 714 216 714 236.5 728.5 c 128,-1,11
 257 743 257 743 261 770 c 2,12,-1
 265 793 l 1,13,-1
 335 793 l 1,14,-1
 252 296 l 1,15,-1
 172 296 l 1,16,-1
 230 648 l 1,17,-1
 129 648 l 1,7,-1
96 -50 m 1,18,-1
 698 781 l 1,19,-1
 784 781 l 1,20,-1
 183 -50 l 1,21,-1
 96 -50 l 1,18,-1
506 124 m 1,22,-1
 773 454 l 1,23,-1
 840 454 l 1,24,-1
 787 133 l 1,25,-1
 850 133 l 1,26,-1
 838 63 l 1,27,-1
 775 63 l 1,28,-1
 758 -45 l 1,29,-1
 678 -45 l 1,30,-1
 696 63 l 1,31,-1
 496 63 l 1,32,-1
 506 124 l 1,22,-1
EndSplineSet
Ligature2: "'frac' Diagonal Fractions lookup 7 subtable" one fraction four
Ligature2: "'frac' Diagonal Fractions lookup 7 subtable" one slash four
EndChar

StartChar: onehalf
Encoding: 189 189 127
Width: 936
GlyphClass: 3
Flags: W
LayerCount: 2
Fore
SplineSet
559 316 m 1,0,1
 613 454 613 454 735 454 c 0,2,3
 800 454 800 454 835 416 c 128,-1,4
 870 378 870 378 859 312 c 0,5,6
 847 239 847 239 754 160 c 0,7,8
 747 154 747 154 732.5 142 c 128,-1,9
 718 130 718 130 712 125 c 128,-1,10
 706 120 706 120 695 110.5 c 128,-1,11
 684 101 684 101 678.5 96.5 c 128,-1,12
 673 92 673 92 664.5 84 c 128,-1,13
 656 76 656 76 651.5 71 c 128,-1,14
 647 66 647 66 640.5 59.5 c 128,-1,15
 634 53 634 53 630 48 c 128,-1,16
 626 43 626 43 621 37 c 128,-1,17
 616 31 616 31 612 25 c 1,18,-1
 810 25 l 1,19,-1
 799 -45 l 1,20,-1
 504 -45 l 1,21,22
 514 15 514 15 553 64.5 c 128,-1,23
 592 114 592 114 708 210 c 0,24,25
 769 260 769 260 778 313 c 0,26,27
 784 348 784 348 769 366 c 128,-1,28
 754 384 754 384 723 384 c 0,29,30
 661 384 661 384 626 296 c 1,31,-1
 559 316 l 1,0,1
129 648 m 1,32,-1
 140 714 l 1,33,-1
 170 714 l 2,34,35
 216 714 216 714 236.5 728.5 c 128,-1,36
 257 743 257 743 261 770 c 2,37,-1
 265 793 l 1,38,-1
 335 793 l 1,39,-1
 252 296 l 1,40,-1
 172 296 l 1,41,-1
 230 648 l 1,42,-1
 129 648 l 1,32,-1
89 -50 m 1,43,-1
 693 781 l 1,44,-1
 779 781 l 1,45,-1
 178 -50 l 1,46,-1
 89 -50 l 1,43,-1
EndSplineSet
Ligature2: "'frac' Diagonal Fractions lookup 7 subtable" one fraction two
Ligature2: "'frac' Diagonal Fractions lookup 7 subtable" one slash two
EndChar

StartChar: threequarters
Encoding: 190 190 128
Width: 940
GlyphClass: 3
Flags: W
LayerCount: 2
Fore
SplineSet
75 408 m 1,0,-1
 145 434 l 1,1,2
 152 416 152 416 157.5 403.5 c 128,-1,3
 163 391 163 391 181.5 378.5 c 128,-1,4
 200 366 200 366 227 366 c 0,5,6
 261 366 261 366 288 386.5 c 128,-1,7
 315 407 315 407 322 448 c 0,8,9
 328 485 328 485 305 506.5 c 128,-1,10
 282 528 282 528 244 528 c 0,11,12
 230 528 230 528 195 525 c 1,13,-1
 207 596 l 1,14,15
 224 594 224 594 253 594 c 0,16,17
 286 594 286 594 310.5 613.5 c 128,-1,18
 335 633 335 633 341 668 c 0,19,20
 346 698 346 698 330.5 717 c 128,-1,21
 315 736 315 736 285 736 c 0,22,23
 254 736 254 736 234.5 716.5 c 128,-1,24
 215 697 215 697 197 664 c 1,25,-1
 133 686 l 1,26,27
 159 741 159 741 201 773 c 128,-1,28
 243 805 243 805 300 805 c 0,29,30
 366 805 366 805 399 767.5 c 128,-1,31
 432 730 432 730 423 673 c 0,32,33
 412 604 412 604 348 566 c 1,34,35
 416 530 416 530 402 448 c 0,36,37
 390 377 390 377 339 336.5 c 128,-1,38
 288 296 288 296 215 296 c 0,39,40
 166 296 166 296 126.5 321.5 c 128,-1,41
 87 347 87 347 75 408 c 1,0,-1
515 124 m 1,42,-1
 782 454 l 1,43,-1
 849 454 l 1,44,-1
 796 133 l 1,45,-1
 859 133 l 1,46,-1
 847 63 l 1,47,-1
 784 63 l 1,48,-1
 767 -45 l 1,49,-1
 687 -45 l 1,50,-1
 705 63 l 1,51,-1
 505 63 l 1,52,-1
 515 124 l 1,42,-1
601 133 m 1,53,-1
 717 133 l 1,54,-1
 740 273 l 2,55,56
 741 280 741 280 744.5 297.5 c 128,-1,57
 748 315 748 315 749 321 c 1,58,-1
 716 276 l 1,59,-1
 601 133 l 1,53,-1
163 -50 m 1,60,-1
 768 781 l 1,61,-1
 853 781 l 1,62,-1
 251 -50 l 1,63,-1
 163 -50 l 1,60,-1
EndSplineSet
Ligature2: "'frac' Diagonal Fractions lookup 7 subtable" three fraction four
Ligature2: "'frac' Diagonal Fractions lookup 7 subtable" three slash four
EndChar

StartChar: questiondown
Encoding: 191 191 129
Width: 539
GlyphClass: 2
Flags: W
LayerCount: 2
Fore
SplineSet
12 -23 m 0,0,1
 19 22 19 22 43 58 c 128,-1,2
 67 94 67 94 96 119 c 128,-1,3
 125 144 125 144 154 168 c 128,-1,4
 183 192 183 192 206 225.5 c 128,-1,5
 229 259 229 259 236 302 c 2,6,-1
 240 327 l 1,7,-1
 332 327 l 1,8,-1
 326 295 l 2,9,10
 318 246 318 246 295 208 c 128,-1,11
 272 170 272 170 242.5 144 c 128,-1,12
 213 118 213 118 184.5 95 c 128,-1,13
 156 72 156 72 134.5 42 c 128,-1,14
 113 12 113 12 107 -26 c 0,15,16
 98 -81 98 -81 121.5 -113 c 128,-1,17
 145 -145 145 -145 196 -145 c 0,18,19
 286 -145 286 -145 350 -31 c 1,20,-1
 426 -59 l 1,21,22
 389 -133 389 -133 325.5 -179 c 128,-1,23
 262 -225 262 -225 183 -225 c 0,24,25
 92 -225 92 -225 44.5 -170 c 128,-1,26
 -3 -115 -3 -115 12 -23 c 0,0,1
234 413 m 1,27,-1
 254 535 l 1,28,-1
 386 535 l 1,29,-1
 365 413 l 1,30,-1
 234 413 l 1,27,-1
EndSplineSet
EndChar

StartChar: AE
Encoding: 198 198 136
Width: 921
GlyphClass: 2
Flags: W
LayerCount: 2
Fore
SplineSet
244 277 m 1,0,-1
 459 277 l 1,1,-1
 520 646 l 1,2,-1
 511 646 l 1,3,-1
 244 277 l 1,0,-1
-51 0 m 1,4,-1
 479 735 l 1,5,-1
 956 735 l 1,6,-1
 943 655 l 1,7,-1
 613 655 l 1,8,-1
 575 420 l 1,9,-1
 869 420 l 1,10,-1
 855 341 l 1,11,-1
 556 341 l 1,12,-1
 512 79 l 1,13,-1
 856 79 l 1,14,-1
 843 0 l 1,15,-1
 413 0 l 1,16,-1
 446 201 l 1,17,-1
 191 201 l 1,18,-1
 49 0 l 1,19,-1
 -51 0 l 1,4,-1
EndSplineSet
EndChar

StartChar: multiply
Encoding: 215 215 153
Width: 541
GlyphClass: 2
Flags: W
LayerCount: 2
Fore
SplineSet
22 194 m 1,0,-1
 229 364 l 1,1,-1
 79 536 l 1,2,-1
 145 591 l 1,3,-1
 292 417 l 1,4,-1
 498 591 l 1,5,-1
 545 537 l 1,6,-1
 339 364 l 1,7,-1
 488 193 l 1,8,-1
 423 138 l 1,9,-1
 274 311 l 1,10,-1
 70 138 l 1,11,-1
 22 194 l 1,0,-1
EndSplineSet
EndChar

StartChar: Oslash
Encoding: 216 216 154
Width: 691
GlyphClass: 2
Flags: W
LayerCount: 2
Fore
SplineSet
57 367 m 0,0,1
 86 540 86 540 186 646 c 128,-1,2
 286 752 286 752 423 752 c 0,3,4
 504 752 504 752 563 714 c 1,5,-1
 615 792 l 1,6,-1
 697 792 l 1,7,-1
 613 668 l 1,8,9
 696 563 696 563 663 366 c 0,10,11
 634 191 634 191 533.5 87 c 128,-1,12
 433 -17 433 -17 296 -17 c 0,13,14
 223 -17 223 -17 170 13 c 1,15,-1
 116 -66 l 1,16,-1
 35 -66 l 1,17,-1
 118 56 l 1,18,19
 23 162 23 162 57 367 c 0,0,1
553 581 m 1,20,-1
 221 88 l 1,21,22
 256 64 256 64 309 64 c 0,23,24
 405 64 405 64 474 144 c 128,-1,25
 543 224 543 224 567 366 c 0,26,27
 590 504 590 504 553 581 c 1,20,-1
511 639 m 1,28,29
 470 672 470 672 410 672 c 0,30,31
 314 672 314 672 244.5 589.5 c 128,-1,32
 175 507 175 507 152 367 c 0,33,34
 128 222 128 222 175 140 c 1,35,-1
 511 639 l 1,28,29
EndSplineSet
EndChar

StartChar: Thorn
Encoding: 222 222 160
Width: 572
GlyphClass: 2
Flags: W
LayerCount: 2
Fore
SplineSet
39 0 m 1,0,-1
 161 735 l 1,1,-1
 253 735 l 1,2,-1
 233 614 l 1,3,-1
 335 614 l 2,4,5
 468 614 468 614 520 548.5 c 128,-1,6
 572 483 572 483 555 380 c 0,7,8
 535 261 535 261 453 202 c 128,-1,9
 371 143 371 143 251 143 c 2,10,-1
 155 143 l 1,11,-1
 132 0 l 1,12,-1
 39 0 l 1,0,-1
168 222 m 1,13,-1
 256 222 l 2,14,15
 433 222 433 222 459 381 c 0,16,17
 484 535 484 535 314 535 c 2,18,-1
 220 535 l 1,19,-1
 168 222 l 1,13,-1
EndSplineSet
EndChar

StartChar: germandbls
Encoding: 223 223 161
Width: 608
GlyphClass: 2
Flags: W
LayerCount: 2
Fore
SplineSet
39 0 m 1,0,-1
 130 547 l 2,1,2
 146 645 146 645 215.5 698.5 c 128,-1,3
 285 752 285 752 375 752 c 0,4,5
 471 752 471 752 521.5 698 c 128,-1,6
 572 644 572 644 557 554 c 0,7,8
 547 495 547 495 517 454.5 c 128,-1,9
 487 414 487 414 449 393 c 1,10,-1
 449 391 l 1,11,12
 503 373 503 373 534.5 324 c 128,-1,13
 566 275 566 275 553 194 c 0,14,15
 537 98 537 98 470.5 40.5 c 128,-1,16
 404 -17 404 -17 307 -17 c 0,17,18
 237 -17 237 -17 183 3 c 1,19,-1
 200 86 l 1,20,21
 252 63 252 63 318 63 c 0,22,23
 369 63 369 63 411 99.5 c 128,-1,24
 453 136 453 136 462 194 c 0,25,26
 474 266 474 266 439.5 304 c 128,-1,27
 405 342 405 342 340 342 c 2,28,-1
 278 342 l 1,29,-1
 292 421 l 1,30,-1
 345 421 l 2,31,32
 389 421 389 421 422.5 456.5 c 128,-1,33
 456 492 456 492 466 549 c 0,34,35
 475 603 475 603 448 637.5 c 128,-1,36
 421 672 421 672 364 672 c 0,37,38
 306 672 306 672 266.5 637 c 128,-1,39
 227 602 227 602 217 540 c 2,40,-1
 128 0 l 1,41,-1
 39 0 l 1,0,-1
EndSplineSet
EndChar

StartChar: ae
Encoding: 230 230 168
Width: 849
GlyphClass: 2
Flags: W
LayerCount: 2
Fore
SplineSet
96 141 m 0,0,1
 90 106 90 106 113.5 82 c 128,-1,2
 137 58 137 58 182 58 c 0,3,4
 245 58 245 58 296.5 100.5 c 128,-1,5
 348 143 348 143 358 209 c 2,6,-1
 369 275 l 1,7,8
 326 264 326 264 253 252 c 0,9,10
 111 230 111 230 96 141 c 0,0,1
459 302 m 1,11,-1
 733 302 l 1,12,13
 745 374 745 374 715.5 424 c 0,14,15
 687 474 687 474 629 474 c 0,16,17
 570 474 570 474 527 430 c 128,-1,18
 484 386 484 386 464 321 c 2,19,-1
 459 302 l 1,11,-1
11 135 m 0,20,21
 35 282 35 282 258 317 c 0,22,23
 359 334 359 334 381 342 c 1,24,-1
 386 373 l 2,25,26
 393 415 393 415 367 445.5 c 128,-1,27
 341 476 341 476 290 476 c 0,28,29
 197 476 197 476 119 397 c 1,30,-1
 73 445 l 1,31,32
 172 548 172 548 302 548 c 0,33,34
 425 548 425 548 453 447 c 1,35,36
 527 548 527 548 641 548 c 0,37,38
 738 548 738 548 785.5 472 c 128,-1,39
 833 396 833 396 813 277 c 2,40,-1
 807 235 l 1,41,-1
 448 235 l 1,42,-1
 446 218 l 1,43,44
 440 153 440 153 468 105 c 128,-1,45
 496 57 496 57 560 57 c 0,46,47
 607 57 607 57 646 81.5 c 128,-1,48
 685 106 685 106 710 143 c 1,49,-1
 778 118 l 1,50,51
 743 58 743 58 684 20.5 c 128,-1,52
 625 -17 625 -17 547 -17 c 0,53,54
 483 -17 483 -17 439.5 17 c 128,-1,55
 396 51 396 51 380 110 c 1,56,57
 288 -17 288 -17 161 -17 c 0,58,59
 81 -17 81 -17 40.5 24.5 c 128,-1,60
 0 66 0 66 11 135 c 0,20,21
EndSplineSet
EndChar

StartChar: eth
Encoding: 240 240 178
Width: 526
GlyphClass: 2
Flags: W
LayerCount: 2
Fore
SplineSet
27 235 m 0,0,1
 47 354 47 354 121 423.5 c 128,-1,2
 195 493 195 493 294 493 c 0,3,4
 341 493 341 493 373.5 471.5 c 128,-1,5
 406 450 406 450 416 421 c 1,6,7
 412 540 412 540 355 610 c 1,8,-1
 230 526 l 1,9,-1
 191 584 l 1,10,-1
 300 658 l 1,11,12
 257 685 257 685 201 695 c 1,13,-1
 242 767 l 1,14,15
 294 758 294 758 337 738 c 0,16,17
 359 728 359 728 379 712 c 1,18,-1
 489 787 l 1,19,-1
 528 728 l 1,20,-1
 432 662 l 1,21,22
 458 629 458 629 475 587 c 0,23,24
 496 532 496 532 500.5 450.5 c 128,-1,25
 505 369 505 369 488 268 c 0,26,27
 467 141 467 141 393.5 62 c 128,-1,28
 320 -17 320 -17 210 -17 c 0,29,30
 108 -17 108 -17 58.5 54.5 c 128,-1,31
 9 126 9 126 27 235 c 0,0,1
115 239 m 0,32,33
 102 159 102 159 131 109 c 128,-1,34
 160 59 160 59 224 59 c 0,35,36
 286 59 286 59 331 108 c 128,-1,37
 376 157 376 157 390 240 c 0,38,39
 403 319 403 319 374 367 c 128,-1,40
 345 415 345 415 284 415 c 256,41,42
 223 415 223 415 176 368.5 c 128,-1,43
 129 322 129 322 115 239 c 0,32,33
EndSplineSet
EndChar

StartChar: divide
Encoding: 247 247 185
Width: 542
GlyphClass: 2
Flags: W
LayerCount: 2
Fore
SplineSet
246 493 m 1,0,-1
 266 610 l 1,1,-1
 383 610 l 1,2,-1
 364 493 l 1,3,-1
 246 493 l 1,0,-1
31 324 m 1,4,-1
 44 404 l 1,5,-1
 537 404 l 1,6,-1
 524 324 l 1,7,-1
 31 324 l 1,4,-1
184 117 m 1,8,-1
 203 234 l 1,9,-1
 321 234 l 1,10,-1
 302 117 l 1,11,-1
 184 117 l 1,8,-1
EndSplineSet
EndChar

StartChar: oslash
Encoding: 248 248 186
Width: 527
GlyphClass: 2
Flags: W
LayerCount: 2
Fore
SplineSet
32 265 m 0,0,1
 52 385 52 385 125.5 466.5 c 128,-1,2
 199 548 199 548 308 548 c 0,3,4
 366 548 366 548 406 524 c 1,5,-1
 451 593 l 1,6,-1
 520 593 l 1,7,-1
 450 486 l 1,8,9
 512 408 512 408 488 265 c 0,10,11
 480 215 480 215 460 167.5 c 128,-1,12
 440 120 440 120 408 77.5 c 128,-1,13
 376 35 376 35 325.5 9 c 128,-1,14
 275 -17 275 -17 214 -17 c 0,15,16
 162 -17 162 -17 122 3 c 1,17,-1
 81 -59 l 1,18,-1
 13 -59 l 1,19,-1
 77 39 l 1,20,21
 44 77 44 77 32.5 138 c 128,-1,22
 21 199 21 199 32 265 c 0,0,1
392 401 m 1,23,-1
 171 75 l 1,24,25
 197 59 197 59 227 59 c 0,26,27
 286 59 286 59 336.5 113.5 c 128,-1,28
 387 168 387 168 403 265 c 0,29,30
 416 347 416 347 392 401 c 1,23,-1
358 451 m 1,31,32
 331 472 331 472 296 472 c 0,33,34
 238 472 238 472 187 418.5 c 128,-1,35
 136 365 136 365 120 265 c 0,36,37
 105 177 105 177 133 121 c 1,38,-1
 358 451 l 1,31,32
EndSplineSet
EndChar

StartChar: thorn
Encoding: 254 254 192
Width: 552
GlyphClass: 2
Flags: W
LayerCount: 2
Fore
SplineSet
155 266 m 0,0,1
 139 172 139 172 168.5 115.5 c 128,-1,2
 198 59 198 59 254 59 c 0,3,4
 319 59 319 59 365.5 114 c 128,-1,5
 412 169 412 169 428 266 c 0,6,7
 444 361 444 361 416 416.5 c 128,-1,8
 388 472 388 472 323 472 c 0,9,10
 268 472 268 472 219 415 c 128,-1,11
 170 358 170 358 155 266 c 0,0,1
-8 -227 m 1,12,-1
 156 762 l 1,13,-1
 239 762 l 1,14,-1
 187 446 l 1,15,16
 208 490 208 490 254.5 519 c 128,-1,17
 301 548 301 548 346 548 c 0,18,19
 443 548 443 548 489 472.5 c 128,-1,20
 535 397 535 397 513 266 c 0,21,22
 501 194 501 194 473.5 137.5 c 128,-1,23
 446 81 446 81 408.5 48 c 128,-1,24
 371 15 371 15 331.5 -1 c 128,-1,25
 292 -17 292 -17 252 -17 c 0,26,27
 201 -17 201 -17 168.5 13 c 128,-1,28
 136 43 136 43 127 82 c 1,29,-1
 76 -227 l 1,30,-1
 -8 -227 l 1,12,-1
EndSplineSet
EndChar

StartChar: dcroat
Encoding: 273 273 211
Width: 551
GlyphClass: 2
Flags: W
LayerCount: 2
Fore
SplineSet
32 264 m 0,0,1
 54 396 54 396 127 470 c 128,-1,2
 200 544 200 544 291 544 c 0,3,4
 342 544 342 544 375.5 515 c 128,-1,5
 409 486 409 486 419 447 c 1,6,-1
 446 612 l 1,7,-1
 245 612 l 1,8,-1
 256 680 l 1,9,-1
 457 680 l 1,10,-1
 471 762 l 1,11,-1
 556 762 l 1,12,-1
 543 680 l 1,13,-1
 605 680 l 1,14,-1
 593 612 l 1,15,-1
 532 612 l 1,16,-1
 430 0 l 1,17,-1
 348 0 l 1,18,-1
 362 87 l 1,19,20
 334 40 334 40 291.5 11.5 c 128,-1,21
 249 -17 249 -17 198 -17 c 0,22,23
 111 -17 111 -17 60 54 c 128,-1,24
 9 125 9 125 32 264 c 0,0,1
120 264 m 0,25,26
 104 169 104 169 133 114 c 128,-1,27
 162 59 162 59 222 59 c 0,28,29
 280 59 280 59 327.5 115 c 128,-1,30
 375 171 375 171 390 264 c 0,31,32
 405 354 405 354 376.5 411 c 128,-1,33
 348 468 348 468 289 468 c 0,34,35
 228 468 228 468 181.5 412 c 128,-1,36
 135 356 135 356 120 264 c 0,25,26
EndSplineSet
EndChar

StartChar: uni0123
Encoding: 291 291 229
Width: 536
GlyphClass: 2
Flags: W
LayerCount: 2
Fore
SplineSet
261 627 m 1,0,-1
 372 810 l 1,1,-1
 432 810 l 1,2,-1
 358 627 l 1,3,-1
 261 627 l 1,0,-1
122 276 m 0,4,5
 107 184 107 184 134.5 131.5 c 128,-1,6
 162 79 162 79 219 79 c 0,7,8
 279 79 279 79 323 130.5 c 128,-1,9
 367 182 367 182 383 276 c 0,10,11
 398 368 398 368 370.5 420 c 128,-1,12
 343 472 343 472 285 472 c 0,13,14
 226 472 226 472 181.5 418 c 128,-1,15
 137 364 137 364 122 276 c 0,4,5
35 275 m 256,16,17
 55 397 55 397 126 472.5 c 128,-1,18
 197 548 197 548 287 548 c 0,19,20
 343 548 343 548 373 519 c 128,-1,21
 403 490 403 490 412 453 c 1,22,-1
 425 531 l 1,23,-1
 509 531 l 1,24,-1
 432 66 l 2,25,26
 407 -85 407 -85 342 -158 c 128,-1,27
 277 -231 277 -231 164 -231 c 0,28,29
 107 -231 107 -231 61 -206 c 128,-1,30
 15 -181 15 -181 -9 -132 c 1,31,-1
 55 -91 l 1,32,33
 98 -157 98 -157 178 -157 c 0,34,35
 241 -157 241 -157 282.5 -108.5 c 128,-1,36
 324 -60 324 -60 339 20 c 0,37,38
 349 74 349 74 353 93 c 1,39,40
 328 53 328 53 288 28 c 128,-1,41
 248 3 248 3 199 3 c 0,42,43
 106 3 106 3 60.5 78 c 128,-1,44
 15 153 15 153 35 275 c 256,16,17
EndSplineSet
EndChar

StartChar: Hbar
Encoding: 294 294 232
Width: 699
GlyphClass: 2
Flags: W
LayerCount: 2
Fore
SplineSet
58 559 m 1,0,-1
 70 632 l 1,1,-1
 150 632 l 1,2,-1
 167 735 l 1,3,-1
 259 735 l 1,4,-1
 242 632 l 1,5,-1
 574 632 l 1,6,-1
 591 735 l 1,7,-1
 682 735 l 1,8,-1
 665 632 l 1,9,-1
 745 632 l 1,10,-1
 733 559 l 1,11,-1
 653 559 l 1,12,-1
 561 0 l 1,13,-1
 469 0 l 1,14,-1
 525 338 l 1,15,-1
 193 338 l 1,16,-1
 137 0 l 1,17,-1
 45 0 l 1,18,-1
 138 559 l 1,19,-1
 58 559 l 1,0,-1
562 559 m 1,20,-1
 230 559 l 1,21,-1
 206 418 l 1,22,-1
 539 418 l 1,23,-1
 562 559 l 1,20,-1
EndSplineSet
EndChar

StartChar: hbar
Encoding: 295 295 233
Width: 532
GlyphClass: 2
Flags: W
LayerCount: 2
Fore
SplineSet
63 614 m 1,0,-1
 74 682 l 1,1,-1
 141 682 l 1,2,-1
 154 762 l 1,3,-1
 238 762 l 1,4,-1
 225 682 l 1,5,-1
 417 682 l 1,6,-1
 406 614 l 1,7,-1
 214 614 l 1,8,-1
 185 439 l 1,9,-1
 186 439 l 1,10,11
 210 475 210 475 254 503 c 128,-1,12
 298 531 298 531 347 531 c 0,13,14
 375 531 375 531 400 522 c 128,-1,15
 425 513 425 513 448 492.5 c 128,-1,16
 471 472 471 472 480 429 c 128,-1,17
 489 386 489 386 479 326 c 2,18,-1
 425 0 l 1,19,-1
 339 0 l 1,20,-1
 391 313 l 2,21,22
 415 455 415 455 318 455 c 0,23,24
 265 455 265 455 218 406 c 128,-1,25
 171 357 171 357 161 294 c 2,26,-1
 112 0 l 1,27,-1
 28 0 l 1,28,-1
 129 614 l 1,29,-1
 63 614 l 1,0,-1
EndSplineSet
EndChar

StartChar: dotlessi
Encoding: 305 305 243
Width: 231
GlyphClass: 2
Flags: W
LayerCount: 2
Fore
SplineSet
27 0 m 1,0,-1
 115 531 l 1,1,-1
 199 531 l 1,2,-1
 111 0 l 1,3,-1
 27 0 l 1,0,-1
EndSplineSet
EndChar

StartChar: kgreenlandic
Encoding: 312 312 250
Width: 488
GlyphClass: 2
Flags: W
LayerCount: 2
Fore
SplineSet
25 0 m 1,0,-1
 113 531 l 1,1,-1
 197 531 l 1,2,-1
 161 310 l 1,3,-1
 163 310 l 1,4,-1
 421 531 l 1,5,-1
 530 531 l 1,6,-1
 242 283 l 1,7,-1
 449 0 l 1,8,-1
 344 0 l 1,9,-1
 175 219 l 1,10,-1
 140 187 l 1,11,-1
 109 0 l 1,12,-1
 25 0 l 1,0,-1
EndSplineSet
EndChar

StartChar: Lslash
Encoding: 321 321 259
Width: 531
GlyphClass: 2
Flags: W
LayerCount: 2
Fore
SplineSet
198 344 m 1,0,-1
 154 79 l 1,1,-1
 491 79 l 1,2,-1
 478 0 l 1,3,-1
 49 0 l 1,4,-1
 96 285 l 1,5,-1
 -8 222 l 1,6,-1
 -38 289 l 1,7,-1
 112 380 l 1,8,-1
 171 735 l 1,9,-1
 263 735 l 1,10,-1
 214 437 l 1,11,-1
 324 504 l 1,12,-1
 354 436 l 1,13,-1
 198 344 l 1,0,-1
EndSplineSet
EndChar

StartChar: lslash
Encoding: 322 322 260
Width: 248
GlyphClass: 2
Flags: W
LayerCount: 2
Fore
SplineSet
180 359 m 1,0,-1
 120 0 l 1,1,-1
 36 0 l 1,2,-1
 86 304 l 1,3,-1
 -11 246 l 1,4,-1
 -40 314 l 1,5,-1
 102 399 l 1,6,-1
 162 762 l 1,7,-1
 246 762 l 1,8,-1
 196 456 l 1,9,-1
 292 512 l 1,10,-1
 319 443 l 1,11,-1
 180 359 l 1,0,-1
EndSplineSet
EndChar

StartChar: Eng
Encoding: 330 330 268
Width: 693
GlyphClass: 2
Flags: W
LayerCount: 2
Fore
SplineSet
39 0 m 1,0,-1
 161 735 l 1,1,-1
 262 735 l 1,2,-1
 457 243 l 1,3,-1
 496 136 l 1,4,-1
 502 136 l 1,5,6
 508 237 508 237 525 340 c 2,7,-1
 590 735 l 1,8,-1
 682 735 l 1,9,-1
 562 11 l 2,10,11
 544 -99 544 -99 489 -163.5 c 128,-1,12
 434 -228 434 -228 337 -228 c 0,13,14
 303 -228 303 -228 238 -220 c 1,15,-1
 251 -142 l 1,16,17
 292 -148 292 -148 333 -148 c 0,18,19
 389 -148 389 -148 416.5 -114 c 128,-1,20
 444 -80 444 -80 459 -1 c 1,21,-1
 265 491 l 1,22,-1
 225 598 l 1,23,-1
 220 598 l 1,24,25
 215 501 215 501 200 412 c 2,26,-1
 132 0 l 1,27,-1
 39 0 l 1,0,-1
EndSplineSet
EndChar

StartChar: eng
Encoding: 331 331 269
Width: 525
GlyphClass: 2
Flags: W
LayerCount: 2
Fore
SplineSet
19 0 m 1,0,-1
 107 531 l 1,1,-1
 190 531 l 1,2,-1
 176 449 l 1,3,-1
 177 449 l 1,4,5
 196 486 196 486 242.5 517 c 128,-1,6
 289 548 289 548 346 548 c 0,7,8
 418 548 418 548 455.5 500.5 c 128,-1,9
 493 453 493 453 474 342 c 2,10,-1
 419 9 l 2,11,12
 398 -116 398 -116 341 -173.5 c 128,-1,13
 284 -231 284 -231 210 -231 c 0,14,15
 192 -231 192 -231 176 -229 c 128,-1,16
 160 -227 160 -227 144 -224.5 c 128,-1,17
 128 -222 128 -222 124 -221 c 1,18,-1
 137 -144 l 1,19,20
 182 -151 182 -151 211 -151 c 0,21,22
 261 -151 261 -151 290.5 -114.5 c 128,-1,23
 320 -78 320 -78 333 -2 c 2,24,-1
 387 328 l 2,25,26
 411 472 411 472 315 472 c 0,27,28
 262 472 262 472 215 425.5 c 128,-1,29
 168 379 168 379 157 314 c 2,30,-1
 105 0 l 1,31,-1
 19 0 l 1,0,-1
EndSplineSet
EndChar

StartChar: OE
Encoding: 338 338 276
Width: 935
GlyphClass: 2
Flags: W
LayerCount: 2
Fore
SplineSet
57 367 m 0,0,1
 86 541 86 541 189.5 646.5 c 128,-1,2
 293 752 293 752 431 752 c 0,3,4
 487 752 487 752 530 735 c 1,5,-1
 968 735 l 1,6,-1
 955 655 l 1,7,-1
 605 655 l 1,8,-1
 566 420 l 1,9,-1
 881 420 l 1,10,-1
 868 341 l 1,11,-1
 553 341 l 1,12,-1
 510 79 l 1,13,-1
 869 79 l 1,14,-1
 856 0 l 1,15,-1
 410 0 l 1,16,17
 360 -17 360 -17 304 -17 c 0,18,19
 165 -17 165 -17 96.5 87.5 c 128,-1,20
 28 192 28 192 57 367 c 0,0,1
152 367 m 0,21,22
 129 227 129 227 174.5 145 c 128,-1,23
 220 63 220 63 317 63 c 0,24,25
 374 63 374 63 420 92 c 1,26,-1
 511 641 l 1,27,28
 475 672 475 672 418 672 c 0,29,30
 319 672 319 672 247 589 c 128,-1,31
 175 506 175 506 152 367 c 0,21,22
EndSplineSet
EndChar

StartChar: uni0163
Encoding: 355 355 293
Width: 339
GlyphClass: 2
Flags: W
LayerCount: 2
Fore
SplineSet
45 455 m 1,0,-1
 57 531 l 1,1,-1
 143 531 l 1,2,-1
 170 696 l 1,3,-1
 254 696 l 1,4,-1
 226 531 l 1,5,-1
 353 531 l 1,6,-1
 341 455 l 1,7,-1
 214 455 l 1,8,-1
 165 161 l 2,9,10
 158 117 158 117 171.5 97 c 128,-1,11
 185 77 185 77 221 77 c 2,12,-1
 279 77 l 1,13,-1
 266 0 l 1,14,-1
 203 0 l 1,15,-1
 187 -38 l 1,16,17
 226 -45 226 -45 244.5 -67.5 c 128,-1,18
 263 -90 263 -90 257 -123 c 0,19,20
 250 -163 250 -163 214.5 -191 c 128,-1,21
 179 -219 179 -219 114 -219 c 0,22,23
 71 -219 71 -219 34 -208 c 1,24,-1
 43 -151 l 1,25,26
 81 -161 81 -161 122 -161 c 0,27,28
 183 -161 183 -161 190 -118 c 0,29,30
 197 -76 197 -76 98 -70 c 1,31,-1
 130 12 l 1,32,33
 62 43 62 43 80 153 c 2,34,-1
 130 455 l 1,35,-1
 45 455 l 1,0,-1
EndSplineSet
Substitution2: "'locl' Localized Forms in Latin lookup 3 subtable" uni021B
Substitution2: "'locl' Localized Forms in Latin lookup 2 subtable" uni021B
Substitution2: "'aalt' Access All Alternates lookup 0 subtable" uni021B
EndChar

StartChar: tbar
Encoding: 359 359 297
Width: 340
GlyphClass: 2
Flags: W
LayerCount: 2
Fore
SplineSet
45 455 m 1,0,-1
 58 531 l 1,1,-1
 143 531 l 1,2,-1
 171 696 l 1,3,-1
 254 696 l 1,4,-1
 227 531 l 1,5,-1
 354 531 l 1,6,-1
 342 455 l 1,7,-1
 214 455 l 1,8,-1
 198 355 l 1,9,-1
 329 355 l 1,10,-1
 316 280 l 1,11,-1
 185 280 l 1,12,-1
 166 161 l 2,13,14
 159 117 159 117 172.5 97 c 128,-1,15
 186 77 186 77 222 77 c 2,16,-1
 280 77 l 1,17,-1
 267 0 l 1,18,-1
 198 0 l 2,19,20
 55 0 55 0 81 153 c 2,21,-1
 102 280 l 1,22,-1
 7 280 l 1,23,-1
 19 355 l 1,24,-1
 114 355 l 1,25,-1
 131 455 l 1,26,-1
 45 455 l 1,0,-1
EndSplineSet
EndChar

StartChar: longs
Encoding: 383 383 321
Width: 286
GlyphClass: 2
Flags: W
LayerCount: 2
Fore
SplineSet
29 0 m 1,0,-1
 129 603 l 2,1,2
 142 682 142 682 186 721.5 c 128,-1,3
 230 761 230 761 296 761 c 2,4,-1
 362 761 l 1,5,-1
 349 685 l 1,6,-1
 299 685 l 2,7,8
 227 685 227 685 211 592 c 2,9,-1
 113 0 l 1,10,-1
 29 0 l 1,0,-1
EndSplineSet
EndChar

StartChar: uni0180
Encoding: 384 384 322
Width: 551
GlyphClass: 2
Flags: W
LayerCount: 2
Fore
SplineSet
155 265 m 0,0,1
 139 171 139 171 168.5 115 c 128,-1,2
 198 59 198 59 255 59 c 0,3,4
 317 59 317 59 363.5 114.5 c 128,-1,5
 410 170 410 170 426 265 c 0,6,7
 441 358 441 358 413.5 413.5 c 128,-1,8
 386 469 386 469 324 469 c 0,9,10
 266 469 266 469 218 413 c 128,-1,11
 170 357 170 357 155 265 c 0,0,1
65 613 m 1,12,-1
 77 683 l 1,13,-1
 141 683 l 1,14,-1
 154 762 l 1,15,-1
 239 762 l 1,16,-1
 226 683 l 1,17,-1
 417 683 l 1,18,-1
 406 613 l 1,19,-1
 215 613 l 1,20,-1
 187 445 l 1,21,22
 208 483 208 483 251.5 514 c 128,-1,23
 295 545 295 545 348 545 c 0,24,25
 442 545 442 545 488 470.5 c 128,-1,26
 534 396 534 396 512 265 c 0,27,28
 500 193 500 193 471.5 136 c 128,-1,29
 443 79 443 79 405.5 46.5 c 128,-1,30
 368 14 368 14 330 -1.5 c 128,-1,31
 292 -17 292 -17 255 -17 c 0,32,33
 203 -17 203 -17 168.5 13 c 128,-1,34
 134 43 134 43 125 86 c 1,35,-1
 111 0 l 1,36,-1
 28 0 l 1,37,-1
 129 613 l 1,38,-1
 65 613 l 1,12,-1
EndSplineSet
EndChar

StartChar: uni0182
Encoding: 386 386 324
Width: 633
GlyphClass: 2
Flags: W
LayerCount: 2
Fore
SplineSet
145 79 m 1,0,-1
 327 79 l 2,1,2
 388 79 388 79 433 112.5 c 128,-1,3
 478 146 478 146 489 209 c 0,4,5
 498 266 498 266 465 304 c 128,-1,6
 432 342 432 342 368 342 c 2,7,-1
 188 342 l 1,8,-1
 145 79 l 1,0,-1
39 0 m 1,9,-1
 161 735 l 1,10,-1
 588 735 l 1,11,-1
 575 655 l 1,12,-1
 240 655 l 1,13,-1
 201 421 l 1,14,-1
 389 421 l 2,15,16
 496 421 496 421 548 361.5 c 128,-1,17
 600 302 600 302 585 209 c 0,18,19
 570 119 570 119 499.5 59.5 c 128,-1,20
 429 0 429 0 328 0 c 2,21,-1
 39 0 l 1,9,-1
EndSplineSet
EndChar

StartChar: uni0183
Encoding: 387 387 325
Width: 549
GlyphClass: 2
Flags: W
LayerCount: 2
Fore
SplineSet
153 266 m 0,0,1
 137 171 137 171 166 115 c 128,-1,2
 195 59 195 59 252 59 c 0,3,4
 313 59 313 59 360 114 c 128,-1,5
 407 169 407 169 423 266 c 0,6,7
 439 360 439 360 411 416 c 128,-1,8
 383 472 383 472 322 472 c 0,9,10
 264 472 264 472 216 415.5 c 128,-1,11
 168 359 168 359 153 266 c 0,0,1
25 0 m 1,12,-1
 151 759 l 1,13,-1
 499 759 l 1,14,-1
 487 683 l 1,15,-1
 224 683 l 1,16,-1
 185 448 l 1,17,18
 201 481 201 481 246 514.5 c 128,-1,19
 291 548 291 548 346 548 c 0,20,21
 440 548 440 548 486 472.5 c 128,-1,22
 532 397 532 397 510 266 c 0,23,24
 498 193 498 193 469.5 136.5 c 128,-1,25
 441 80 441 80 404 47.5 c 128,-1,26
 367 15 367 15 328.5 -1 c 128,-1,27
 290 -17 290 -17 253 -17 c 0,28,29
 201 -17 201 -17 166 13.5 c 128,-1,30
 131 44 131 44 123 86 c 1,31,-1
 109 0 l 1,32,-1
 25 0 l 1,12,-1
EndSplineSet
EndChar

StartChar: uni0184
Encoding: 388 388 326
Width: 644
GlyphClass: 2
Flags: W
LayerCount: 2
Fore
SplineSet
76 670 m 1,0,-1
 205 735 l 1,1,-1
 259 735 l 1,2,-1
 207 418 l 1,3,-1
 399 418 l 2,4,5
 507 418 507 418 558.5 359.5 c 128,-1,6
 610 301 610 301 594 209 c 0,7,8
 580 124 580 124 512 62 c 128,-1,9
 444 0 444 0 345 0 c 2,10,-1
 45 0 l 1,11,-1
 146 607 l 1,12,-1
 76 670 l 1,0,-1
150 79 m 1,13,-1
 339 79 l 2,14,15
 398 79 398 79 444 112.5 c 128,-1,16
 490 146 490 146 500 208 c 0,17,18
 509 263 509 263 477.5 301 c 128,-1,19
 446 339 446 339 381 339 c 2,20,-1
 193 339 l 1,21,-1
 150 79 l 1,13,-1
EndSplineSet
EndChar

StartChar: uni0185
Encoding: 389 389 327
Width: 552
GlyphClass: 2
Flags: W
LayerCount: 2
Fore
SplineSet
71 695 m 1,0,-1
 192 762 l 1,1,-1
 240 762 l 1,2,-1
 188 449 l 1,3,4
 215 497 215 497 261 522.5 c 128,-1,5
 307 548 307 548 349 548 c 0,6,7
 443 548 443 548 489 472.5 c 128,-1,8
 535 397 535 397 513 266 c 0,9,10
 501 194 501 194 473 137.5 c 128,-1,11
 445 81 445 81 408.5 48 c 128,-1,12
 372 15 372 15 333 -1 c 128,-1,13
 294 -17 294 -17 256 -17 c 0,14,15
 205 -17 205 -17 171 13 c 128,-1,16
 137 43 137 43 126 86 c 1,17,-1
 112 0 l 1,18,-1
 28 0 l 1,19,-1
 133 632 l 1,20,-1
 71 695 l 1,0,-1
156 266 m 0,21,22
 140 171 140 171 169 115 c 128,-1,23
 198 59 198 59 255 59 c 0,24,25
 316 59 316 59 363 114.5 c 128,-1,26
 410 170 410 170 426 266 c 0,27,28
 441 359 441 359 414 415.5 c 128,-1,29
 387 472 387 472 325 472 c 0,30,31
 267 472 267 472 219 415.5 c 128,-1,32
 171 359 171 359 156 266 c 0,21,22
EndSplineSet
EndChar

StartChar: uni0186
Encoding: 390 390 328
Width: 636
GlyphClass: 2
Flags: W
LayerCount: 2
Fore
SplineSet
2 162 m 1,0,-1
 89 189 l 1,1,2
 103 136 103 136 143 100 c 128,-1,3
 183 64 183 64 246 64 c 0,4,5
 343 64 343 64 416.5 145 c 128,-1,6
 490 226 490 226 514 367 c 0,7,8
 537 506 537 506 491.5 589 c 128,-1,9
 446 672 446 672 347 672 c 0,10,11
 247 672 247 672 164 559 c 1,12,-1
 90 586 l 1,13,14
 132 655 132 655 202 703.5 c 128,-1,15
 272 752 272 752 359 752 c 0,16,17
 498 752 498 752 567.5 648.5 c 128,-1,18
 637 545 637 545 608 367 c 0,19,20
 578 187 578 187 473.5 85 c 128,-1,21
 369 -17 369 -17 232 -17 c 0,22,23
 134 -17 134 -17 78 36 c 128,-1,24
 22 89 22 89 2 162 c 1,0,-1
EndSplineSet
EndChar

StartChar: uni018B
Encoding: 395 395 333
Width: 633
GlyphClass: 2
Flags: W
LayerCount: 2
Fore
SplineSet
120 209 m 0,0,1
 110 147 110 147 143.5 113 c 128,-1,2
 177 79 177 79 237 79 c 2,3,-1
 421 79 l 1,4,-1
 464 342 l 1,5,-1
 287 342 l 2,6,7
 221 342 221 342 175.5 304.5 c 128,-1,8
 130 267 130 267 120 209 c 0,0,1
25 209 m 0,9,10
 40 302 40 302 111.5 361.5 c 128,-1,11
 183 421 183 421 290 421 c 2,12,-1
 477 421 l 1,13,-1
 516 655 l 1,14,-1
 182 655 l 1,15,-1
 195 735 l 1,16,-1
 622 735 l 1,17,-1
 500 0 l 1,18,-1
 210 0 l 2,19,20
 110 0 110 0 60 59 c 128,-1,21
 10 118 10 118 25 209 c 0,9,10
EndSplineSet
EndChar

StartChar: uni018C
Encoding: 396 396 334
Width: 549
GlyphClass: 2
Flags: W
LayerCount: 2
Fore
SplineSet
120 266 m 0,0,1
 104 169 104 169 133 114 c 128,-1,2
 162 59 162 59 222 59 c 0,3,4
 280 59 280 59 327.5 115.5 c 128,-1,5
 375 172 375 172 391 266 c 0,6,7
 406 359 406 359 376.5 415.5 c 128,-1,8
 347 472 347 472 290 472 c 0,9,10
 228 472 228 472 182 416.5 c 128,-1,11
 136 361 136 361 120 266 c 0,0,1
33 266 m 0,12,13
 55 396 55 396 127.5 472 c 128,-1,14
 200 548 200 548 292 548 c 0,15,16
 348 548 348 548 380 515.5 c 128,-1,17
 412 483 412 483 419 450 c 1,18,-1
 458 686 l 1,19,-1
 190 686 l 1,20,-1
 203 762 l 1,21,-1
 556 762 l 1,22,-1
 430 0 l 1,23,-1
 348 0 l 1,24,-1
 362 86 l 1,25,26
 338 44 338 44 294 13.5 c 128,-1,27
 250 -17 250 -17 197 -17 c 0,28,29
 113 -17 113 -17 61.5 54 c 128,-1,30
 10 125 10 125 33 266 c 0,12,13
EndSplineSet
EndChar

StartChar: uni018D
Encoding: 397 397 335
Width: 573
GlyphClass: 2
Flags: W
LayerCount: 2
Fore
SplineSet
129 318 m 0,0,1
 118 254 118 254 160 201 c 128,-1,2
 202 148 202 148 265 118 c 1,3,4
 340 152 340 152 394 205.5 c 128,-1,5
 448 259 448 259 457 318 c 0,6,7
 468 382 468 382 433.5 427 c 128,-1,8
 399 472 399 472 322 472 c 0,9,10
 247 472 247 472 193.5 429 c 128,-1,11
 140 386 140 386 129 318 c 0,0,1
41 315 m 0,12,13
 59 425 59 425 138.5 486.5 c 128,-1,14
 218 548 218 548 335 548 c 0,15,16
 450 548 450 548 505.5 483.5 c 128,-1,17
 561 419 561 419 544 321 c 0,18,19
 533 254 533 254 476 188 c 128,-1,20
 419 122 419 122 331 79 c 1,21,22
 426 15 426 15 413 -64 c 0,23,24
 401 -136 401 -136 339.5 -179.5 c 128,-1,25
 278 -223 278 -223 187 -223 c 0,26,27
 43 -223 43 -223 -5 -104 c 1,28,-1
 63 -65 l 1,29,30
 80 -97 80 -97 115 -121 c 128,-1,31
 150 -145 150 -145 199 -145 c 0,32,33
 247 -145 247 -145 283.5 -123 c 128,-1,34
 320 -101 320 -101 326 -65 c 0,35,36
 328 -53 328 -53 325.5 -42 c 128,-1,37
 323 -31 323 -31 312.5 -20 c 128,-1,38
 302 -9 302 -9 292.5 0 c 128,-1,39
 283 9 283 9 263 21.5 c 128,-1,40
 243 34 243 34 195 62 c 0,41,42
 16 166 16 166 41 315 c 0,12,13
EndSplineSet
EndChar

StartChar: uni018E
Encoding: 398 398 336
Width: 585
GlyphClass: 2
Flags: W
LayerCount: 2
Fore
SplineSet
-12 0 m 1,0,-1
 1 79 l 1,1,-1
 374 79 l 1,2,-1
 417 341 l 1,3,-1
 86 341 l 1,4,-1
 99 420 l 1,5,-1
 430 420 l 1,6,-1
 469 655 l 1,7,-1
 101 655 l 1,8,-1
 114 735 l 1,9,-1
 574 735 l 1,10,-1
 452 0 l 1,11,-1
 -12 0 l 1,0,-1
EndSplineSet
EndChar

StartChar: uni018F
Encoding: 399 399 337
Width: 681
GlyphClass: 2
Flags: W
LayerCount: 2
Fore
SplineSet
50 347 m 0,0,1
 54 373 54 373 61 407 c 1,2,-1
 565 407 l 1,3,4
 578 532 578 532 534 602 c 128,-1,5
 490 672 490 672 394 672 c 0,6,7
 277 672 277 672 185 563 c 1,8,-1
 113 594 l 1,9,10
 164 670 164 670 241.5 711 c 128,-1,11
 319 752 319 752 409 752 c 0,12,13
 560 752 560 752 622 645 c 128,-1,14
 684 538 684 538 655 366 c 0,15,16
 626 189 626 189 523 86 c 128,-1,17
 420 -17 420 -17 284 -17 c 0,18,19
 144 -17 144 -17 84 86.5 c 128,-1,20
 24 190 24 190 50 347 c 0,0,1
143 327 m 1,21,22
 142 323 142 323 141.5 315.5 c 128,-1,23
 141 308 141 308 141 305 c 0,24,25
 135 260 135 260 140 219 c 128,-1,26
 145 178 145 178 161 141.5 c 128,-1,27
 177 105 177 105 213 84 c 128,-1,28
 249 63 249 63 299 63 c 0,29,30
 381 63 381 63 454.5 130 c 128,-1,31
 528 197 528 197 553 327 c 1,32,-1
 143 327 l 1,21,22
EndSplineSet
EndChar

StartChar: uni0190
Encoding: 400 400 338
Width: 588
GlyphClass: 2
Flags: W
LayerCount: 2
Fore
SplineSet
30 204 m 0,0,1
 42 278 42 278 94.5 325.5 c 128,-1,2
 147 373 147 373 206 389 c 1,3,4
 161 409 161 409 134 455.5 c 128,-1,5
 107 502 107 502 117 563 c 0,6,7
 131 646 131 646 202 699 c 128,-1,8
 273 752 273 752 377 752 c 0,9,10
 430 752 430 752 470.5 736.5 c 128,-1,11
 511 721 511 721 534 695 c 128,-1,12
 557 669 557 669 569.5 643.5 c 128,-1,13
 582 618 582 618 589 591 c 1,14,-1
 507 566 l 1,15,16
 469 675 469 675 369 675 c 0,17,18
 307 675 307 675 262.5 640.5 c 128,-1,19
 218 606 218 606 209 553 c 0,20,21
 199 492 199 492 241.5 456 c 128,-1,22
 284 420 284 420 345 420 c 0,23,24
 390 420 390 420 412 422 c 1,25,-1
 399 345 l 1,26,27
 364 348 364 348 330 348 c 0,28,29
 256 348 256 348 196 310.5 c 128,-1,30
 136 273 136 273 125 206 c 0,31,32
 113 134 113 134 157 97 c 128,-1,33
 201 60 201 60 271 60 c 0,34,35
 322 60 322 60 376.5 89.5 c 128,-1,36
 431 119 431 119 462 163 c 1,37,-1
 531 133 l 1,38,39
 489 64 489 64 415 23.5 c 128,-1,40
 341 -17 341 -17 255 -17 c 0,41,42
 140 -17 140 -17 76.5 42 c 128,-1,43
 13 101 13 101 30 204 c 0,0,1
EndSplineSet
EndChar

StartChar: uni0191
Encoding: 401 401 339
Width: 554
GlyphClass: 2
Flags: W
LayerCount: 2
Fore
SplineSet
-106 -146 m 1,0,1
 -72 -151 -72 -151 -58 -151 c 0,2,3
 -15 -151 -15 -151 9.5 -121.5 c 128,-1,4
 34 -92 34 -92 44 -27 c 2,5,-1
 170 735 l 1,6,-1
 615 735 l 1,7,-1
 602 655 l 1,8,-1
 249 655 l 1,9,-1
 208 408 l 1,10,-1
 525 408 l 1,11,-1
 512 330 l 1,12,-1
 196 330 l 1,13,-1
 136 -27 l 2,14,15
 118 -135 118 -135 65.5 -183 c 128,-1,16
 13 -231 13 -231 -54 -231 c 0,17,18
 -79 -231 -79 -231 -119 -224 c 1,19,-1
 -106 -146 l 1,0,1
EndSplineSet
EndChar

StartChar: florin
Encoding: 402 402 340
Width: 322
GlyphClass: 2
Flags: W
LayerCount: 2
Fore
SplineSet
-96 -147 m 1,0,1
 -78 -151 -78 -151 -49 -151 c 0,2,3
 35 -151 35 -151 56 -21 c 2,4,-1
 135 455 l 1,5,-1
 50 455 l 1,6,-1
 63 531 l 1,7,-1
 147 531 l 1,8,-1
 160 604 l 2,9,10
 173 683 173 683 216.5 722.5 c 128,-1,11
 260 762 260 762 327 762 c 2,12,-1
 398 762 l 1,13,-1
 385 686 l 1,14,-1
 326 686 l 2,15,16
 257 686 257 686 242 596 c 2,17,-1
 231 531 l 1,18,-1
 348 531 l 1,19,-1
 335 455 l 1,20,-1
 219 455 l 1,21,-1
 139 -23 l 2,22,23
 121 -132 121 -132 71 -181.5 c 128,-1,24
 21 -231 21 -231 -46 -231 c 0,25,26
 -52 -231 -52 -231 -109 -224 c 1,27,-1
 -96 -147 l 1,0,1
EndSplineSet
EndChar

StartChar: uni0194
Encoding: 404 404 342
Width: 604
GlyphClass: 2
Flags: W
LayerCount: 2
Fore
SplineSet
74 735 m 1,0,-1
 174 735 l 1,1,-1
 277 202 l 1,2,-1
 283 163 l 1,3,-1
 284 163 l 1,4,-1
 303 202 l 1,5,-1
 579 735 l 1,6,-1
 679 735 l 1,7,-1
 346 118 l 1,8,9
 414 7 414 7 400 -75 c 0,10,11
 389 -141 389 -141 338 -186 c 128,-1,12
 287 -231 287 -231 218 -231 c 256,13,14
 148 -231 148 -231 110 -188 c 128,-1,15
 72 -145 72 -145 84 -75 c 0,16,17
 90 -41 90 -41 113.5 -1.5 c 128,-1,18
 137 38 137 38 155 60 c 128,-1,19
 173 82 173 82 206 118 c 1,20,-1
 74 735 l 1,0,-1
177 -72 m 0,21,22
 171 -108 171 -108 185.5 -131.5 c 128,-1,23
 200 -155 200 -155 230 -155 c 256,24,25
 260 -155 260 -155 282.5 -131 c 128,-1,26
 305 -107 305 -107 311 -72 c 0,27,28
 321 -10 321 -10 266 68 c 1,29,30
 188 -6 188 -6 177 -72 c 0,21,22
EndSplineSet
EndChar

StartChar: uni0195
Encoding: 405 405 343
Width: 837
GlyphClass: 2
Flags: W
LayerCount: 2
Fore
SplineSet
25 0 m 1,0,-1
 151 762 l 1,1,-1
 237 762 l 1,2,-1
 186 457 l 1,3,-1
 187 457 l 1,4,5
 214 497 214 497 258 522.5 c 128,-1,6
 302 548 302 548 348 548 c 0,7,8
 378 548 378 548 403.5 539.5 c 128,-1,9
 429 531 429 531 451.5 509.5 c 128,-1,10
 474 488 474 488 481.5 445.5 c 128,-1,11
 489 403 489 403 479 342 c 2,12,-1
 452 182 l 2,13,14
 432 59 432 59 544 59 c 0,15,16
 653 59 653 59 674 185 c 2,17,-1
 731 531 l 1,18,-1
 818 531 l 1,19,-1
 758 171 l 2,20,21
 743 78 743 78 681.5 30.5 c 128,-1,22
 620 -17 620 -17 531 -17 c 0,23,24
 447 -17 447 -17 398 25 c 128,-1,25
 349 67 349 67 365 166 c 2,26,-1
 392 329 l 2,27,28
 416 472 416 472 320 472 c 0,29,30
 266 472 266 472 219.5 424.5 c 128,-1,31
 173 377 173 377 162 314 c 0,32,33
 162 313 162 313 162 311 c 2,34,-1
 110 0 l 1,35,-1
 25 0 l 1,0,-1
EndSplineSet
EndChar

StartChar: uni0196
Encoding: 406 406 344
Width: 336
GlyphClass: 2
Flags: W
LayerCount: 2
Fore
SplineSet
66 162 m 2,0,-1
 161 735 l 1,1,-1
 253 735 l 1,2,-1
 159 165 l 2,3,4
 150 111 150 111 162.5 87 c 128,-1,5
 175 63 175 63 215 63 c 0,6,7
 251 63 251 63 287 68 c 1,8,-1
 274 -10 l 1,9,10
 210 -17 210 -17 186 -17 c 0,11,12
 118 -17 118 -17 84 25.5 c 128,-1,13
 50 68 50 68 66 162 c 2,0,-1
EndSplineSet
EndChar

StartChar: uni0197
Encoding: 407 407 345
Width: 274
GlyphClass: 2
Flags: W
LayerCount: 2
Fore
SplineSet
28 336 m 1,0,-1
 40 409 l 1,1,-1
 112 409 l 1,2,-1
 166 735 l 1,3,-1
 258 735 l 1,4,-1
 204 409 l 1,5,-1
 277 409 l 1,6,-1
 265 336 l 1,7,-1
 192 336 l 1,8,-1
 137 0 l 1,9,-1
 45 0 l 1,10,-1
 100 336 l 1,11,-1
 28 336 l 1,0,-1
EndSplineSet
EndChar

StartChar: uni0198
Encoding: 408 408 346
Width: 625
GlyphClass: 2
Flags: W
LayerCount: 2
Fore
SplineSet
39 0 m 1,0,-1
 161 735 l 1,1,-1
 253 735 l 1,2,-1
 192 366 l 1,3,-1
 194 366 l 1,4,-1
 522 691 l 2,5,6
 585 752 585 752 669 752 c 0,7,8
 710 752 710 752 744 743 c 1,9,-1
 730 663 l 1,10,11
 696 672 696 672 660 672 c 0,12,13
 620 672 620 672 594 645 c 2,14,-1
 357 416 l 1,15,-1
 576 0 l 1,16,-1
 463 0 l 1,17,-1
 288 349 l 1,18,-1
 170 235 l 1,19,-1
 132 0 l 1,20,-1
 39 0 l 1,0,-1
EndSplineSet
EndChar

StartChar: uni0199
Encoding: 409 409 347
Width: 484
GlyphClass: 2
Flags: W
LayerCount: 2
Fore
SplineSet
27 0 m 1,0,-1
 128 613 l 2,1,2
 141 691 141 691 192 732.5 c 128,-1,3
 243 774 243 774 316 774 c 0,4,5
 343 774 343 774 390 771 c 1,6,-1
 377 692 l 1,7,8
 335 696 335 696 319 696 c 0,9,10
 278 696 278 696 248 669.5 c 128,-1,11
 218 643 218 643 210 596 c 2,12,-1
 158 283 l 1,13,-1
 404 531 l 1,14,-1
 516 531 l 1,15,-1
 297 318 l 1,16,-1
 445 0 l 1,17,-1
 342 0 l 1,18,-1
 232 254 l 1,19,-1
 138 162 l 1,20,-1
 111 0 l 1,21,-1
 27 0 l 1,0,-1
EndSplineSet
EndChar

StartChar: uni019A
Encoding: 410 410 348
Width: 243
GlyphClass: 2
Flags: W
LayerCount: 2
Fore
SplineSet
18 372 m 1,0,-1
 30 445 l 1,1,-1
 107 445 l 1,2,-1
 160 762 l 1,3,-1
 244 762 l 1,4,-1
 192 445 l 1,5,-1
 269 445 l 1,6,-1
 257 372 l 1,7,-1
 180 372 l 1,8,-1
 118 0 l 1,9,-1
 34 0 l 1,10,-1
 95 372 l 1,11,-1
 18 372 l 1,0,-1
EndSplineSet
EndChar

StartChar: uni019B
Encoding: 411 411 349
Width: 476
GlyphClass: 2
Flags: W
LayerCount: 2
Fore
SplineSet
-41 0 m 1,0,-1
 241 531 l 1,1,-1
 235 572 l 1,2,-1
 109 486 l 1,3,-1
 78 542 l 1,4,-1
 216 634 l 1,5,6
 197 682 197 682 141 682 c 2,7,-1
 123 682 l 1,8,-1
 135 757 l 1,9,-1
 166 757 l 2,10,11
 251 757 251 757 288 682 c 1,12,-1
 391 753 l 1,13,-1
 423 697 l 1,14,-1
 309 620 l 1,15,-1
 311 611 l 1,16,-1
 423 0 l 1,17,-1
 327 0 l 1,18,-1
 285 297 l 2,19,20
 285 298 285 298 277 350 c 128,-1,21
 269 402 269 402 267 427 c 1,22,-1
 263 427 l 1,23,24
 241 376 241 376 203 297 c 2,25,-1
 56 0 l 1,26,-1
 -41 0 l 1,0,-1
EndSplineSet
EndChar

StartChar: uni019C
Encoding: 412 412 350
Width: 926
GlyphClass: 2
Flags: W
CounterMasks: 1 1c
LayerCount: 2
Fore
SplineSet
77 229 m 2,0,-1
 161 735 l 1,1,-1
 252 735 l 1,2,-1
 167 222 l 2,3,4
 141 62 141 62 241 62 c 0,5,6
 300 62 300 62 349.5 116.5 c 128,-1,7
 399 171 399 171 412 249 c 2,8,-1
 492 735 l 1,9,-1
 584 735 l 1,10,-1
 499 219 l 2,11,12
 486 141 486 141 507 102 c 128,-1,13
 528 63 528 63 575 63 c 0,14,15
 637 63 637 63 683.5 114.5 c 128,-1,16
 730 166 730 166 744 247 c 2,17,-1
 825 735 l 1,18,-1
 916 735 l 1,19,-1
 794 0 l 1,20,-1
 706 0 l 1,21,-1
 719 82 l 1,22,-1
 718 82 l 1,23,24
 696 42 696 42 647.5 12.5 c 128,-1,25
 599 -17 599 -17 542 -17 c 0,26,27
 422 -17 422 -17 410 98 c 1,28,29
 387 54 387 54 333.5 18.5 c 128,-1,30
 280 -17 280 -17 208 -17 c 0,31,32
 36 -17 36 -17 77 229 c 2,0,-1
EndSplineSet
EndChar

StartChar: uni019D
Encoding: 413 413 351
Width: 702
GlyphClass: 2
Flags: W
LayerCount: 2
Fore
SplineSet
170 735 m 1,0,-1
 271 735 l 1,1,-1
 466 243 l 1,2,-1
 505 136 l 1,3,-1
 510 136 l 1,4,5
 516 236 516 236 534 345 c 2,6,-1
 598 735 l 1,7,-1
 689 735 l 1,8,-1
 568 0 l 1,9,-1
 467 0 l 1,10,-1
 274 488 l 1,11,-1
 234 598 l 1,12,-1
 229 598 l 1,13,14
 223 494 223 494 205 389 c 2,15,-1
 139 -12 l 2,16,17
 120 -124 120 -124 67 -177 c 128,-1,18
 14 -230 14 -230 -58 -230 c 0,19,20
 -88 -230 -88 -230 -114 -224 c 1,21,-1
 -101 -147 l 1,22,23
 -90 -150 -90 -150 -62 -150 c 0,24,25
 -13 -150 -13 -150 11 -116 c 128,-1,26
 35 -82 35 -82 47 -11 c 2,27,-1
 170 735 l 1,0,-1
EndSplineSet
EndChar

StartChar: uni019E
Encoding: 414 414 352
Width: 535
GlyphClass: 2
Flags: W
LayerCount: 2
Fore
SplineSet
19 0 m 1,0,-1
 107 531 l 1,1,-1
 190 531 l 1,2,-1
 177 450 l 1,3,-1
 178 450 l 1,4,5
 203 491 203 491 246 519.5 c 128,-1,6
 289 548 289 548 346 548 c 0,7,8
 417 548 417 548 455 500.5 c 128,-1,9
 493 453 493 453 474 342 c 2,10,-1
 380 -227 l 1,11,-1
 295 -227 l 1,12,-1
 387 329 l 2,13,14
 411 472 411 472 315 472 c 0,15,16
 262 472 262 472 215 425.5 c 128,-1,17
 168 379 168 379 157 314 c 2,18,-1
 105 0 l 1,19,-1
 19 0 l 1,0,-1
EndSplineSet
EndChar

StartChar: uni019F
Encoding: 415 415 353
Width: 691
GlyphClass: 2
Flags: W
LayerCount: 2
Fore
SplineSet
57 367 m 0,0,1
 86 540 86 540 186 646 c 128,-1,2
 286 752 286 752 423 752 c 0,3,4
 562 752 562 752 627 646 c 128,-1,5
 692 540 692 540 663 366 c 0,6,7
 634 191 634 191 533.5 87 c 128,-1,8
 433 -17 433 -17 296 -17 c 256,9,10
 159 -17 159 -17 93.5 87.5 c 128,-1,11
 28 192 28 192 57 367 c 0,0,1
560 328 m 1,12,-1
 145 328 l 1,13,14
 132 205 132 205 176 134.5 c 128,-1,15
 220 64 220 64 309 64 c 256,16,17
 398 64 398 64 465.5 133.5 c 128,-1,18
 533 203 533 203 560 328 c 1,12,-1
157 402 m 1,19,-1
 572 402 l 1,20,21
 586 526 586 526 544 599 c 128,-1,22
 502 672 502 672 410 672 c 0,23,24
 320 672 320 672 253 600 c 128,-1,25
 186 528 186 528 157 402 c 1,19,-1
EndSplineSet
EndChar

StartChar: uni01A2
Encoding: 418 418 356
Width: 943
GlyphClass: 2
Flags: W
LayerCount: 2
Fore
SplineSet
56 363 m 0,0,1
 86 542 86 542 187 647 c 128,-1,2
 288 752 288 752 418 752 c 0,3,4
 463 752 463 752 555 732 c 128,-1,5
 647 712 647 712 715 712 c 0,6,7
 789 712 789 712 933 735 c 1,8,-1
 811 0 l 1,9,-1
 720 0 l 1,10,-1
 826 643 l 1,11,12
 772 633 772 633 701 633 c 0,13,14
 651 633 651 633 591 643 c 1,15,-1
 494 57 l 1,16,17
 404 -17 404 -17 291 -17 c 0,18,19
 160 -17 160 -17 94 87.5 c 128,-1,20
 28 192 28 192 56 363 c 0,0,1
151 363 m 0,21,22
 128 224 128 224 172 143.5 c 128,-1,23
 216 63 216 63 304 63 c 0,24,25
 355 63 355 63 408 93 c 1,26,-1
 501 655 l 1,27,28
 495 657 495 657 482 661.5 c 128,-1,29
 469 666 469 666 462 667.5 c 128,-1,30
 455 669 455 669 439.5 671 c 128,-1,31
 424 673 424 673 405 673 c 0,32,33
 318 673 318 673 247 592 c 128,-1,34
 176 511 176 511 151 363 c 0,21,22
EndSplineSet
EndChar

StartChar: uni01A3
Encoding: 419 419 357
Width: 739
GlyphClass: 2
Flags: W
LayerCount: 2
Fore
SplineSet
32 265 m 256,0,1
 54 399 54 399 129 473.5 c 128,-1,2
 204 548 204 548 309 548 c 0,3,4
 352 548 352 548 424.5 533 c 128,-1,5
 497 518 497 518 548 518 c 0,6,7
 631 518 631 518 716 535 c 1,8,-1
 627 0 l 1,9,-1
 542 0 l 1,10,-1
 616 447 l 1,11,12
 586 442 586 442 535 442 c 0,13,14
 482 442 482 442 459 446 c 1,15,-1
 396 65 l 1,16,17
 323 -17 323 -17 215 -17 c 0,18,19
 112 -17 112 -17 61 57 c 128,-1,20
 10 131 10 131 32 265 c 256,0,1
120 265 m 0,21,22
 104 170 104 170 134.5 114.5 c 128,-1,23
 165 59 165 59 228 59 c 0,24,25
 272 59 272 59 318 107 c 1,26,-1
 376 459 l 1,27,28
 318 472 318 472 297 472 c 0,29,30
 229 472 229 472 182 415 c 128,-1,31
 135 358 135 358 120 265 c 0,21,22
EndSplineSet
EndChar

StartChar: uni01A5
Encoding: 421 421 359
Width: 549
GlyphClass: 2
Flags: W
LayerCount: 2
Fore
SplineSet
154 266 m 0,0,1
 138 170 138 170 165 114.5 c 128,-1,2
 192 59 192 59 252 59 c 0,3,4
 313 59 313 59 361 115 c 128,-1,5
 409 171 409 171 424 266 c 0,6,7
 439 359 439 359 411 415.5 c 128,-1,8
 383 472 383 472 321 472 c 0,9,10
 264 472 264 472 216.5 415.5 c 128,-1,11
 169 359 169 359 154 266 c 0,0,1
-13 -227 m 1,12,-1
 125 605 l 2,13,14
 139 688 139 688 191.5 728 c 128,-1,15
 244 768 244 768 312 768 c 0,16,17
 337 768 337 768 385 764 c 1,18,-1
 372 686 l 1,19,20
 343 689 343 689 312 689 c 0,21,22
 269 689 269 689 241 660.5 c 128,-1,23
 213 632 213 632 206 590 c 2,24,-1
 182 444 l 1,25,26
 202 482 202 482 246.5 515 c 128,-1,27
 291 548 291 548 346 548 c 0,28,29
 437 548 437 548 484 471.5 c 128,-1,30
 531 395 531 395 510 266 c 0,31,32
 498 193 498 193 469.5 136 c 128,-1,33
 441 79 441 79 403.5 46.5 c 128,-1,34
 366 14 366 14 328 -1.5 c 128,-1,35
 290 -17 290 -17 252 -17 c 0,36,37
 197 -17 197 -17 165 12.5 c 128,-1,38
 133 42 133 42 124 82 c 1,39,-1
 73 -227 l 1,40,-1
 -13 -227 l 1,12,-1
EndSplineSet
EndChar

StartChar: uni01A6
Encoding: 422 422 360
Width: 609
GlyphClass: 2
Flags: W
LayerCount: 2
Fore
SplineSet
171 304 m 1,0,-1
 323 304 l 2,1,2
 384 304 384 304 428.5 334 c 128,-1,3
 473 364 473 364 484 433 c 0,4,5
 504 551 504 551 366 551 c 2,6,-1
 212 551 l 1,7,-1
 171 304 l 1,0,-1
29 0 m 1,8,-1
 151 735 l 1,9,-1
 242 735 l 1,10,-1
 225 630 l 1,11,-1
 398 630 l 2,12,13
 503 630 503 630 547.5 576 c 128,-1,14
 592 522 592 522 579 440 c 0,15,16
 572 395 572 395 551.5 360.5 c 128,-1,17
 531 326 531 326 501 305 c 128,-1,18
 471 284 471 284 455.5 276.5 c 128,-1,19
 440 269 440 269 414 259 c 1,20,21
 449 237 449 237 460.5 209 c 128,-1,22
 472 181 472 181 477 129 c 0,23,24
 477 125 477 125 480 108 c 128,-1,25
 483 91 483 91 483.5 86 c 128,-1,26
 484 81 484 81 485.5 65 c 128,-1,27
 487 49 487 49 489 42 c 128,-1,28
 491 35 491 35 494 20 c 128,-1,29
 497 5 497 5 499.5 -4.5 c 128,-1,30
 502 -14 502 -14 506 -28 c 128,-1,31
 510 -42 510 -42 514.5 -55 c 128,-1,32
 519 -68 519 -68 524 -82 c 1,33,-1
 423 -82 l 1,34,35
 414 -58 414 -58 405.5 -27.5 c 128,-1,36
 397 3 397 3 394 20.5 c 128,-1,37
 391 38 391 38 385 78.5 c 128,-1,38
 379 119 379 119 378 128 c 0,39,40
 371 179 371 179 352 202.5 c 128,-1,41
 333 226 333 226 289 226 c 2,42,-1
 158 226 l 1,43,-1
 121 0 l 1,44,-1
 29 0 l 1,8,-1
EndSplineSet
EndChar

StartChar: uni01A7
Encoding: 423 423 361
Width: 586
GlyphClass: 2
Flags: W
LayerCount: 2
Fore
SplineSet
19 195 m 0,0,1
 27 241 27 241 49 276 c 128,-1,2
 71 311 71 311 108 335 c 128,-1,3
 145 359 145 359 179 374 c 128,-1,4
 213 389 213 389 261 405 c 0,5,6
 374 440 374 440 410 460 c 0,7,8
 477 498 477 498 487 557 c 0,9,10
 496 610 496 610 461 641 c 128,-1,11
 426 672 426 672 358 672 c 0,12,13
 256 672 256 672 174 582 c 1,14,-1
 100 609 l 1,15,16
 141 669 141 669 212 710.5 c 128,-1,17
 283 752 283 752 369 752 c 0,18,19
 479 752 479 752 537.5 698.5 c 128,-1,20
 596 645 596 645 582 557 c 0,21,22
 578 534 578 534 569 513 c 128,-1,23
 560 492 560 492 551.5 476.5 c 128,-1,24
 543 461 543 461 525.5 445.5 c 128,-1,25
 508 430 508 430 497.5 420 c 128,-1,26
 487 410 487 410 462 398 c 128,-1,27
 437 386 437 386 426.5 381 c 128,-1,28
 416 376 416 376 386 365 c 128,-1,29
 356 354 356 354 348.5 352 c 128,-1,30
 341 350 341 350 307 339 c 0,31,32
 261 324 261 324 237.5 314 c 128,-1,33
 214 304 214 304 182.5 287 c 128,-1,34
 151 270 151 270 134.5 246.5 c 128,-1,35
 118 223 118 223 113 192 c 0,36,37
 103 133 103 133 141 98 c 128,-1,38
 179 63 179 63 249 63 c 0,39,40
 307 63 307 63 364.5 93.5 c 128,-1,41
 422 124 422 124 457 171 c 1,42,-1
 533 142 l 1,43,44
 487 70 487 70 408.5 26.5 c 128,-1,45
 330 -17 330 -17 239 -17 c 0,46,47
 124 -17 124 -17 63 38.5 c 128,-1,48
 2 94 2 94 19 195 c 0,0,1
EndSplineSet
EndChar

StartChar: uni01A8
Encoding: 424 424 362
Width: 461
GlyphClass: 2
Flags: W
LayerCount: 2
Fore
SplineSet
6 136 m 0,0,1
 11 169 11 169 30 195 c 128,-1,2
 49 221 49 221 79.5 239.5 c 128,-1,3
 110 258 110 258 135.5 268.5 c 128,-1,4
 161 279 161 279 199 292 c 0,5,6
 234 302 234 302 251.5 309 c 128,-1,7
 269 316 269 316 294 328.5 c 128,-1,8
 319 341 319 341 332.5 357.5 c 128,-1,9
 346 374 346 374 350 395 c 0,10,11
 356 431 356 431 331.5 451.5 c 128,-1,12
 307 472 307 472 258 472 c 0,13,14
 175 472 175 472 112 392 c 1,15,-1
 61 431 l 1,16,17
 94 480 94 480 151.5 514 c 128,-1,18
 209 548 209 548 272 548 c 0,19,20
 353 548 353 548 400 507 c 128,-1,21
 447 466 447 466 435 395 c 0,22,23
 430 367 430 367 417 344.5 c 128,-1,24
 404 322 404 322 388 306.5 c 128,-1,25
 372 291 372 291 347 277.5 c 128,-1,26
 322 264 322 264 302.5 256.5 c 128,-1,27
 283 249 283 249 255 240 c 0,28,29
 248 237 248 237 224.5 230 c 128,-1,30
 201 223 201 223 192 219.5 c 128,-1,31
 183 216 183 216 164 208.5 c 128,-1,32
 145 201 145 201 136 195 c 128,-1,33
 127 189 127 189 115.5 180 c 128,-1,34
 104 171 104 171 98.5 160 c 128,-1,35
 93 149 93 149 91 136 c 0,36,37
 85 99 85 99 111 79 c 128,-1,38
 137 59 137 59 188 59 c 0,39,40
 232 59 232 59 273.5 81.5 c 128,-1,41
 315 104 315 104 348 145 c 1,42,-1
 404 107 l 1,43,44
 367 52 367 52 307 17.5 c 128,-1,45
 247 -17 247 -17 176 -17 c 0,46,47
 82 -17 82 -17 38.5 27.5 c 128,-1,48
 -5 72 -5 72 6 136 c 0,0,1
EndSplineSet
EndChar

StartChar: uni01A9
Encoding: 425 425 363
Width: 594
GlyphClass: 2
Flags: W
LayerCount: 2
Fore
SplineSet
28 0 m 1,0,-1
 38 63 l 1,1,-1
 351 369 l 1,2,-1
 139 672 l 1,3,-1
 149 735 l 1,4,-1
 609 735 l 1,5,-1
 596 654 l 1,6,-1
 263 654 l 1,7,-1
 456 369 l 1,8,-1
 168 79 l 1,9,-1
 507 79 l 1,10,-1
 494 0 l 1,11,-1
 28 0 l 1,0,-1
EndSplineSet
EndChar

StartChar: uni01AA
Encoding: 426 426 364
Width: 415
GlyphClass: 2
Flags: W
LayerCount: 2
Fore
SplineSet
89 606 m 0,0,1
 83 572 83 572 101 553.5 c 128,-1,2
 119 535 119 535 148 535 c 0,3,4
 199 535 199 535 235 564 c 1,5,6
 243 612 243 612 230 645 c 128,-1,7
 217 678 217 678 174 678 c 0,8,9
 144 678 144 678 119 657.5 c 128,-1,10
 94 637 94 637 89 606 c 0,0,1
5 602 m 0,11,12
 16 670 16 670 67 711 c 128,-1,13
 118 752 118 752 186 752 c 0,14,15
 265 752 265 752 298.5 700 c 128,-1,16
 332 648 332 648 317 558 c 2,17,-1
 215 -59 l 2,18,19
 207 -105 207 -105 220.5 -128 c 128,-1,20
 234 -151 234 -151 274 -151 c 0,21,22
 286 -151 286 -151 334 -145 c 1,23,-1
 321 -223 l 1,24,25
 314 -224 314 -224 299.5 -226 c 128,-1,26
 285 -228 285 -228 271 -229.5 c 128,-1,27
 257 -231 257 -231 245 -231 c 0,28,29
 178 -231 178 -231 146.5 -190 c 128,-1,30
 115 -149 115 -149 129 -65 c 2,31,-1
 220 486 l 1,32,33
 188 460 188 460 123 460 c 0,34,35
 62 460 62 460 28.5 499.5 c 128,-1,36
 -5 539 -5 539 5 602 c 0,11,12
EndSplineSet
EndChar

StartChar: uni01AB
Encoding: 427 427 365
Width: 340
GlyphClass: 2
Flags: W
LayerCount: 2
Fore
SplineSet
45 455 m 1,0,-1
 57 531 l 1,1,-1
 143 531 l 1,2,-1
 170 696 l 1,3,-1
 254 696 l 1,4,-1
 226 531 l 1,5,-1
 353 531 l 1,6,-1
 340 455 l 1,7,-1
 214 455 l 1,8,-1
 165 161 l 2,9,10
 158 117 158 117 171.5 97 c 128,-1,11
 185 77 185 77 221 77 c 0,12,13
 269 77 269 77 298 82 c 1,14,-1
 282 -13 l 2,15,16
 264 -121 264 -121 215.5 -176 c 128,-1,17
 167 -231 167 -231 92 -231 c 0,18,19
 71 -231 71 -231 34 -224 c 1,20,-1
 47 -146 l 1,21,22
 78 -151 78 -151 96 -151 c 0,23,24
 177 -151 177 -151 198 -27 c 2,25,-1
 202 1 l 1,26,27
 164 4 164 4 149 8 c 0,28,29
 60 30 60 30 80 153 c 2,30,-1
 130 455 l 1,31,-1
 45 455 l 1,0,-1
EndSplineSet
EndChar

StartChar: uni01AC
Encoding: 428 428 366
Width: 581
GlyphClass: 2
Flags: W
LayerCount: 2
Fore
SplineSet
26 589 m 0,0,1
 38 664 38 664 93.5 699.5 c 128,-1,2
 149 735 149 735 236 735 c 2,3,-1
 649 735 l 1,4,-1
 635 654 l 1,5,-1
 420 654 l 1,6,-1
 312 0 l 1,7,-1
 219 0 l 1,8,-1
 328 654 l 1,9,-1
 224 654 l 2,10,11
 119 654 119 654 107 582 c 0,12,13
 105 570 105 570 106 543 c 1,14,-1
 24 543 l 1,15,16
 23 572 23 572 26 589 c 0,0,1
EndSplineSet
EndChar

StartChar: uni01AD
Encoding: 429 429 367
Width: 341
GlyphClass: 2
Flags: W
LayerCount: 2
Fore
SplineSet
45 455 m 1,0,-1
 57 531 l 1,1,-1
 143 531 l 1,2,-1
 155 604 l 2,3,4
 168 682 168 682 219 724.5 c 128,-1,5
 270 767 270 767 343 767 c 0,6,7
 358 767 358 767 416 762 c 1,8,-1
 403 684 l 1,9,10
 378 687 378 687 345 687 c 0,11,12
 302 687 302 687 273 662 c 128,-1,13
 244 637 244 637 237 592 c 2,14,-1
 226 531 l 1,15,-1
 354 531 l 1,16,-1
 341 455 l 1,17,-1
 214 455 l 1,18,-1
 165 161 l 2,19,20
 158 117 158 117 171.5 97 c 128,-1,21
 185 77 185 77 222 77 c 2,22,-1
 280 77 l 1,23,-1
 267 0 l 1,24,-1
 198 0 l 2,25,26
 55 0 55 0 80 153 c 2,27,-1
 130 455 l 1,28,-1
 45 455 l 1,0,-1
EndSplineSet
EndChar

StartChar: uni01AE
Encoding: 430 430 368
Width: 540
GlyphClass: 2
Flags: W
LayerCount: 2
Fore
SplineSet
72 654 m 1,0,-1
 86 735 l 1,1,-1
 607 735 l 1,2,-1
 594 654 l 1,3,-1
 379 654 l 1,4,-1
 264 -42 l 2,5,6
 254 -100 254 -100 268.5 -125.5 c 128,-1,7
 283 -151 283 -151 326 -151 c 0,8,9
 336 -151 336 -151 375 -146 c 1,10,-1
 362 -224 l 1,11,12
 305 -231 305 -231 295 -231 c 0,13,14
 140 -231 140 -231 172 -42 c 2,15,-1
 287 654 l 1,16,-1
 72 654 l 1,0,-1
EndSplineSet
EndChar

StartChar: uni01B1
Encoding: 433 433 371
Width: 721
GlyphClass: 2
Flags: W
LayerCount: 2
Fore
SplineSet
46 304 m 0,0,1
 64 413 64 413 131 486 c 128,-1,2
 198 559 198 559 296 595 c 1,3,-1
 306 654 l 1,4,-1
 113 654 l 1,5,-1
 126 735 l 1,6,-1
 391 735 l 1,7,-1
 359 544 l 1,8,9
 266 518 266 518 210.5 453.5 c 128,-1,10
 155 389 155 389 141 304 c 0,11,12
 124 201 124 201 174.5 133 c 128,-1,13
 225 65 225 65 325 65 c 0,14,15
 424 65 424 65 497 133 c 128,-1,16
 570 201 570 201 587 304 c 0,17,18
 601 388 601 388 567.5 453 c 128,-1,19
 534 518 534 518 449 544 c 1,20,-1
 481 735 l 1,21,-1
 745 735 l 1,22,-1
 731 654 l 1,23,-1
 537 654 l 1,24,-1
 527 595 l 1,25,26
 614 561 614 561 657 487 c 128,-1,27
 700 413 700 413 682 304 c 0,28,29
 659 166 659 166 559 74.5 c 128,-1,30
 459 -17 459 -17 311 -17 c 256,31,32
 163 -17 163 -17 93 74.5 c 128,-1,33
 23 166 23 166 46 304 c 0,0,1
EndSplineSet
EndChar

StartChar: uni01B2
Encoding: 434 434 372
Width: 695
GlyphClass: 2
Flags: W
LayerCount: 2
Fore
SplineSet
80 249 m 2,0,-1
 160 735 l 1,1,-1
 252 735 l 1,2,-1
 173 256 l 2,3,4
 155 149 155 149 187 106 c 128,-1,5
 219 63 219 63 294 63 c 0,6,7
 388 63 388 63 470 161.5 c 128,-1,8
 552 260 552 260 578 415 c 0,9,10
 599 539 599 539 576 605.5 c 128,-1,11
 553 672 553 672 494 672 c 0,12,13
 464 672 464 672 424 662 c 1,14,-1
 438 745 l 1,15,16
 482 752 482 752 521 752 c 0,17,18
 619 752 619 752 660 667.5 c 128,-1,19
 701 583 701 583 673 417 c 0,20,21
 653 299 653 299 599 200.5 c 128,-1,22
 545 102 545 102 461.5 42.5 c 128,-1,23
 378 -17 378 -17 281 -17 c 0,24,25
 157 -17 157 -17 107 47.5 c 128,-1,26
 57 112 57 112 80 249 c 2,0,-1
EndSplineSet
EndChar

StartChar: uni01B3
Encoding: 435 435 373
Width: 594
GlyphClass: 2
Flags: W
LayerCount: 2
Fore
SplineSet
72 735 m 1,0,-1
 178 735 l 1,1,-1
 267 497 l 2,2,3
 293 433 293 433 311 379 c 1,4,-1
 313 379 l 1,5,6
 342 422 342 422 396 497 c 2,7,-1
 512 661 l 2,8,9
 575 752 575 752 657 752 c 0,10,11
 676 752 676 752 708 749 c 1,12,-1
 695 669 l 1,13,14
 671 673 671 673 654 673 c 0,15,16
 626 673 626 673 580 613 c 2,17,-1
 345 301 l 1,18,-1
 295 0 l 1,19,-1
 203 0 l 1,20,-1
 253 301 l 1,21,-1
 72 735 l 1,0,-1
EndSplineSet
EndChar

StartChar: uni01B4
Encoding: 436 436 374
Width: 478
GlyphClass: 2
Flags: W
LayerCount: 2
Fore
SplineSet
48 531 m 1,0,-1
 145 531 l 1,1,-1
 193 233 l 2,2,3
 206 146 206 146 210 103 c 1,4,-1
 214 103 l 1,5,6
 251 184 251 184 275 233 c 2,7,-1
 385 463 l 2,8,9
 422 543 422 543 515 543 c 0,10,11
 531 543 531 543 570 538 c 1,12,-1
 557 459 l 1,13,14
 537 464 537 464 518 464 c 0,15,16
 476 464 476 464 457 425 c 2,17,-1
 202 -73 l 2,18,19
 160 -156 160 -156 113.5 -191.5 c 128,-1,20
 67 -227 67 -227 10 -227 c 2,21,-1
 -22 -227 l 1,22,-1
 -10 -151 l 1,23,-1
 8 -151 l 2,24,25
 45 -151 45 -151 75 -126 c 128,-1,26
 105 -101 105 -101 133 -41 c 2,27,-1
 154 0 l 1,28,-1
 48 531 l 1,0,-1
EndSplineSet
EndChar

StartChar: uni01B5
Encoding: 437 437 375
Width: 589
GlyphClass: 2
Flags: W
LayerCount: 2
Fore
SplineSet
101 327 m 1,0,-1
 113 400 l 1,1,-1
 280 400 l 1,2,-1
 494 655 l 1,3,-1
 129 655 l 1,4,-1
 142 735 l 1,5,-1
 620 735 l 1,6,-1
 608 665 l 1,7,-1
 386 400 l 1,8,-1
 504 400 l 1,9,-1
 492 327 l 1,10,-1
 322 327 l 1,11,-1
 115 79 l 1,12,-1
 521 79 l 1,13,-1
 508 0 l 1,14,-1
 -11 0 l 1,15,-1
 1 68 l 1,16,-1
 217 327 l 1,17,-1
 101 327 l 1,0,-1
EndSplineSet
EndChar

StartChar: uni01B6
Encoding: 438 438 376
Width: 454
GlyphClass: 2
Flags: W
LayerCount: 2
Fore
SplineSet
-21 0 m 1,0,-1
 -11 61 l 1,1,-1
 143 234 l 1,2,-1
 53 234 l 1,3,-1
 65 307 l 1,4,-1
 208 307 l 1,5,-1
 338 455 l 1,6,-1
 78 455 l 1,7,-1
 91 531 l 1,8,-1
 461 531 l 1,9,-1
 451 474 l 1,10,-1
 305 307 l 1,11,-1
 392 307 l 1,12,-1
 380 234 l 1,13,-1
 239 234 l 1,14,-1
 101 76 l 1,15,-1
 395 76 l 1,16,-1
 382 0 l 1,17,-1
 -21 0 l 1,0,-1
EndSplineSet
EndChar

StartChar: uni01B7
Encoding: 439 439 377
Width: 671
GlyphClass: 2
Flags: W
LayerCount: 2
Fore
SplineSet
-9 -37 m 1,0,-1
 75 -5 l 1,1,2
 87 -63 87 -63 131 -103.5 c 128,-1,3
 175 -144 175 -144 247 -144 c 0,4,5
 345 -144 345 -144 412.5 -81.5 c 128,-1,6
 480 -19 480 -19 497 84 c 0,7,8
 514 184 514 184 459.5 243 c 128,-1,9
 405 302 405 302 286 302 c 2,10,-1
 203 302 l 1,11,-1
 216 377 l 1,12,-1
 502 654 l 1,13,-1
 133 654 l 1,14,-1
 147 735 l 1,15,-1
 653 735 l 1,16,-1
 644 681 l 1,17,-1
 331 379 l 1,18,-1
 348 379 l 1,19,20
 481 367 481 367 547 289.5 c 128,-1,21
 613 212 613 212 592 84 c 0,22,23
 569 -55 569 -55 469.5 -139 c 128,-1,24
 370 -223 370 -223 235 -223 c 0,25,26
 130 -223 130 -223 68.5 -169.5 c 128,-1,27
 7 -116 7 -116 -9 -37 c 1,0,-1
EndSplineSet
EndChar

StartChar: uni01B8
Encoding: 440 440 378
Width: 671
GlyphClass: 2
Flags: W
LayerCount: 2
Fore
SplineSet
13 84 m 0,0,1
 34 212 34 212 130 293 c 128,-1,2
 226 374 226 374 354 379 c 1,3,-1
 372 379 l 1,4,-1
 158 681 l 1,5,-1
 167 735 l 1,6,-1
 674 735 l 1,7,-1
 660 654 l 1,8,-1
 292 654 l 1,9,-1
 486 377 l 1,10,-1
 474 302 l 1,11,-1
 392 302 l 2,12,13
 271 302 271 302 197.5 243 c 128,-1,14
 124 184 124 184 107 84 c 0,15,16
 90 -19 90 -19 137 -81.5 c 128,-1,17
 184 -144 184 -144 282 -144 c 0,18,19
 354 -144 354 -144 411 -103.5 c 128,-1,20
 468 -63 468 -63 500 -5 c 1,21,-1
 573 -37 l 1,22,23
 531 -116 531 -116 452 -169.5 c 128,-1,24
 373 -223 373 -223 267 -223 c 0,25,26
 132 -223 132 -223 61 -139 c 128,-1,27
 -10 -55 -10 -55 13 84 c 0,0,1
EndSplineSet
EndChar

StartChar: uni01B9
Encoding: 441 441 379
Width: 526
GlyphClass: 2
Flags: W
LayerCount: 2
Fore
SplineSet
-4 12 m 0,0,1
 12 109 12 109 84.5 175 c 128,-1,2
 157 241 157 241 252 244 c 2,3,-1
 273 245 l 1,4,-1
 101 474 l 1,5,-1
 110 531 l 1,6,-1
 503 531 l 1,7,-1
 490 455 l 1,8,-1
 222 455 l 1,9,-1
 378 239 l 1,10,-1
 368 177 l 1,11,-1
 286 177 l 2,12,13
 201 177 201 177 148.5 131.5 c 128,-1,14
 96 86 96 86 83 12 c 0,15,16
 71 -60 71 -60 103 -107 c 128,-1,17
 135 -154 135 -154 201 -154 c 0,18,19
 251 -154 251 -154 292.5 -123.5 c 128,-1,20
 334 -93 334 -93 361 -44 c 1,21,-1
 432 -66 l 1,22,23
 396 -140 396 -140 333 -185.5 c 128,-1,24
 270 -231 270 -231 186 -231 c 0,25,26
 83 -231 83 -231 31 -162 c 128,-1,27
 -21 -93 -21 -93 -4 12 c 0,0,1
EndSplineSet
EndChar

StartChar: uni01BA
Encoding: 442 442 380
Width: 423
GlyphClass: 2
Flags: W
LayerCount: 2
Fore
SplineSet
-20 -66 m 0,0,1
 -14 -30 -14 -30 16.5 1 c 128,-1,2
 47 32 47 32 86.5 53 c 128,-1,3
 126 74 126 74 165.5 94 c 128,-1,4
 205 114 205 114 234 137 c 128,-1,5
 263 160 263 160 267 185 c 0,6,7
 271 212 271 212 239.5 230 c 128,-1,8
 208 248 208 248 144 248 c 2,9,-1
 110 248 l 1,10,-1
 119 298 l 1,11,-1
 301 455 l 1,12,-1
 70 455 l 1,13,-1
 83 531 l 1,14,-1
 423 531 l 1,15,-1
 413 471 l 1,16,-1
 214 301 l 1,17,-1
 235 300 l 2,18,19
 298 297 298 297 330 269 c 128,-1,20
 362 241 362 241 353 189 c 0,21,22
 347 150 347 150 316.5 118 c 128,-1,23
 286 86 286 86 247 64 c 128,-1,24
 208 42 208 42 168.5 23 c 128,-1,25
 129 4 129 4 100.5 -17.5 c 128,-1,26
 72 -39 72 -39 69 -61 c 0,27,28
 60 -118 60 -118 137 -118 c 0,29,30
 175 -118 175 -118 236 -106 c 1,31,-1
 223 -183 l 1,32,33
 157 -194 157 -194 112 -194 c 0,34,35
 44 -194 44 -194 7 -160.5 c 128,-1,36
 -30 -127 -30 -127 -20 -66 c 0,0,1
EndSplineSet
EndChar

StartChar: uni01BB
Encoding: 443 443 381
Width: 536
GlyphClass: 2
Flags: W
LayerCount: 2
Fore
SplineSet
107 320 m 1,0,-1
 119 393 l 1,1,-1
 332 393 l 1,2,3
 413 467 413 467 427 548 c 0,4,5
 437 610 437 610 408.5 642.5 c 128,-1,6
 380 675 380 675 327 675 c 0,7,8
 224 675 224 675 164 540 c 1,9,-1
 89 564 l 1,10,11
 121 647 121 647 187 699.5 c 128,-1,12
 253 752 253 752 344 752 c 0,13,14
 438 752 438 752 487 697 c 128,-1,15
 536 642 536 642 520 544 c 0,16,17
 507 465 507 465 439 393 c 1,18,-1
 526 393 l 1,19,-1
 514 320 l 1,20,-1
 365 320 l 1,21,22
 355 311 355 311 326 286.5 c 128,-1,23
 297 262 297 262 288 254.5 c 128,-1,24
 279 247 279 247 255.5 226 c 128,-1,25
 232 205 232 205 222.5 195.5 c 128,-1,26
 213 186 213 186 195 168 c 128,-1,27
 177 150 177 150 168 137.5 c 128,-1,28
 159 125 159 125 147 109 c 128,-1,29
 135 93 135 93 126 77 c 1,30,-1
 441 77 l 1,31,-1
 428 0 l 1,32,-1
 2 0 l 1,33,34
 14 75 14 75 76 150 c 128,-1,35
 138 225 138 225 247 320 c 1,36,-1
 107 320 l 1,0,-1
EndSplineSet
EndChar

StartChar: uni01BC
Encoding: 444 444 382
Width: 550
GlyphClass: 2
Flags: W
LayerCount: 2
Fore
SplineSet
15 124 m 1,0,-1
 95 152 l 1,1,2
 122 60 122 60 225 60 c 0,3,4
 292 60 292 60 338 103 c 128,-1,5
 384 146 384 146 396 218 c 0,6,7
 407 283 407 283 368.5 330.5 c 128,-1,8
 330 378 330 378 236 378 c 0,9,10
 177 378 177 378 119 365 c 1,11,-1
 202 655 l 1,12,-1
 153 655 l 1,13,-1
 167 735 l 1,14,-1
 540 735 l 1,15,-1
 526 654 l 1,16,-1
 287 654 l 1,17,-1
 231 453 l 1,18,19
 247 455 247 455 283 455 c 0,20,21
 396 455 396 455 452 388.5 c 128,-1,22
 508 322 508 322 491 219 c 0,23,24
 474 118 474 118 401.5 50.5 c 128,-1,25
 329 -17 329 -17 216 -17 c 0,26,27
 132 -17 132 -17 80.5 23 c 128,-1,28
 29 63 29 63 15 124 c 1,0,-1
EndSplineSet
EndChar

StartChar: uni01BD
Encoding: 445 445 383
Width: 440
GlyphClass: 2
Flags: W
LayerCount: 2
Fore
SplineSet
9 94 m 1,0,-1
 83 127 l 1,1,2
 92 96 92 96 116 77.5 c 128,-1,3
 140 59 140 59 171 59 c 0,4,5
 219 59 219 59 249.5 86.5 c 128,-1,6
 280 114 280 114 287 157 c 0,7,8
 294 202 294 202 264.5 234 c 128,-1,9
 235 266 235 266 178 266 c 0,10,11
 130 266 130 266 86 258 c 1,12,-1
 147 455 l 1,13,-1
 110 455 l 1,14,-1
 123 531 l 1,15,-1
 404 531 l 1,16,-1
 392 455 l 1,17,-1
 222 455 l 1,18,-1
 186 342 l 1,19,-1
 210 342 l 2,20,21
 296 342 296 342 341 290.5 c 128,-1,22
 386 239 386 239 373 161 c 0,23,24
 361 86 361 86 305.5 34.5 c 128,-1,25
 250 -17 250 -17 158 -17 c 0,26,27
 45 -17 45 -17 9 94 c 1,0,-1
EndSplineSet
EndChar

StartChar: uni01BE
Encoding: 446 446 384
Width: 409
GlyphClass: 2
Flags: W
LayerCount: 2
Fore
SplineSet
57 455 m 1,0,-1
 69 531 l 1,1,-1
 141 531 l 1,2,-1
 168 692 l 1,3,-1
 253 692 l 1,4,-1
 226 531 l 1,5,-1
 345 531 l 1,6,-1
 333 455 l 1,7,-1
 213 455 l 1,8,-1
 204 399 l 2,9,10
 198 364 198 364 212 337.5 c 128,-1,11
 226 311 226 311 250 293 c 128,-1,12
 274 275 274 275 298 255.5 c 128,-1,13
 322 236 322 236 335 205.5 c 128,-1,14
 348 175 348 175 342 135 c 0,15,16
 331 69 331 69 283 26 c 128,-1,17
 235 -17 235 -17 151 -17 c 0,18,19
 39 -17 39 -17 2 89 c 1,20,-1
 68 124 l 1,21,22
 101 59 101 59 161 59 c 0,23,24
 202 59 202 59 227 78.5 c 128,-1,25
 252 98 252 98 258 132 c 0,26,27
 262 157 262 157 246.5 177.5 c 128,-1,28
 231 198 231 198 207 215 c 128,-1,29
 183 232 183 232 159.5 253 c 128,-1,30
 136 274 136 274 123 308.5 c 128,-1,31
 110 343 110 343 118 389 c 2,32,-1
 129 455 l 1,33,-1
 57 455 l 1,0,-1
EndSplineSet
EndChar

StartChar: uni01BF
Encoding: 447 447 385
Width: 540
GlyphClass: 2
Flags: W
LayerCount: 2
Fore
SplineSet
-13 -227 m 1,0,-1
 113 531 l 1,1,-1
 197 531 l 1,2,-1
 190 486 l 1,3,4
 265 548 265 548 348 548 c 0,5,6
 443 548 443 548 486.5 489.5 c 128,-1,7
 530 431 530 431 513 333 c 0,8,9
 467 54 467 54 111 1 c 1,10,-1
 73 -227 l 1,11,-1
 -13 -227 l 1,0,-1
123 75 m 1,12,13
 245 92 245 92 327 155 c 128,-1,14
 409 218 409 218 426 323 c 0,15,16
 438 398 438 398 409 435 c 128,-1,17
 380 472 380 472 324 472 c 0,18,19
 284 472 284 472 243.5 450 c 128,-1,20
 203 428 203 428 176 399 c 1,21,-1
 123 75 l 1,12,13
EndSplineSet
EndChar

StartChar: uni01C0
Encoding: 448 448 386
Width: 225
GlyphClass: 2
Flags: W
LayerCount: 2
Fore
SplineSet
-9 -210 m 1,0,-1
 161 817 l 1,1,-1
 241 817 l 1,2,-1
 71 -210 l 1,3,-1
 -9 -210 l 1,0,-1
EndSplineSet
EndChar

StartChar: uni01C1
Encoding: 449 449 387
Width: 396
GlyphClass: 2
Flags: W
LayerCount: 2
Fore
SplineSet
-9 -210 m 1,0,-1
 161 817 l 1,1,-1
 241 817 l 1,2,-1
 71 -210 l 1,3,-1
 -9 -210 l 1,0,-1
163 -210 m 1,4,-1
 333 817 l 1,5,-1
 414 817 l 1,6,-1
 244 -210 l 1,7,-1
 163 -210 l 1,4,-1
EndSplineSet
EndChar

StartChar: uni01C2
Encoding: 450 450 388
Width: 318
GlyphClass: 2
Flags: W
LayerCount: 2
Fore
SplineSet
39 418 m 1,0,-1
 49 482 l 1,1,-1
 153 482 l 1,2,-1
 209 817 l 1,3,-1
 290 817 l 1,4,-1
 234 482 l 1,5,-1
 335 482 l 1,6,-1
 325 418 l 1,7,-1
 224 418 l 1,8,-1
 199 266 l 1,9,-1
 300 266 l 1,10,-1
 289 202 l 1,11,-1
 188 202 l 1,12,-1
 120 -210 l 1,13,-1
 38 -210 l 1,14,-1
 107 202 l 1,15,-1
 3 202 l 1,16,-1
 13 266 l 1,17,-1
 117 266 l 1,18,-1
 142 418 l 1,19,-1
 39 418 l 1,0,-1
EndSplineSet
EndChar

StartChar: uni01DD
Encoding: 477 477 415
Width: 522
GlyphClass: 2
Flags: W
LayerCount: 2
Fore
SplineSet
30 253 m 0,0,1
 35 282 35 282 37 296 c 1,2,-1
 403 296 l 1,3,4
 415 368 415 368 384 420.5 c 128,-1,5
 353 473 353 473 283 473 c 0,6,7
 236 473 236 473 197 449 c 128,-1,8
 158 425 158 425 134 388 c 1,9,-1
 67 413 l 1,10,11
 101 471 101 471 159 509.5 c 128,-1,12
 217 548 217 548 298 548 c 0,13,14
 404 548 404 548 454 468.5 c 128,-1,15
 504 389 504 389 483 261 c 0,16,17
 462 135 462 135 385 59 c 128,-1,18
 308 -17 308 -17 208 -17 c 256,19,20
 108 -17 108 -17 59 58.5 c 128,-1,21
 10 134 10 134 30 253 c 0,0,1
111 229 m 1,22,23
 99 157 99 157 127.5 107 c 128,-1,24
 156 57 156 57 220 57 c 0,25,26
 282 57 282 57 329 107 c 128,-1,27
 376 157 376 157 392 229 c 1,28,-1
 111 229 l 1,22,23
EndSplineSet
EndChar

StartChar: uni01E4
Encoding: 484 484 422
Width: 703
GlyphClass: 2
Flags: W
LayerCount: 2
Fore
SplineSet
57 367 m 0,0,1
 85 535 85 535 186.5 643.5 c 128,-1,2
 288 752 288 752 439 752 c 0,3,4
 532 752 532 752 586.5 701.5 c 128,-1,5
 641 651 641 651 659 590 c 1,6,-1
 575 563 l 1,7,8
 564 586 564 586 556 599 c 128,-1,9
 548 612 548 612 530 632 c 128,-1,10
 512 652 512 652 486 662 c 128,-1,11
 460 672 460 672 426 672 c 0,12,13
 321 672 321 672 248 589 c 128,-1,14
 175 506 175 506 152 367 c 0,15,16
 129 227 129 227 174.5 145.5 c 128,-1,17
 220 64 220 64 319 64 c 0,18,19
 379 64 379 64 428 93.5 c 128,-1,20
 477 123 477 123 506 177 c 1,21,-1
 318 177 l 1,22,-1
 328 239 l 1,23,-1
 534 239 l 1,24,25
 540 259 540 259 543 277 c 2,26,-1
 551 323 l 1,27,-1
 355 323 l 1,28,-1
 368 401 l 1,29,-1
 652 401 l 1,30,-1
 625 239 l 1,31,-1
 690 239 l 1,32,-1
 680 177 l 1,33,-1
 615 177 l 1,34,-1
 586 0 l 1,35,-1
 520 0 l 1,36,-1
 528 96 l 1,37,38
 451 -17 451 -17 306 -17 c 0,39,40
 167 -17 167 -17 97.5 86.5 c 128,-1,41
 28 190 28 190 57 367 c 0,0,1
EndSplineSet
EndChar

StartChar: uni01E5
Encoding: 485 485 423
Width: 542
GlyphClass: 2
Flags: W
LayerCount: 2
Fore
SplineSet
36 283 m 0,0,1
 55 400 55 400 126 474 c 128,-1,2
 197 548 197 548 289 548 c 0,3,4
 343 548 343 548 373.5 518.5 c 128,-1,5
 404 489 404 489 412 453 c 1,6,-1
 425 531 l 1,7,-1
 509 531 l 1,8,-1
 434 80 l 2,9,10
 424 22 424 22 412 -21 c 1,11,-1
 481 -21 l 1,12,-1
 472 -78 l 1,13,-1
 392 -78 l 1,14,15
 358 -153 358 -153 303.5 -192 c 128,-1,16
 249 -231 249 -231 166 -231 c 0,17,18
 44 -231 44 -231 -9 -132 c 1,19,-1
 55 -91 l 1,20,21
 95 -157 95 -157 180 -157 c 0,22,23
 258 -157 258 -157 303 -78 c 1,24,-1
 130 -78 l 1,25,-1
 140 -21 l 1,26,-1
 328 -21 l 1,27,28
 340 15 340 15 347 60 c 2,29,-1
 357 121 l 1,30,31
 333 82 333 82 291.5 56.5 c 128,-1,32
 250 31 250 31 203 31 c 0,33,34
 112 31 112 31 64.5 99.5 c 128,-1,35
 17 168 17 168 36 283 c 0,0,1
123 283 m 0,36,37
 109 199 109 199 139 153 c 128,-1,38
 169 107 169 107 223 107 c 0,39,40
 280 107 280 107 325 156.5 c 128,-1,41
 370 206 370 206 384 291 c 0,42,43
 398 373 398 373 369.5 422.5 c 128,-1,44
 341 472 341 472 286 472 c 0,45,46
 226 472 226 472 181.5 418.5 c 128,-1,47
 137 365 137 365 123 283 c 0,36,37
EndSplineSet
EndChar

StartChar: uni01EF
Encoding: 495 495 433
Width: 526
GlyphClass: 2
Flags: W
LayerCount: 2
Fore
SplineSet
155 787 m 1,0,-1
 241 787 l 1,1,-1
 321 677 l 1,2,-1
 439 787 l 1,3,-1
 523 787 l 1,4,-1
 350 627 l 1,5,-1
 274 627 l 1,6,-1
 155 787 l 1,0,-1
-22 -66 m 1,7,-1
 57 -44 l 1,8,9
 69 -93 69 -93 100 -123.5 c 128,-1,10
 131 -154 131 -154 181 -154 c 0,11,12
 247 -154 247 -154 294.5 -107 c 128,-1,13
 342 -60 342 -60 355 15 c 0,14,15
 367 87 367 87 328.5 132 c 128,-1,16
 290 177 290 177 206 177 c 2,17,-1
 123 177 l 1,18,-1
 133 239 l 1,19,-1
 362 455 l 1,20,-1
 93 455 l 1,21,-1
 106 531 l 1,22,-1
 499 531 l 1,23,-1
 490 474 l 1,24,-1
 242 244 l 1,25,-1
 284 241 l 1,26,27
 367 227 367 227 411.5 166 c 128,-1,28
 456 105 456 105 441 15 c 0,29,30
 423 -93 423 -93 348.5 -162 c 128,-1,31
 274 -231 274 -231 171 -231 c 0,32,33
 88 -231 88 -231 39 -185.5 c 128,-1,34
 -10 -140 -10 -140 -22 -66 c 1,7,-1
EndSplineSet
EndChar

StartChar: uni01F6
Encoding: 502 502 440
Width: 979
GlyphClass: 2
Flags: W
LayerCount: 2
Fore
SplineSet
39 0 m 1,0,-1
 161 735 l 1,1,-1
 253 735 l 1,2,-1
 201 418 l 1,3,-1
 520 418 l 1,4,-1
 573 735 l 1,5,-1
 667 735 l 1,6,-1
 578 196 l 2,7,8
 566 126 566 126 594 92.5 c 128,-1,9
 622 59 622 59 675 59 c 0,10,11
 724 59 724 59 763.5 94 c 128,-1,12
 803 129 803 129 812 188 c 2,13,-1
 869 531 l 1,14,-1
 959 531 l 1,15,-1
 901 177 l 2,16,17
 885 83 885 83 817 33 c 128,-1,18
 749 -17 749 -17 662 -17 c 0,19,20
 604 -17 604 -17 561.5 0 c 128,-1,21
 519 17 519 17 494 62.5 c 128,-1,22
 469 108 469 108 480 177 c 2,23,-1
 507 338 l 1,24,-1
 188 338 l 1,25,-1
 132 0 l 1,26,-1
 39 0 l 1,0,-1
EndSplineSet
EndChar

StartChar: uni01F7
Encoding: 503 503 441
Width: 622
GlyphClass: 2
Flags: W
LayerCount: 2
Fore
SplineSet
3 -219 m 1,0,-1
 161 735 l 1,1,-1
 253 735 l 1,2,-1
 241 660 l 1,3,4
 350 752 350 752 450 752 c 0,5,6
 553 752 553 752 595 683.5 c 128,-1,7
 637 615 637 615 617 493 c 0,8,9
 605 419 605 419 566.5 350 c 128,-1,10
 528 281 528 281 478 229.5 c 128,-1,11
 428 178 428 178 364.5 132 c 128,-1,12
 301 86 301 86 245.5 56 c 128,-1,13
 190 26 190 26 132 2 c 1,14,-1
 95 -219 l 1,15,-1
 3 -219 l 1,0,-1
147 91 m 1,16,17
 190 111 190 111 232 136 c 128,-1,18
 274 161 274 161 324.5 199.5 c 128,-1,19
 375 238 375 238 413.5 280 c 128,-1,20
 452 322 452 322 483 377 c 128,-1,21
 514 432 514 432 523 489 c 0,22,23
 537 575 537 575 511 624 c 128,-1,24
 485 673 485 673 418 673 c 0,25,26
 372 673 372 673 317.5 640.5 c 128,-1,27
 263 608 263 608 225 565 c 1,28,-1
 147 91 l 1,16,17
EndSplineSet
EndChar

StartChar: Aringacute
Encoding: 506 506 444
Width: 631
GlyphClass: 2
Flags: W
LayerCount: 2
Fore
SplineSet
-51 0 m 1,0,-1
 338 735 l 1,1,-1
 445 735 l 1,2,-1
 588 0 l 1,3,-1
 489 0 l 1,4,-1
 455 201 l 1,5,-1
 151 201 l 1,6,-1
 48 0 l 1,7,-1
 -51 0 l 1,0,-1
276 868 m 0,8,9
 285 921 285 921 330 959 c 0,10,11
 361 984 361 984 397 992 c 1,12,-1
 491 1113 l 1,13,-1
 603 1113 l 1,14,-1
 476 990 l 1,15,16
 505 981 505 981 523 958 c 0,17,18
 555 920 555 920 547 868 c 0,19,20
 538 814 538 814 493 777 c 128,-1,21
 448 740 448 740 390 740 c 0,22,23
 334 740 334 740 300.5 777 c 128,-1,24
 267 814 267 814 276 868 c 0,8,9
189 276 m 1,25,-1
 441 276 l 1,26,-1
 402 505 l 2,27,28
 399 522 399 522 391 573 c 128,-1,29
 383 624 383 624 380 647 c 1,30,-1
 374 647 l 1,31,32
 364 626 364 626 339 576 c 128,-1,33
 314 526 314 526 304 505 c 2,34,-1
 189 276 l 1,25,-1
339 868 m 256,35,36
 334 838 334 838 351 817.5 c 128,-1,37
 368 797 368 797 400 797 c 256,38,39
 431 797 431 797 454.5 816.5 c 128,-1,40
 478 836 478 836 483 868 c 0,41,42
 488 898 488 898 472 919 c 128,-1,43
 456 940 456 940 423 940 c 256,44,45
 391 940 391 940 367.5 919 c 128,-1,46
 344 898 344 898 339 868 c 256,35,36
EndSplineSet
EndChar

StartChar: aringacute
Encoding: 507 507 445
Width: 515
GlyphClass: 2
Flags: W
LayerCount: 2
Fore
SplineSet
11 133 m 0,0,1
 36 282 36 282 254 317 c 0,2,3
 349 332 349 332 379 342 c 1,4,-1
 384 372 l 2,5,6
 392 418 392 418 366 447 c 128,-1,7
 340 476 340 476 285 476 c 0,8,9
 241 476 241 476 197 454.5 c 128,-1,10
 153 433 153 433 120 397 c 1,11,-1
 74 445 l 1,12,13
 120 492 120 492 178 520 c 128,-1,14
 236 548 236 548 295 548 c 0,15,16
 498 548 498 548 463 336 c 2,17,-1
 407 0 l 1,18,-1
 326 0 l 1,19,-1
 339 80 l 1,20,21
 317 40 317 40 268.5 11.5 c 128,-1,22
 220 -17 220 -17 160 -17 c 0,23,24
 78 -17 78 -17 39 24.5 c 128,-1,25
 0 66 0 66 11 133 c 0,0,1
196 726 m 0,26,27
 205 779 205 779 248 817 c 0,28,29
 278 842 278 842 313 850 c 1,30,-1
 405 971 l 1,31,-1
 513 971 l 1,32,-1
 390 848 l 1,33,34
 417 839 417 839 434 816 c 0,35,36
 464 778 464 778 456 726 c 0,37,38
 447 672 447 672 403.5 635 c 128,-1,39
 360 598 360 598 305 598 c 0,40,41
 251 598 251 598 219 635 c 128,-1,42
 187 672 187 672 196 726 c 0,26,27
96 141 m 0,43,44
 90 106 90 106 114 82 c 128,-1,45
 138 58 138 58 184 58 c 0,46,47
 246 58 246 58 296 100.5 c 128,-1,48
 346 143 346 143 357 209 c 2,49,-1
 368 275 l 1,50,51
 329 265 329 265 246 251 c 0,52,53
 110 228 110 228 96 141 c 0,43,44
256 726 m 256,54,55
 251 696 251 696 267.5 675.5 c 128,-1,56
 284 655 284 655 315 655 c 256,57,58
 345 655 345 655 368 675 c 128,-1,59
 391 695 391 695 396 726 c 0,60,61
 401 756 401 756 385 777.5 c 128,-1,62
 369 799 369 799 339 799 c 0,63,64
 308 799 308 799 284.5 777.5 c 128,-1,65
 261 756 261 756 256 726 c 256,54,55
EndSplineSet
EndChar

StartChar: uni021C
Encoding: 540 540 478
Width: 556
GlyphClass: 2
Flags: W
LayerCount: 2
Fore
SplineSet
-28 -125 m 1,0,1
 43 -141 43 -141 112 -141 c 0,2,3
 218 -141 218 -141 293 -83 c 128,-1,4
 368 -25 368 -25 385 74 c 0,5,6
 394 129 394 129 384.5 170 c 128,-1,7
 375 211 375 211 351.5 232 c 128,-1,8
 328 253 328 253 300.5 263 c 128,-1,9
 273 273 273 273 241 273 c 0,10,11
 197 273 197 273 135 250 c 1,12,-1
 149 332 l 1,13,-1
 250 355 l 2,14,15
 330 375 330 375 383 422 c 128,-1,16
 436 469 436 469 447 535 c 0,17,18
 457 597 457 597 424.5 634 c 128,-1,19
 392 671 392 671 322 671 c 0,20,21
 228 671 228 671 164 576 c 1,22,-1
 96 611 l 1,23,24
 134 674 134 674 197 713 c 128,-1,25
 260 752 260 752 335 752 c 0,26,27
 455 752 455 752 507.5 695.5 c 128,-1,28
 560 639 560 639 545 544 c 0,29,30
 531 460 531 460 475.5 402.5 c 128,-1,31
 420 345 420 345 355 321 c 1,32,-1
 355 320 l 1,33,34
 419 302 419 302 458 240 c 128,-1,35
 497 178 497 178 479 73 c 0,36,37
 456 -63 456 -63 351.5 -143 c 128,-1,38
 247 -223 247 -223 99 -223 c 0,39,40
 29 -223 29 -223 -42 -210 c 1,41,-1
 -28 -125 l 1,0,1
EndSplineSet
EndChar

StartChar: uni021D
Encoding: 541 541 479
Width: 423
GlyphClass: 2
Flags: W
LayerCount: 2
Fore
SplineSet
-34 -143 m 1,0,1
 15 -154 15 -154 67 -154 c 0,2,3
 137 -154 137 -154 187.5 -112 c 128,-1,4
 238 -70 238 -70 251 7 c 0,5,6
 262 76 262 76 233.5 115.5 c 128,-1,7
 205 155 205 155 158 155 c 0,8,9
 128 155 128 155 87 142 c 1,10,-1
 99 217 l 1,11,-1
 168 232 l 2,12,13
 224 246 224 246 259.5 284 c 128,-1,14
 295 322 295 322 303 369 c 0,15,16
 310 414 310 414 292.5 443 c 128,-1,17
 275 472 275 472 230 472 c 0,18,19
 166 472 166 472 125 402 c 1,20,-1
 64 432 l 1,21,22
 89 483 89 483 137.5 515.5 c 128,-1,23
 186 548 186 548 247 548 c 0,24,25
 328 548 328 548 364.5 498 c 128,-1,26
 401 448 401 448 390 381 c 0,27,28
 369 253 369 253 252 200 c 1,29,30
 295 185 295 185 322.5 135.5 c 128,-1,31
 350 86 350 86 338 10 c 0,32,33
 319 -105 319 -105 244 -167.5 c 128,-1,34
 169 -230 169 -230 56 -230 c 0,35,36
 14 -230 14 -230 -47 -222 c 1,37,-1
 -34 -143 l 1,0,1
EndSplineSet
EndChar

StartChar: uni0220
Encoding: 544 544 482
Width: 683
GlyphClass: 2
Flags: W
LayerCount: 2
Fore
SplineSet
39 0 m 1,0,-1
 161 735 l 1,1,-1
 249 735 l 1,2,-1
 235 646 l 1,3,-1
 236 646 l 1,4,5
 256 669 256 669 282 689.5 c 128,-1,6
 308 710 308 710 359 731 c 128,-1,7
 410 752 410 752 463 752 c 0,8,9
 677 752 677 752 634 495 c 2,10,-1
 514 -227 l 1,11,-1
 422 -227 l 1,12,-1
 540 486 l 2,13,14
 556 580 556 580 530 626 c 128,-1,15
 504 672 504 672 428 672 c 0,16,17
 359 672 359 672 291 612 c 128,-1,18
 223 552 223 552 211 481 c 2,19,-1
 132 0 l 1,20,-1
 39 0 l 1,0,-1
EndSplineSet
EndChar

StartChar: uni0221
Encoding: 545 545 483
Width: 709
GlyphClass: 2
Flags: W
LayerCount: 2
Fore
SplineSet
426 -100 m 1,0,1
 429 -126 429 -126 449.5 -143 c 128,-1,2
 470 -160 470 -160 501 -160 c 0,3,4
 527 -160 527 -160 544 -146.5 c 128,-1,5
 561 -133 561 -133 565 -110 c 256,6,7
 569 -87 569 -87 555.5 -71 c 128,-1,8
 542 -55 542 -55 516 -55 c 0,9,10
 468 -55 468 -55 426 -100 c 1,0,1
33 266 m 0,11,12
 55 397 55 397 127.5 472.5 c 128,-1,13
 200 548 200 548 292 548 c 0,14,15
 344 548 344 548 377 518.5 c 128,-1,16
 410 489 410 489 419 450 c 1,17,-1
 471 762 l 1,18,-1
 556 762 l 1,19,-1
 437 39 l 2,20,21
 428 -13 428 -13 429 -21 c 1,22,23
 473 17 473 17 531 17 c 0,24,25
 593 17 593 17 622 -19 c 128,-1,26
 651 -55 651 -55 643 -107 c 0,27,28
 634 -162 634 -162 591.5 -196.5 c 128,-1,29
 549 -231 549 -231 490 -231 c 0,30,31
 414 -231 414 -231 379 -167 c 1,32,33
 359 -194 359 -194 342 -227 c 1,34,-1
 276 -203 l 1,35,36
 311 -136 311 -136 344 -97 c 1,37,38
 336 -65 336 -65 349 13 c 2,39,-1
 361 86 l 1,40,41
 338 44 338 44 294.5 13.5 c 128,-1,42
 251 -17 251 -17 198 -17 c 0,43,44
 160 -17 160 -17 126 -1.5 c 128,-1,45
 92 14 92 14 66 46.5 c 128,-1,46
 40 79 40 79 30.5 136 c 128,-1,47
 21 193 21 193 33 266 c 0,11,12
120 266 m 0,48,49
 104 171 104 171 133 115 c 128,-1,50
 162 59 162 59 222 59 c 0,51,52
 278 59 278 59 326.5 115 c 128,-1,53
 375 171 375 171 391 266 c 0,54,55
 406 359 406 359 377 415.5 c 128,-1,56
 348 472 348 472 291 472 c 0,57,58
 228 472 228 472 182 416 c 128,-1,59
 136 360 136 360 120 266 c 0,48,49
EndSplineSet
EndChar

StartChar: uni0222
Encoding: 546 546 484
Width: 671
GlyphClass: 2
Flags: W
LayerCount: 2
Fore
SplineSet
30 239 m 0,0,1
 42 312 42 312 94 372.5 c 128,-1,2
 146 433 146 433 221 466 c 1,3,4
 104 518 104 518 127 654 c 0,5,6
 135 701 135 701 152 735 c 1,7,-1
 241 735 l 1,8,9
 230 698 230 698 224 660 c 0,10,11
 213 595 213 595 252.5 548 c 128,-1,12
 292 501 292 501 372 501 c 0,13,14
 448 501 448 501 505 547 c 128,-1,15
 562 593 562 593 573 660 c 0,16,17
 577 684 577 684 578 735 c 1,18,-1
 669 735 l 1,19,20
 674 703 674 703 666 654 c 0,21,22
 643 516 643 516 508 466 c 1,23,24
 575 436 575 436 606.5 374.5 c 128,-1,25
 638 313 638 313 626 239 c 0,26,27
 618 192 618 192 593.5 147.5 c 128,-1,28
 569 103 569 103 528 65.5 c 128,-1,29
 487 28 487 28 424.5 5.5 c 128,-1,30
 362 -17 362 -17 286 -17 c 0,31,32
 212 -17 212 -17 156 5.5 c 128,-1,33
 100 28 100 28 72 65.5 c 128,-1,34
 44 103 44 103 33 147.5 c 128,-1,35
 22 192 22 192 30 239 c 0,0,1
126 239 m 0,36,37
 113 160 113 160 161 111.5 c 128,-1,38
 209 63 209 63 300 63 c 0,39,40
 387 63 387 63 452 111 c 128,-1,41
 517 159 517 159 531 239 c 0,42,43
 544 316 544 316 494 368 c 128,-1,44
 444 420 444 420 359 420 c 256,45,46
 274 420 274 420 206.5 369.5 c 128,-1,47
 139 319 139 319 126 239 c 0,36,37
EndSplineSet
EndChar

StartChar: uni0223
Encoding: 547 547 485
Width: 523
GlyphClass: 2
Flags: W
LayerCount: 2
Fore
SplineSet
29 243 m 0,0,1
 43 329 43 329 90.5 392 c 128,-1,2
 138 455 138 455 197 478 c 1,3,4
 98 524 98 524 121 666 c 0,5,6
 129 715 129 715 144 749 c 1,7,-1
 228 749 l 1,8,9
 212 697 212 697 208 671 c 0,10,11
 197 604 197 604 218.5 558 c 128,-1,12
 240 512 240 512 299 512 c 0,13,14
 355 512 355 512 394 557.5 c 128,-1,15
 433 603 433 603 444 671 c 0,16,17
 448 697 448 697 449 749 c 1,18,-1
 532 749 l 1,19,20
 536 716 536 716 528 666 c 0,21,22
 516 592 516 592 479.5 544.5 c 128,-1,23
 443 497 443 497 390 478 c 1,24,25
 442 457 442 457 468.5 393 c 128,-1,26
 495 329 495 329 481 243 c 0,27,28
 470 175 470 175 438.5 118.5 c 128,-1,29
 407 62 407 62 347.5 22.5 c 128,-1,30
 288 -17 288 -17 212 -17 c 0,31,32
 101 -17 101 -17 56 59 c 128,-1,33
 11 135 11 135 29 243 c 0,0,1
116 243 m 0,34,35
 103 162 103 162 133 111 c 128,-1,36
 163 60 163 60 224 60 c 0,37,38
 287 60 287 60 334 109.5 c 128,-1,39
 381 159 381 159 395 243 c 0,40,41
 409 325 409 325 378 379.5 c 128,-1,42
 347 434 347 434 286 434 c 0,43,44
 228 434 228 434 179 380.5 c 128,-1,45
 130 327 130 327 116 243 c 0,34,35
EndSplineSet
EndChar

StartChar: uni0224
Encoding: 548 548 486
Width: 592
GlyphClass: 2
Flags: W
LayerCount: 2
Fore
SplineSet
-11 0 m 1,0,-1
 1 68 l 1,1,-1
 494 655 l 1,2,-1
 129 655 l 1,3,-1
 142 735 l 1,4,-1
 620 735 l 1,5,-1
 608 665 l 1,6,-1
 115 79 l 1,7,-1
 407 79 l 2,8,9
 490 79 490 79 522.5 35.5 c 128,-1,10
 555 -8 555 -8 540 -98 c 0,11,12
 529 -163 529 -163 492 -227 c 1,13,-1
 409 -227 l 1,14,15
 447 -164 447 -164 456 -109 c 0,16,17
 474 0 474 0 369 0 c 2,18,-1
 -11 0 l 1,0,-1
EndSplineSet
EndChar

StartChar: uni0225
Encoding: 549 549 487
Width: 454
GlyphClass: 2
Flags: W
LayerCount: 2
Fore
SplineSet
-21 0 m 1,0,-1
 -11 61 l 1,1,-1
 338 458 l 1,2,-1
 79 458 l 1,3,-1
 92 534 l 1,4,-1
 461 534 l 1,5,-1
 452 477 l 1,6,-1
 101 76 l 1,7,-1
 318 76 l 2,8,9
 391 76 391 76 420.5 34.5 c 128,-1,10
 450 -7 450 -7 435 -95 c 0,11,12
 421 -178 421 -178 394 -227 c 1,13,-1
 319 -227 l 1,14,15
 346 -176 346 -176 357 -110 c 0,16,17
 366 -54 366 -54 350.5 -27 c 128,-1,18
 335 0 335 0 285 0 c 2,19,-1
 -21 0 l 1,0,-1
EndSplineSet
EndChar

StartChar: uni0234
Encoding: 564 564 502
Width: 385
GlyphClass: 2
Flags: W
LayerCount: 2
Fore
SplineSet
110 -99 m 1,0,1
 113 -125 113 -125 133.5 -142.5 c 128,-1,2
 154 -160 154 -160 183 -160 c 0,3,4
 209 -160 209 -160 226.5 -146 c 128,-1,5
 244 -132 244 -132 248 -110 c 0,6,7
 252 -86 252 -86 238.5 -70.5 c 128,-1,8
 225 -55 225 -55 200 -55 c 0,9,10
 151 -55 151 -55 110 -99 c 1,0,1
-41 -203 m 1,11,12
 0 -126 0 -126 25 -97 c 1,13,14
 17 -63 17 -63 32 21 c 2,15,-1
 154 762 l 1,16,-1
 239 762 l 1,17,-1
 119 40 l 2,18,19
 111 -8 111 -8 111 -22 c 1,20,21
 155 17 155 17 213 17 c 0,22,23
 275 17 275 17 305 -19 c 128,-1,24
 335 -55 335 -55 326 -107 c 0,25,26
 317 -162 317 -162 275 -196.5 c 128,-1,27
 233 -231 233 -231 173 -231 c 0,28,29
 97 -231 97 -231 62 -167 c 1,30,31
 38 -200 38 -200 25 -227 c 1,32,-1
 -41 -203 l 1,11,12
EndSplineSet
EndChar

StartChar: uni0235
Encoding: 565 565 503
Width: 691
GlyphClass: 2
Flags: W
LayerCount: 2
Fore
SplineSet
415 -99 m 1,0,1
 417 -125 417 -125 438 -142.5 c 128,-1,2
 459 -160 459 -160 488 -160 c 0,3,4
 515 -160 515 -160 532.5 -146 c 128,-1,5
 550 -132 550 -132 553 -110 c 256,6,7
 557 -88 557 -88 544 -71.5 c 128,-1,8
 531 -55 531 -55 503 -55 c 0,9,10
 456 -55 456 -55 415 -99 c 1,0,1
19 0 m 1,11,-1
 107 531 l 1,12,-1
 190 531 l 1,13,-1
 176 448 l 1,14,-1
 177 448 l 1,15,16
 195 482 195 482 240.5 515 c 128,-1,17
 286 548 286 548 346 548 c 0,18,19
 417 548 417 548 455 500.5 c 128,-1,20
 493 453 493 453 474 342 c 2,21,-1
 424 39 l 2,22,23
 415 -13 415 -13 416 -21 c 1,24,25
 459 17 459 17 518 17 c 0,26,27
 580 17 580 17 610.5 -18.5 c 128,-1,28
 641 -54 641 -54 632 -107 c 0,29,30
 623 -162 623 -162 580 -196.5 c 128,-1,31
 537 -231 537 -231 477 -231 c 0,32,33
 402 -231 402 -231 367 -167 c 1,34,35
 340 -206 340 -206 329 -227 c 1,36,-1
 263 -203 l 1,37,38
 293 -143 293 -143 331 -97 c 1,39,40
 323 -62 323 -62 337 25 c 2,41,-1
 387 329 l 2,42,43
 411 472 411 472 315 472 c 0,44,45
 262 472 262 472 215 425.5 c 128,-1,46
 168 379 168 379 157 314 c 2,47,-1
 105 0 l 1,48,-1
 19 0 l 1,11,-1
EndSplineSet
EndChar

StartChar: uni0236
Encoding: 566 566 504
Width: 412
GlyphClass: 2
Flags: W
LayerCount: 2
Fore
SplineSet
136 -99 m 1,0,1
 139 -124 139 -124 159.5 -142 c 128,-1,2
 180 -160 180 -160 209 -160 c 0,3,4
 237 -160 237 -160 254 -145.5 c 128,-1,5
 271 -131 271 -131 274 -110 c 0,6,7
 278 -88 278 -88 266 -71.5 c 128,-1,8
 254 -55 254 -55 226 -55 c 0,9,10
 177 -55 177 -55 136 -99 c 1,0,1
45 455 m 1,11,-1
 57 531 l 1,12,-1
 143 531 l 1,13,-1
 170 696 l 1,14,-1
 254 696 l 1,15,-1
 226 531 l 1,16,-1
 354 531 l 1,17,-1
 341 455 l 1,18,-1
 214 455 l 1,19,-1
 145 37 l 2,20,21
 137 -13 137 -13 137 -21 c 1,22,23
 180 17 180 17 240 17 c 0,24,25
 302 17 302 17 331.5 -19 c 128,-1,26
 361 -55 361 -55 353 -107 c 0,27,28
 344 -162 344 -162 301 -196.5 c 128,-1,29
 258 -231 258 -231 199 -231 c 0,30,31
 124 -231 124 -231 88 -167 c 1,32,33
 60 -205 60 -205 51 -227 c 1,34,-1
 -15 -203 l 1,35,36
 27 -124 27 -124 52 -97 c 1,37,38
 44 -63 44 -63 59 26 c 2,39,-1
 130 455 l 1,40,-1
 45 455 l 1,11,-1
EndSplineSet
EndChar

StartChar: uni0237
Encoding: 567 567 505
Width: 252
GlyphClass: 2
Flags: W
LayerCount: 2
Fore
SplineSet
-82 -148 m 1,0,-1
 -62 -148 l 2,1,2
 16 -148 16 -148 35 -33 c 2,3,-1
 129 531 l 1,4,-1
 214 531 l 1,5,-1
 120 -38 l 2,6,7
 105 -130 105 -130 58 -177 c 128,-1,8
 11 -224 11 -224 -61 -224 c 2,9,-1
 -95 -224 l 1,10,-1
 -82 -148 l 1,0,-1
EndSplineSet
EndChar

StartChar: uni0238
Encoding: 568 568 506
Width: 868
GlyphClass: 2
Flags: W
LayerCount: 2
Fore
SplineSet
33 266 m 0,0,1
 55 398 55 398 128 473 c 128,-1,2
 201 548 201 548 292 548 c 0,3,4
 344 548 344 548 377 518.5 c 128,-1,5
 410 489 410 489 419 450 c 1,6,-1
 471 762 l 1,7,-1
 556 762 l 1,8,-1
 505 449 l 1,9,10
 526 486 526 486 569.5 517 c 128,-1,11
 613 548 613 548 665 548 c 0,12,13
 758 548 758 548 804.5 473 c 128,-1,14
 851 398 851 398 829 266 c 0,15,16
 817 192 817 192 788.5 135 c 128,-1,17
 760 78 760 78 723.5 46 c 128,-1,18
 687 14 687 14 648 -1.5 c 128,-1,19
 609 -17 609 -17 572 -17 c 0,20,21
 520 -17 520 -17 486.5 13 c 128,-1,22
 453 43 453 43 443 85 c 1,23,-1
 429 0 l 1,24,-1
 347 0 l 1,25,-1
 361 86 l 1,26,27
 336 41 336 41 292 12 c 128,-1,28
 248 -17 248 -17 198 -17 c 0,29,30
 160 -17 160 -17 127 -2 c 128,-1,31
 94 13 94 13 67.5 44.5 c 128,-1,32
 41 76 41 76 31 133.5 c 128,-1,33
 21 191 21 191 33 266 c 0,0,1
120 266 m 0,34,35
 104 169 104 169 133 114 c 128,-1,36
 162 59 162 59 222 59 c 0,37,38
 281 59 281 59 328 115 c 128,-1,39
 375 171 375 171 390 260 c 2,40,-1
 391 267 l 2,41,42
 406 355 406 355 377 413.5 c 128,-1,43
 348 472 348 472 290 472 c 0,44,45
 229 472 229 472 182.5 417 c 128,-1,46
 136 362 136 362 120 266 c 0,34,35
471 259 m 2,47,48
 457 173 457 173 485 116 c 128,-1,49
 513 59 513 59 572 59 c 0,50,51
 633 59 633 59 680 113.5 c 128,-1,52
 727 168 727 168 743 266 c 0,53,54
 759 360 759 360 730.5 416 c 128,-1,55
 702 472 702 472 641 472 c 0,56,57
 582 472 582 472 534.5 413.5 c 128,-1,58
 487 355 487 355 473 267 c 2,59,-1
 471 259 l 2,47,48
EndSplineSet
EndChar

StartChar: uni0239
Encoding: 569 569 507
Width: 870
GlyphClass: 2
Flags: W
LayerCount: 2
Fore
SplineSet
33 266 m 0,0,1
 54 395 54 395 127 471.5 c 128,-1,2
 200 548 200 548 292 548 c 0,3,4
 340 548 340 548 373 520.5 c 128,-1,5
 406 493 406 493 420 446 c 1,6,-1
 435 531 l 1,7,-1
 518 531 l 1,8,-1
 504 447 l 1,9,10
 531 490 531 490 575.5 519 c 128,-1,11
 620 548 620 548 670 548 c 0,12,13
 762 548 762 548 807 471.5 c 128,-1,14
 852 395 852 395 831 266 c 0,15,16
 808 127 808 127 734.5 55 c 128,-1,17
 661 -17 661 -17 575 -17 c 0,18,19
 522 -17 522 -17 487.5 12.5 c 128,-1,20
 453 42 453 42 444 84 c 1,21,-1
 393 -227 l 1,22,-1
 307 -227 l 1,23,-1
 359 83 l 1,24,25
 334 40 334 40 291 11.5 c 128,-1,26
 248 -17 248 -17 198 -17 c 0,27,28
 112 -17 112 -17 61 55 c 128,-1,29
 10 127 10 127 33 266 c 0,0,1
119 266 m 0,30,31
 103 170 103 170 132.5 114.5 c 128,-1,32
 162 59 162 59 222 59 c 256,33,34
 282 59 282 59 328 115 c 128,-1,35
 374 171 374 171 390 266 c 2,36,-1
 391 272 l 2,37,38
 405 359 405 359 377.5 415.5 c 128,-1,39
 350 472 350 472 291 472 c 0,40,41
 225 472 225 472 179.5 414 c 128,-1,42
 134 356 134 356 119 266 c 0,30,31
474 266 m 2,43,44
 458 171 458 171 487 115 c 128,-1,45
 516 59 516 59 577 59 c 0,46,47
 637 59 637 59 683 114.5 c 128,-1,48
 729 170 729 170 745 266 c 0,49,50
 760 357 760 357 734.5 414.5 c 128,-1,51
 709 472 709 472 645 472 c 0,52,53
 588 472 588 472 539 416 c 128,-1,54
 490 360 490 360 476 273 c 2,55,-1
 474 266 l 2,43,44
EndSplineSet
EndChar

StartChar: uni023A
Encoding: 570 570 508
Width: 631
GlyphClass: 2
Flags: W
LayerCount: 2
Fore
SplineSet
-51 0 m 1,0,-1
 338 735 l 1,1,-1
 445 735 l 1,2,-1
 474 584 l 1,3,-1
 623 774 l 1,4,-1
 693 774 l 1,5,-1
 489 512 l 1,6,-1
 588 0 l 1,7,-1
 489 0 l 1,8,-1
 455 201 l 1,9,-1
 245 201 l 1,10,-1
 16 -92 l 1,11,-1
 -54 -92 l 1,12,-1
 18 0 l 1,13,-1
 -51 0 l 1,0,-1
189 277 m 1,14,-1
 234 277 l 1,15,-1
 405 494 l 1,16,-1
 402 505 l 2,17,18
 395 543 395 543 380 647 c 1,19,-1
 374 647 l 1,20,21
 347 590 347 590 304 505 c 2,22,-1
 189 277 l 1,14,-1
305 277 m 1,23,-1
 442 277 l 1,24,-1
 417 421 l 1,25,-1
 305 277 l 1,23,-1
152 201 m 1,26,-1
 109 116 l 1,27,-1
 175 201 l 1,28,-1
 152 201 l 1,26,-1
EndSplineSet
EndChar

StartChar: uni023B
Encoding: 571 571 509
Width: 636
GlyphClass: 2
Flags: W
LayerCount: 2
Fore
SplineSet
57 367 m 0,0,1
 86 544 86 544 189.5 648 c 128,-1,2
 293 752 293 752 432 752 c 0,3,4
 486 752 486 752 532 730 c 1,5,-1
 565 792 l 1,6,-1
 634 792 l 1,7,-1
 582 696 l 1,8,9
 627 651 627 651 646 586 c 1,10,-1
 563 559 l 1,11,12
 553 586 553 586 536 609 c 1,13,-1
 250 77 l 1,14,15
 282 64 282 64 317 64 c 0,16,17
 380 64 380 64 432 100.5 c 128,-1,18
 484 137 484 137 515 189 c 1,19,-1
 594 162 l 1,20,21
 575 130 575 130 549 101 c 128,-1,22
 523 72 523 72 487.5 44 c 128,-1,23
 452 16 452 16 404.5 -0.5 c 128,-1,24
 357 -17 357 -17 305 -17 c 0,25,26
 256 -17 256 -17 207 0 c 1,27,-1
 173 -66 l 1,28,-1
 105 -66 l 1,29,-1
 154 27 l 1,30,31
 89 73 89 73 63 160.5 c 128,-1,32
 37 248 37 248 57 367 c 0,0,1
199 111 m 1,33,-1
 491 653 l 1,34,35
 459 672 459 672 418 672 c 0,36,37
 318 672 318 672 246 588 c 128,-1,38
 174 504 174 504 152 367 c 0,39,40
 122 191 122 191 199 111 c 1,33,-1
EndSplineSet
EndChar

StartChar: uni023C
Encoding: 572 572 510
Width: 478
GlyphClass: 2
Flags: W
LayerCount: 2
Fore
SplineSet
33 266 m 0,0,1
 53 388 53 388 127 468 c 128,-1,2
 201 548 201 548 309 548 c 0,3,4
 346 548 346 548 374 534 c 1,5,-1
 408 600 l 1,6,-1
 468 600 l 1,7,-1
 419 503 l 1,8,9
 460 468 460 468 467 404 c 1,10,-1
 393 381 l 1,11,12
 384 409 384 409 379 422 c 1,13,-1
 197 63 l 1,14,15
 208 59 208 59 226 59 c 0,16,17
 272 59 272 59 307.5 88.5 c 128,-1,18
 343 118 343 118 365 156 c 1,19,-1
 434 133 l 1,20,21
 405 75 405 75 347 29 c 128,-1,22
 289 -17 289 -17 214 -17 c 0,23,24
 183 -17 183 -17 159 -11 c 1,25,-1
 133 -63 l 1,26,-1
 72 -63 l 1,27,-1
 109 11 l 1,28,29
 56 44 56 44 37.5 113 c 128,-1,30
 19 182 19 182 33 266 c 0,0,1
152 94 m 1,31,-1
 336 460 l 1,32,33
 320 471 320 471 294 471 c 0,34,35
 228 471 228 471 181.5 413 c 128,-1,36
 135 355 135 355 120 266 c 0,37,38
 99 144 99 144 152 94 c 1,31,-1
EndSplineSet
EndChar

StartChar: uni023D
Encoding: 573 573 511
Width: 527
GlyphClass: 2
Flags: W
LayerCount: 2
Fore
SplineSet
27 380 m 1,0,-1
 39 453 l 1,1,-1
 120 453 l 1,2,-1
 167 735 l 1,3,-1
 259 735 l 1,4,-1
 212 453 l 1,5,-1
 403 453 l 1,6,-1
 391 380 l 1,7,-1
 200 380 l 1,8,-1
 150 79 l 1,9,-1
 488 79 l 1,10,-1
 475 0 l 1,11,-1
 45 0 l 1,12,-1
 108 380 l 1,13,-1
 27 380 l 1,0,-1
EndSplineSet
EndChar

StartChar: uni023E
Encoding: 574 574 512
Width: 541
GlyphClass: 2
Flags: W
LayerCount: 2
Fore
SplineSet
378 655 m 1,0,-1
 350 483 l 1,1,-1
 471 655 l 1,2,-1
 378 655 l 1,0,-1
72 655 m 1,3,-1
 86 735 l 1,4,-1
 528 735 l 1,5,-1
 567 792 l 1,6,-1
 634 792 l 1,7,-1
 594 735 l 1,8,-1
 606 735 l 1,9,-1
 593 655 l 1,10,-1
 538 655 l 1,11,-1
 329 360 l 1,12,-1
 270 0 l 1,13,-1
 178 0 l 1,14,-1
 209 189 l 1,15,-1
 46 -41 l 1,16,-1
 -19 -41 l 1,17,-1
 229 312 l 1,18,-1
 286 655 l 1,19,-1
 72 655 l 1,3,-1
EndSplineSet
EndChar

StartChar: uni023F
Encoding: 575 575 513
Width: 461
GlyphClass: 2
Flags: W
LayerCount: 2
Fore
SplineSet
0 107 m 1,0,-1
 67 145 l 1,1,2
 106 58 106 58 199 58 c 0,3,4
 250 58 250 58 284 78.5 c 128,-1,5
 318 99 318 99 324 135 c 0,6,7
 326 148 326 148 323.5 159 c 128,-1,8
 321 170 321 170 312.5 179 c 128,-1,9
 304 188 304 188 297 194.5 c 128,-1,10
 290 201 290 201 273.5 208.5 c 128,-1,11
 257 216 257 216 247.5 219.5 c 128,-1,12
 238 223 238 223 217.5 230.5 c 128,-1,13
 197 238 197 238 188 241 c 0,14,15
 123 266 123 266 88.5 300.5 c 128,-1,16
 54 335 54 335 64 397 c 0,17,18
 76 467 76 467 136 507.5 c 128,-1,19
 196 548 196 548 278 548 c 0,20,21
 342 548 342 548 387.5 514.5 c 128,-1,22
 433 481 433 481 452 431 c 1,23,-1
 388 392 l 1,24,25
 351 473 351 473 267 473 c 0,26,27
 217 473 217 473 186.5 452 c 128,-1,28
 156 431 156 431 150 395 c 0,29,30
 144 356 144 356 174 333.5 c 128,-1,31
 204 311 204 311 258 295 c 0,32,33
 292 284 292 284 317.5 272 c 128,-1,34
 343 260 343 260 368 241.5 c 128,-1,35
 393 223 393 223 404 196 c 128,-1,36
 415 169 415 169 409 135 c 0,37,38
 398 70 398 70 339 26.5 c 128,-1,39
 280 -17 280 -17 186 -17 c 0,40,41
 127 -17 127 -17 92 4 c 1,42,43
 101 -86 101 -86 112 -114 c 0,44,45
 134 -166 134 -166 194 -166 c 0,46,47
 223 -166 223 -166 245 -162 c 1,48,-1
 235 -225 l 1,49,50
 190 -231 190 -231 180 -231 c 0,51,52
 142 -231 142 -231 114 -217 c 128,-1,53
 86 -203 86 -203 70.5 -184 c 128,-1,54
 55 -165 55 -165 45.5 -130 c 128,-1,55
 36 -95 36 -95 33 -70.5 c 128,-1,56
 30 -46 30 -46 27 -5 c 0,57,58
 23 70 23 70 0 107 c 1,0,-1
EndSplineSet
EndChar

StartChar: uni0240
Encoding: 576 576 514
Width: 454
GlyphClass: 2
Flags: W
LayerCount: 2
Fore
SplineSet
-21 0 m 1,0,-1
 -11 61 l 1,1,-1
 338 455 l 1,2,-1
 78 455 l 1,3,-1
 91 531 l 1,4,-1
 461 531 l 1,5,-1
 451 474 l 1,6,-1
 87 60 l 1,7,8
 121 54 121 54 146.5 29.5 c 128,-1,9
 172 5 172 5 188.5 -25 c 128,-1,10
 205 -55 205 -55 220.5 -85 c 128,-1,11
 236 -115 236 -115 257.5 -134.5 c 128,-1,12
 279 -154 279 -154 307 -154 c 0,13,14
 333 -154 333 -154 359 -149 c 1,15,-1
 347 -224 l 1,16,17
 316 -231 316 -231 289 -231 c 0,18,19
 249 -231 249 -231 219 -208.5 c 128,-1,20
 189 -186 189 -186 170.5 -152.5 c 128,-1,21
 152 -119 152 -119 134 -85.5 c 128,-1,22
 116 -52 116 -52 90 -27.5 c 128,-1,23
 64 -3 64 -3 31 0 c 2,24,-1
 -21 0 l 1,0,-1
EndSplineSet
EndChar

StartChar: uni0241
Encoding: 577 577 515
Width: 548
GlyphClass: 2
Flags: W
LayerCount: 2
Fore
SplineSet
105 585 m 1,0,1
 141 661 141 661 208.5 706.5 c 128,-1,2
 276 752 276 752 355 752 c 0,3,4
 447 752 447 752 496 696.5 c 128,-1,5
 545 641 545 641 530 550 c 0,6,7
 523 505 523 505 499 469 c 128,-1,8
 475 433 475 433 445.5 407 c 128,-1,9
 416 381 416 381 386.5 356.5 c 128,-1,10
 357 332 357 332 334.5 299 c 128,-1,11
 312 266 312 266 305 225 c 2,12,-1
 268 0 l 1,13,-1
 176 0 l 1,14,-1
 214 232 l 2,15,16
 222 278 222 278 246 316 c 128,-1,17
 270 354 270 354 299 380 c 128,-1,18
 328 406 328 406 357 430 c 128,-1,19
 386 454 386 454 408.5 485 c 128,-1,20
 431 516 431 516 437 553 c 0,21,22
 446 607 446 607 420 640 c 128,-1,23
 394 673 394 673 343 673 c 0,24,25
 294 673 294 673 252.5 642 c 128,-1,26
 211 611 211 611 182 559 c 1,27,-1
 105 585 l 1,0,1
EndSplineSet
EndChar

StartChar: uni0250
Encoding: 592 592 516
Width: 516
GlyphClass: 2
Flags: W
LayerCount: 2
Fore
SplineSet
143 256 m 1,0,1
 176 265 176 265 265 279 c 0,2,3
 400 302 400 302 415 390 c 0,4,5
 421 425 421 425 397 448.5 c 128,-1,6
 373 472 373 472 327 472 c 0,7,8
 265 472 265 472 215 430 c 128,-1,9
 165 388 165 388 154 324 c 2,10,-1
 143 256 l 1,0,1
47 195 m 2,11,-1
 103 531 l 1,12,-1
 186 531 l 1,13,-1
 172 451 l 1,14,15
 193 489 193 489 242.5 518.5 c 128,-1,16
 292 548 292 548 351 548 c 0,17,18
 432 548 432 548 472.5 506.5 c 128,-1,19
 513 465 513 465 502 397 c 0,20,21
 477 249 477 249 253 214 c 0,22,23
 173 200 173 200 131 188 c 0,24,25
 130 184 130 184 128.5 172 c 128,-1,26
 127 160 127 160 126 156 c 0,27,28
 119 112 119 112 146 83.5 c 128,-1,29
 173 55 173 55 226 55 c 0,30,31
 269 55 269 55 313 76 c 128,-1,32
 357 97 357 97 392 134 c 1,33,-1
 438 86 l 1,34,35
 391 38 391 38 332.5 10.5 c 128,-1,36
 274 -17 274 -17 215 -17 c 0,37,38
 12 -17 12 -17 47 195 c 2,11,-1
EndSplineSet
EndChar

StartChar: uni0251
Encoding: 593 593 517
Width: 542
GlyphClass: 2
Flags: W
LayerCount: 2
Fore
SplineSet
120 266 m 0,0,1
 104 169 104 169 133.5 114 c 128,-1,2
 163 59 163 59 222 59 c 0,3,4
 273 59 273 59 323 112 c 128,-1,5
 373 165 373 165 390 266 c 0,6,7
 405 359 405 359 376 415.5 c 128,-1,8
 347 472 347 472 290 472 c 0,9,10
 228 472 228 472 182 416.5 c 128,-1,11
 136 361 136 361 120 266 c 0,0,1
33 266 m 0,12,13
 55 396 55 396 127.5 472 c 128,-1,14
 200 548 200 548 291 548 c 0,15,16
 342 548 342 548 376.5 517 c 128,-1,17
 411 486 411 486 418 450 c 1,18,-1
 432 531 l 1,19,-1
 516 531 l 1,20,-1
 428 0 l 1,21,-1
 346 0 l 1,22,-1
 360 87 l 1,23,24
 336 44 336 44 292 13.5 c 128,-1,25
 248 -17 248 -17 198 -17 c 0,26,27
 113 -17 113 -17 61.5 54 c 128,-1,28
 10 125 10 125 33 266 c 0,12,13
EndSplineSet
EndChar

StartChar: uni0252
Encoding: 594 594 518
Width: 542
GlyphClass: 2
Flags: W
LayerCount: 2
Fore
SplineSet
20 0 m 1,0,-1
 108 531 l 1,1,-1
 193 531 l 1,2,-1
 179 448 l 1,3,4
 200 486 200 486 244.5 517 c 128,-1,5
 289 548 289 548 341 548 c 0,6,7
 434 548 434 548 479.5 472.5 c 128,-1,8
 525 397 525 397 503 266 c 0,9,10
 491 192 491 192 462.5 135 c 128,-1,11
 434 78 434 78 398 46 c 128,-1,12
 362 14 362 14 323.5 -1.5 c 128,-1,13
 285 -17 285 -17 247 -17 c 0,14,15
 195 -17 195 -17 161 13.5 c 128,-1,16
 127 44 127 44 118 86 c 1,17,-1
 104 0 l 1,18,-1
 20 0 l 1,0,-1
148 266 m 0,19,20
 132 171 132 171 161.5 115 c 128,-1,21
 191 59 191 59 247 59 c 0,22,23
 309 59 309 59 355.5 114.5 c 128,-1,24
 402 170 402 170 418 266 c 0,25,26
 434 361 434 361 406 416.5 c 128,-1,27
 378 472 378 472 316 472 c 0,28,29
 259 472 259 472 211 415.5 c 128,-1,30
 163 359 163 359 148 266 c 0,19,20
EndSplineSet
EndChar

StartChar: uni0253
Encoding: 595 595 519
Width: 546
GlyphClass: 2
Flags: W
LayerCount: 2
Fore
SplineSet
150 265 m 0,0,1
 134 171 134 171 163.5 115 c 128,-1,2
 193 59 193 59 250 59 c 0,3,4
 312 59 312 59 359 114.5 c 128,-1,5
 406 170 406 170 422 266 c 0,6,7
 437 358 437 358 409.5 415 c 128,-1,8
 382 472 382 472 319 472 c 0,9,10
 260 472 260 472 212.5 414.5 c 128,-1,11
 165 357 165 357 150 265 c 0,0,1
23 0 m 1,12,-1
 116 559 l 2,13,14
 133 661 133 661 189 717 c 128,-1,15
 245 773 245 773 329 773 c 0,16,17
 370 773 370 773 433 760 c 1,18,-1
 417 682 l 1,19,20
 352 693 352 693 329 693 c 0,21,22
 276 693 276 693 242.5 653.5 c 128,-1,23
 209 614 209 614 198 543 c 2,24,-1
 182 448 l 1,25,26
 208 490 208 490 250.5 519 c 128,-1,27
 293 548 293 548 343 548 c 0,28,29
 439 548 439 548 483.5 471 c 128,-1,30
 528 394 528 394 507 266 c 0,31,32
 485 131 485 131 411 57 c 128,-1,33
 337 -17 337 -17 250 -17 c 0,34,35
 195 -17 195 -17 163 14 c 128,-1,36
 131 45 131 45 121 86 c 1,37,-1
 107 0 l 1,38,-1
 23 0 l 1,12,-1
EndSplineSet
EndChar

StartChar: uni0254
Encoding: 596 596 520
Width: 477
GlyphClass: 2
Flags: W
LayerCount: 2
Fore
SplineSet
-5 133 m 1,0,-1
 70 156 l 1,1,2
 78 118 78 118 106.5 88.5 c 128,-1,3
 135 59 135 59 177 59 c 0,4,5
 239 59 239 59 288 114.5 c 128,-1,6
 337 170 337 170 352 265 c 0,7,8
 367 354 367 354 339 413 c 128,-1,9
 311 472 311 472 245 472 c 0,10,11
 207 472 207 472 173 445.5 c 128,-1,12
 139 419 139 419 121 381 c 1,13,-1
 53 404 l 1,14,15
 78 461 78 461 134 504.5 c 128,-1,16
 190 548 190 548 260 548 c 0,17,18
 363 548 363 548 411.5 470 c 128,-1,19
 460 392 460 392 439 265 c 0,20,21
 418 136 418 136 343 59.5 c 128,-1,22
 268 -17 268 -17 166 -17 c 0,23,24
 95 -17 95 -17 49 27.5 c 128,-1,25
 3 72 3 72 -5 133 c 1,0,-1
EndSplineSet
EndChar

StartChar: uni0255
Encoding: 597 597 521
Width: 478
GlyphClass: 2
Flags: W
LayerCount: 2
Fore
SplineSet
195 65 m 1,0,1
 223 53 223 53 256 53 c 0,2,3
 292 53 292 53 316.5 68.5 c 128,-1,4
 341 84 341 84 344 104 c 0,5,6
 350 141 350 141 303 141 c 0,7,8
 271 141 271 141 241.5 118 c 128,-1,9
 212 95 212 95 195 65 c 1,0,1
33 271 m 0,10,11
 52 388 52 388 126 468 c 128,-1,12
 200 548 200 548 307 548 c 0,13,14
 378 548 378 548 418 503.5 c 128,-1,15
 458 459 458 459 464 404 c 1,16,-1
 389 381 l 1,17,18
 383 417 383 417 358.5 444.5 c 128,-1,19
 334 472 334 472 294 472 c 0,20,21
 229 472 229 472 182 413.5 c 128,-1,22
 135 355 135 355 120 266 c 0,23,24
 103 164 103 164 143 107 c 1,25,26
 173 151 173 151 217.5 181 c 128,-1,27
 262 211 262 211 317 211 c 0,28,29
 373 211 373 211 401.5 179.5 c 128,-1,30
 430 148 430 148 423 104 c 0,31,32
 414 50 414 50 365.5 16.5 c 128,-1,33
 317 -17 317 -17 241 -17 c 0,34,35
 191 -17 191 -17 155 -6 c 1,36,37
 137 -39 137 -39 128 -65 c 1,38,-1
 57 -46 l 1,39,40
 66 -20 66 -20 93 27 c 1,41,42
 5 104 5 104 33 271 c 0,10,11
EndSplineSet
EndChar

StartChar: uni0256
Encoding: 598 598 522
Width: 553
GlyphClass: 2
Flags: W
LayerCount: 2
Fore
SplineSet
33 266 m 0,0,1
 55 398 55 398 128 473 c 128,-1,2
 201 548 201 548 292 548 c 0,3,4
 344 548 344 548 377 518.5 c 128,-1,5
 410 489 410 489 419 450 c 1,6,-1
 471 762 l 1,7,-1
 556 762 l 1,8,-1
 425 -34 l 2,9,10
 415 -96 415 -96 429 -123.5 c 128,-1,11
 443 -151 443 -151 483 -151 c 0,12,13
 516 -151 516 -151 549 -145 c 1,14,-1
 536 -223 l 1,15,16
 476 -231 476 -231 455 -231 c 0,17,18
 308 -231 308 -231 340 -39 c 2,19,-1
 361 86 l 1,20,21
 336 41 336 41 292 12 c 128,-1,22
 248 -17 248 -17 198 -17 c 0,23,24
 160 -17 160 -17 126 -1.5 c 128,-1,25
 92 14 92 14 66 46.5 c 128,-1,26
 40 79 40 79 30.5 136 c 128,-1,27
 21 193 21 193 33 266 c 0,0,1
120 266 m 256,28,29
 104 171 104 171 132.5 115 c 128,-1,30
 161 59 161 59 222 59 c 0,31,32
 279 59 279 59 327 115 c 128,-1,33
 375 171 375 171 391 266 c 0,34,35
 406 359 406 359 377 415.5 c 128,-1,36
 348 472 348 472 291 472 c 0,37,38
 230 472 230 472 183 416.5 c 128,-1,39
 136 361 136 361 120 266 c 256,28,29
EndSplineSet
EndChar

StartChar: uni0257
Encoding: 599 599 523
Width: 553
GlyphClass: 2
Flags: W
LayerCount: 2
Fore
SplineSet
33 266 m 0,0,1
 55 398 55 398 128 473 c 128,-1,2
 201 548 201 548 292 548 c 0,3,4
 343 548 343 548 376.5 517.5 c 128,-1,5
 410 487 410 487 419 448 c 1,6,-1
 447 616 l 2,7,8
 460 692 460 692 511.5 732.5 c 128,-1,9
 563 773 563 773 635 773 c 0,10,11
 650 773 650 773 708 768 c 1,12,-1
 695 689 l 1,13,14
 672 692 672 692 634 692 c 0,15,16
 596 692 596 692 566.5 667 c 128,-1,17
 537 642 537 642 529 596 c 2,18,-1
 430 0 l 1,19,-1
 348 0 l 1,20,-1
 362 88 l 1,21,22
 339 44 339 44 294 13.5 c 128,-1,23
 249 -17 249 -17 198 -17 c 0,24,25
 114 -17 114 -17 62 54 c 128,-1,26
 10 125 10 125 33 266 c 0,0,1
120 266 m 0,27,28
 104 169 104 169 132.5 114 c 128,-1,29
 161 59 161 59 222 59 c 0,30,31
 278 59 278 59 326.5 114 c 128,-1,32
 375 169 375 169 391 266 c 0,33,34
 406 359 406 359 377 415.5 c 128,-1,35
 348 472 348 472 291 472 c 0,36,37
 229 472 229 472 182.5 416 c 128,-1,38
 136 360 136 360 120 266 c 0,27,28
EndSplineSet
EndChar

StartChar: uni0258
Encoding: 600 600 524
Width: 522
GlyphClass: 2
Flags: W
LayerCount: 2
Fore
SplineSet
124 302 m 1,0,-1
 403 302 l 1,1,2
 411 373 411 373 382 423.5 c 128,-1,3
 353 474 353 474 289 474 c 256,4,5
 225 474 225 474 181 424 c 128,-1,6
 137 374 137 374 124 302 c 1,0,-1
27 235 m 1,7,-1
 34 277 l 2,8,9
 54 399 54 399 128.5 473.5 c 128,-1,10
 203 548 203 548 302 548 c 0,11,12
 402 548 402 548 453.5 471.5 c 128,-1,13
 505 395 505 395 484 269 c 0,14,15
 462 137 462 137 384.5 60 c 128,-1,16
 307 -17 307 -17 203 -17 c 0,17,18
 124 -17 124 -17 77.5 21 c 128,-1,19
 31 59 31 59 17 117 c 1,20,-1
 93 142 l 1,21,22
 105 103 105 103 136.5 80 c 128,-1,23
 168 57 168 57 215 57 c 0,24,25
 283 57 283 57 331.5 108.5 c 128,-1,26
 380 160 380 160 393 235 c 1,27,-1
 27 235 l 1,7,-1
EndSplineSet
EndChar

StartChar: uni025A
Encoding: 602 602 526
Width: 616
GlyphClass: 2
Flags: W
LayerCount: 2
Fore
SplineSet
25 226 m 1,0,-1
 399 388 l 1,1,2
 369 473 369 473 284 473 c 0,3,4
 237 473 237 473 198 450 c 128,-1,5
 159 427 159 427 133 388 c 1,6,-1
 65 413 l 1,7,8
 100 474 100 474 160 511 c 128,-1,9
 220 548 220 548 297 548 c 0,10,11
 367 548 367 548 412 514 c 128,-1,12
 457 480 457 480 475 424 c 1,13,-1
 554 462 l 1,14,15
 558 430 558 430 577 410 c 128,-1,16
 596 390 596 390 622 390 c 0,17,18
 643 390 643 390 659 395 c 1,19,-1
 647 324 l 1,20,21
 625 317 625 317 603 317 c 0,22,23
 571 317 571 317 549 331.5 c 128,-1,24
 527 346 527 346 520 367 c 1,25,-1
 489 351 l 1,26,27
 491 314 491 314 483 264 c 0,28,29
 463 141 463 141 387.5 62 c 128,-1,30
 312 -17 312 -17 208 -17 c 0,31,32
 107 -17 107 -17 60 55 c 128,-1,33
 13 127 13 127 25 226 c 1,0,-1
108 190 m 1,34,35
 108 127 108 127 139.5 92 c 128,-1,36
 171 57 171 57 220 57 c 0,37,38
 281 57 281 57 327.5 106.5 c 128,-1,39
 374 156 374 156 390 238 c 0,40,41
 396 260 396 260 400 280 c 0,42,43
 403 298 403 298 403 314 c 1,44,-1
 108 190 l 1,34,35
EndSplineSet
EndChar

StartChar: uni025B
Encoding: 603 603 527
Width: 450
GlyphClass: 2
Flags: W
LayerCount: 2
Fore
SplineSet
13 146 m 0,0,1
 21 197 21 197 55.5 232 c 128,-1,2
 90 267 90 267 134 281 c 1,3,4
 61 317 61 317 74 400 c 0,5,6
 85 465 85 465 140.5 506.5 c 128,-1,7
 196 548 196 548 279 548 c 0,8,9
 400 548 400 548 442 434 c 1,10,-1
 369 403 l 1,11,12
 356 433 356 433 329 452.5 c 128,-1,13
 302 472 302 472 268 472 c 0,14,15
 220 472 220 472 192.5 451 c 128,-1,16
 165 430 165 430 159 394 c 0,17,18
 153 357 153 357 177.5 333.5 c 128,-1,19
 202 310 202 310 259 310 c 2,20,-1
 305 310 l 1,21,-1
 294 243 l 1,22,-1
 248 243 l 2,23,24
 179 243 179 243 143 215 c 128,-1,25
 107 187 107 187 100 147 c 0,26,27
 93 106 93 106 123 82.5 c 128,-1,28
 153 59 153 59 201 59 c 0,29,30
 240 59 240 59 278 79.5 c 128,-1,31
 316 100 316 100 339 128 c 1,32,-1
 400 95 l 1,33,34
 364 45 364 45 308.5 14 c 128,-1,35
 253 -17 253 -17 188 -17 c 0,36,37
 100 -17 100 -17 50 26 c 128,-1,38
 0 69 0 69 13 146 c 0,0,1
EndSplineSet
EndChar

StartChar: uni025C
Encoding: 604 604 528
Width: 451
GlyphClass: 2
Flags: W
LayerCount: 2
Fore
SplineSet
-12 95 m 1,0,-1
 61 128 l 1,1,2
 74 100 74 100 105 79.5 c 128,-1,3
 136 59 136 59 174 59 c 0,4,5
 223 59 223 59 261.5 82.5 c 128,-1,6
 300 106 300 106 307 147 c 0,7,8
 314 187 314 187 286.5 215 c 128,-1,9
 259 243 259 243 191 243 c 2,10,-1
 144 243 l 1,11,-1
 155 310 l 1,12,-1
 202 310 l 2,13,14
 259 310 259 310 291 333.5 c 128,-1,15
 323 357 323 357 329 394 c 0,16,17
 335 430 335 430 313.5 451 c 128,-1,18
 292 472 292 472 245 472 c 0,19,20
 212 472 212 472 179 452.5 c 128,-1,21
 146 433 146 433 123 403 c 1,22,-1
 58 434 l 1,23,24
 138 548 138 548 258 548 c 0,25,26
 342 548 342 548 384 506.5 c 128,-1,27
 426 465 426 465 416 400 c 0,28,29
 402 317 402 317 317 281 c 1,30,-1
 318 281 l 1,31,32
 357 267 357 267 379 232 c 128,-1,33
 401 197 401 197 392 146 c 0,34,35
 379 69 379 69 315.5 26 c 128,-1,36
 252 -17 252 -17 163 -17 c 0,37,38
 100 -17 100 -17 53.5 14 c 128,-1,39
 7 45 7 45 -12 95 c 1,0,-1
EndSplineSet
EndChar

StartChar: uni025D
Encoding: 605 605 529
Width: 519
GlyphClass: 2
Flags: W
LayerCount: 2
Fore
SplineSet
-12 95 m 1,0,-1
 61 128 l 1,1,2
 72 102 72 102 103.5 80.5 c 128,-1,3
 135 59 135 59 174 59 c 0,4,5
 228 59 228 59 264.5 84 c 128,-1,6
 301 109 301 109 307 148 c 0,7,8
 314 188 314 188 285.5 215.5 c 128,-1,9
 257 243 257 243 190 243 c 2,10,-1
 144 243 l 1,11,-1
 155 310 l 1,12,-1
 201 310 l 2,13,14
 259 310 259 310 291 333.5 c 128,-1,15
 323 357 323 357 329 394 c 0,16,17
 335 430 335 430 314 451 c 128,-1,18
 293 472 293 472 245 472 c 0,19,20
 176 472 176 472 123 403 c 1,21,-1
 58 434 l 1,22,23
 139 548 139 548 258 548 c 0,24,25
 374 548 374 548 408 472 c 1,26,-1
 483 513 l 1,27,28
 489 480 489 480 508.5 457.5 c 128,-1,29
 528 435 528 435 555 435 c 0,30,31
 576 435 576 435 592 440 c 1,32,-1
 580 368 l 1,33,34
 562 362 562 362 536 362 c 0,35,36
 504 362 504 362 480 378.5 c 128,-1,37
 456 395 456 395 449 417 c 1,38,-1
 414 399 l 1,39,40
 413 390 413 390 409 375 c 0,41,42
 398 343 398 343 372 318.5 c 128,-1,43
 346 294 346 294 318 282 c 1,44,-1
 318 281 l 1,45,46
 356 267 356 267 378.5 232.5 c 128,-1,47
 401 198 401 198 392 147 c 0,48,49
 379 69 379 69 316 26 c 128,-1,50
 253 -17 253 -17 161 -17 c 0,51,52
 98 -17 98 -17 51.5 15 c 128,-1,53
 5 47 5 47 -12 95 c 1,0,-1
EndSplineSet
EndChar

StartChar: uni025E
Encoding: 606 606 530
Width: 521
GlyphClass: 2
Flags: W
LayerCount: 2
Fore
SplineSet
33 267 m 0,0,1
 54 392 54 392 128 470 c 128,-1,2
 202 548 202 548 318 548 c 0,3,4
 400 548 400 548 447.5 508.5 c 128,-1,5
 495 469 495 469 483 397 c 0,6,7
 476 354 476 354 450.5 322.5 c 128,-1,8
 425 291 425 291 392 276 c 1,9,10
 428 263 428 263 448.5 230.5 c 128,-1,11
 469 198 469 198 460 146 c 0,12,13
 447 66 447 66 382.5 24.5 c 128,-1,14
 318 -17 318 -17 225 -17 c 0,15,16
 112 -17 112 -17 61.5 58.5 c 128,-1,17
 11 134 11 134 33 267 c 0,0,1
120 267 m 0,18,19
 110 208 110 208 117.5 165 c 128,-1,20
 125 122 125 122 145 100 c 128,-1,21
 165 78 165 78 188.5 68.5 c 128,-1,22
 212 59 212 59 239 59 c 0,23,24
 299 59 299 59 333 81.5 c 128,-1,25
 367 104 367 104 374 144 c 0,26,27
 380 181 380 181 355.5 208.5 c 128,-1,28
 331 236 331 236 267 236 c 2,29,-1
 232 236 l 1,30,-1
 243 306 l 1,31,-1
 279 306 l 2,32,33
 332 306 332 306 361 331 c 128,-1,34
 390 356 390 356 396 390 c 0,35,36
 403 430 403 430 378.5 451 c 128,-1,37
 354 472 354 472 306 472 c 0,38,39
 242 472 242 472 189.5 421 c 128,-1,40
 137 370 137 370 120 267 c 0,18,19
EndSplineSet
EndChar

StartChar: uni025F
Encoding: 607 607 531
Width: 260
GlyphClass: 2
Flags: W
LayerCount: 2
Fore
SplineSet
-15 263 m 1,0,-1
 -3 336 l 1,1,-1
 98 336 l 1,2,-1
 131 531 l 1,3,-1
 216 531 l 1,4,-1
 184 336 l 1,5,-1
 278 336 l 1,6,-1
 266 263 l 1,7,-1
 172 263 l 1,8,-1
 122 -38 l 2,9,10
 107 -130 107 -130 60.5 -177 c 128,-1,11
 14 -224 14 -224 -58 -224 c 2,12,-1
 -93 -224 l 1,13,-1
 -80 -148 l 1,14,-1
 -60 -148 l 2,15,16
 18 -148 18 -148 37 -33 c 2,17,-1
 86 263 l 1,18,-1
 -15 263 l 1,0,-1
EndSplineSet
EndChar

StartChar: uni0260
Encoding: 608 608 532
Width: 545
GlyphClass: 2
Flags: W
LayerCount: 2
Fore
SplineSet
35 276 m 0,0,1
 55 399 55 399 126.5 473.5 c 128,-1,2
 198 548 198 548 289 548 c 0,3,4
 342 548 342 548 371.5 519.5 c 128,-1,5
 401 491 401 491 412 453 c 1,6,-1
 439 615 l 2,7,8
 451 690 451 690 504 731.5 c 128,-1,9
 557 773 557 773 627 773 c 0,10,11
 655 773 655 773 700 769 c 1,12,-1
 687 690 l 1,13,14
 665 693 665 693 629 693 c 0,15,16
 589 693 589 693 558 667.5 c 128,-1,17
 527 642 527 642 519 596 c 2,18,-1
 432 66 l 2,19,20
 421 0 421 0 403 -50 c 128,-1,21
 385 -100 385 -100 355 -143 c 128,-1,22
 325 -186 325 -186 276.5 -208.5 c 128,-1,23
 228 -231 228 -231 165 -231 c 0,24,25
 45 -231 45 -231 -8 -132 c 1,26,-1
 55 -91 l 1,27,28
 102 -157 102 -157 179 -157 c 0,29,30
 245 -157 245 -157 286 -103.5 c 128,-1,31
 327 -50 327 -50 341 31 c 2,32,-1
 353 93 l 1,33,34
 328 53 328 53 288.5 28 c 128,-1,35
 249 3 249 3 201 3 c 0,36,37
 108 3 108 3 61 77.5 c 128,-1,38
 14 152 14 152 35 276 c 0,0,1
122 276 m 0,39,40
 106 182 106 182 135 130.5 c 128,-1,41
 164 79 164 79 221 79 c 0,42,43
 281 79 281 79 324 131 c 128,-1,44
 367 183 367 183 383 276 c 0,45,46
 398 366 398 366 371 419 c 128,-1,47
 344 472 344 472 287 472 c 0,48,49
 228 472 228 472 182.5 418.5 c 128,-1,50
 137 365 137 365 122 276 c 0,39,40
EndSplineSet
EndChar

StartChar: uni0262
Encoding: 610 610 534
Width: 532
GlyphClass: 2
Flags: W
LayerCount: 2
Fore
SplineSet
32 264 m 0,0,1
 53 393 53 393 130 470.5 c 128,-1,2
 207 548 207 548 321 548 c 0,3,4
 447 548 447 548 491 422 c 1,5,-1
 415 390 l 1,6,7
 382 471 382 471 308 471 c 0,8,9
 237 471 237 471 186 415 c 128,-1,10
 135 359 135 359 120 264 c 256,11,12
 104 169 104 169 136.5 114.5 c 128,-1,13
 169 60 169 60 239 60 c 0,14,15
 297 60 297 60 336.5 96.5 c 128,-1,16
 376 133 376 133 387 188 c 2,17,-1
 393 222 l 1,18,-1
 252 222 l 1,19,-1
 264 293 l 1,20,-1
 485 293 l 1,21,-1
 436 0 l 1,22,-1
 371 0 l 1,23,-1
 379 63 l 1,24,25
 359 31 359 31 316.5 7 c 128,-1,26
 274 -17 274 -17 222 -17 c 0,27,28
 117 -17 117 -17 63.5 57 c 128,-1,29
 10 131 10 131 32 264 c 0,0,1
EndSplineSet
EndChar

StartChar: uni0263
Encoding: 611 611 535
Width: 476
GlyphClass: 2
Flags: W
LayerCount: 2
Fore
SplineSet
48 531 m 1,0,-1
 142 531 l 1,1,-1
 205 144 l 1,2,-1
 208 111 l 1,3,-1
 209 111 l 1,4,-1
 226 143 l 1,5,-1
 417 531 l 1,6,-1
 510 531 l 1,7,-1
 259 58 l 1,8,9
 316 -22 316 -22 304 -94 c 0,10,11
 294 -154 294 -154 251.5 -192.5 c 128,-1,12
 209 -231 209 -231 152 -231 c 0,13,14
 98 -231 98 -231 68 -193.5 c 128,-1,15
 38 -156 38 -156 48 -94 c 0,16,17
 59 -27 59 -27 143 56 c 1,18,-1
 48 531 l 1,0,-1
120 -94 m 0,19,20
 115 -124 115 -124 126.5 -145.5 c 128,-1,21
 138 -167 138 -167 163 -167 c 0,22,23
 190 -167 190 -167 209.5 -145 c 128,-1,24
 229 -123 229 -123 234 -94 c 0,25,26
 243 -41 243 -41 194 22 c 1,27,28
 130 -35 130 -35 120 -94 c 0,19,20
EndSplineSet
Substitution2: "'sups' Superscript lookup 5 subtable" uni02E0
Substitution2: "'aalt' Access All Alternates lookup 0 subtable" uni02E0
EndChar

StartChar: uni0264
Encoding: 612 612 536
Width: 452
GlyphClass: 2
Flags: W
LayerCount: 2
Fore
SplineSet
234 333 m 1,0,1
 150 242 150 242 136 158 c 0,2,3
 129 115 129 115 143.5 87.5 c 128,-1,4
 158 60 158 60 192 60 c 0,5,6
 223 60 223 60 246 89 c 128,-1,7
 269 118 269 118 276 158 c 0,8,9
 284 208 284 208 272.5 247.5 c 128,-1,10
 261 287 261 287 234 333 c 1,0,1
52 465 m 1,11,-1
 64 539 l 1,12,13
 95 548 95 548 120 548 c 0,14,15
 164 548 164 548 194 526.5 c 128,-1,16
 224 505 224 505 255 460 c 1,17,18
 342 548 342 548 421 548 c 0,19,20
 448 548 448 548 475 540 c 1,21,-1
 462 463 l 1,22,23
 437 471 437 471 409 471 c 0,24,25
 381 471 381 471 355.5 453 c 128,-1,26
 330 435 330 435 298 402 c 1,27,28
 339 333 339 333 355 279.5 c 128,-1,29
 371 226 371 226 360 157 c 0,30,31
 347 80 347 80 298.5 31.5 c 128,-1,32
 250 -17 250 -17 179 -17 c 0,33,34
 103 -17 103 -17 71.5 32 c 128,-1,35
 40 81 40 81 52 157 c 0,36,37
 60 206 60 206 85 254 c 128,-1,38
 110 302 110 302 132.5 330.5 c 128,-1,39
 155 359 155 359 195 402 c 1,40,41
 175 435 175 435 155 453 c 128,-1,42
 135 471 135 471 104 471 c 0,43,44
 102 471 102 471 52 465 c 1,11,-1
EndSplineSet
EndChar

StartChar: uni0265
Encoding: 613 613 537
Width: 530
GlyphClass: 2
Flags: W
LayerCount: 2
Fore
SplineSet
46 188 m 2,0,-1
 103 531 l 1,1,-1
 187 531 l 1,2,-1
 133 200 l 2,3,4
 110 59 110 59 207 59 c 0,5,6
 260 59 260 59 307 107 c 128,-1,7
 354 155 354 155 365 220 c 2,8,-1
 416 531 l 1,9,-1
 500 531 l 1,10,-1
 375 -227 l 1,11,-1
 291 -227 l 1,12,-1
 341 75 l 1,13,-1
 340 75 l 1,14,15
 316 39 316 39 272.5 11 c 128,-1,16
 229 -17 229 -17 178 -17 c 0,17,18
 146 -17 146 -17 120.5 -8 c 128,-1,19
 95 1 95 1 73 22 c 128,-1,20
 51 43 51 43 43.5 85.5 c 128,-1,21
 36 128 36 128 46 188 c 2,0,-1
EndSplineSet
EndChar

StartChar: uni0266
Encoding: 614 614 538
Width: 530
GlyphClass: 2
Flags: W
LayerCount: 2
Fore
SplineSet
25 0 m 1,0,-1
 125 603 l 2,1,2
 139 685 139 685 193 729 c 128,-1,3
 247 773 247 773 319 773 c 0,4,5
 365 773 365 773 413 766 c 1,6,-1
 400 688 l 1,7,8
 370 693 370 693 319 693 c 0,9,10
 274 693 274 693 244.5 661.5 c 128,-1,11
 215 630 215 630 208 588 c 2,12,-1
 186 456 l 1,13,-1
 187 456 l 1,14,15
 213 494 213 494 255.5 521 c 128,-1,16
 298 548 298 548 348 548 c 0,17,18
 378 548 378 548 403.5 539.5 c 128,-1,19
 429 531 429 531 451 510 c 128,-1,20
 473 489 473 489 481 446 c 128,-1,21
 489 403 489 403 479 342 c 2,22,-1
 422 0 l 1,23,-1
 337 0 l 1,24,-1
 392 329 l 2,25,26
 416 472 416 472 320 472 c 0,27,28
 266 472 266 472 219.5 424.5 c 128,-1,29
 173 377 173 377 162 311 c 2,30,-1
 110 0 l 1,31,-1
 25 0 l 1,0,-1
EndSplineSet
Substitution2: "'sups' Superscript lookup 5 subtable" uni02B1
Substitution2: "'aalt' Access All Alternates lookup 0 subtable" uni02B1
EndChar

StartChar: uni0267
Encoding: 615 615 539
Width: 534
GlyphClass: 2
Flags: W
LayerCount: 2
Fore
SplineSet
25 0 m 1,0,-1
 125 602 l 2,1,2
 139 684 139 684 193 728.5 c 128,-1,3
 247 773 247 773 319 773 c 0,4,5
 365 773 365 773 413 766 c 1,6,-1
 400 688 l 1,7,8
 370 693 370 693 319 693 c 0,9,10
 273 693 273 693 244 661 c 128,-1,11
 215 629 215 629 207 585 c 2,12,-1
 186 456 l 1,13,-1
 187 456 l 1,14,15
 213 494 213 494 255.5 521 c 128,-1,16
 298 548 298 548 348 548 c 0,17,18
 377 548 377 548 402.5 539.5 c 128,-1,19
 428 531 428 531 450.5 510 c 128,-1,20
 473 489 473 489 481 446.5 c 128,-1,21
 489 404 489 404 479 342 c 2,22,-1
 415 -40 l 2,23,24
 399 -136 399 -136 354 -183 c 128,-1,25
 309 -230 309 -230 225 -230 c 0,26,27
 200 -230 200 -230 154 -226 c 1,28,-1
 166 -150 l 1,29,30
 204 -154 204 -154 223 -154 c 0,31,32
 270 -154 270 -154 295 -128.5 c 128,-1,33
 320 -103 320 -103 331 -37 c 2,34,-1
 392 329 l 2,35,36
 416 472 416 472 320 472 c 0,37,38
 266 472 266 472 219.5 423.5 c 128,-1,39
 173 375 173 375 162 311 c 2,40,-1
 110 0 l 1,41,-1
 25 0 l 1,0,-1
EndSplineSet
EndChar

StartChar: uni0268
Encoding: 616 616 540
Width: 253
GlyphClass: 2
Flags: W
LayerCount: 2
Fore
SplineSet
136 636 m 1,0,-1
 154 746 l 1,1,-1
 254 746 l 1,2,-1
 236 636 l 1,3,-1
 136 636 l 1,0,-1
2 256 m 1,4,-1
 14 330 l 1,5,-1
 94 330 l 1,6,-1
 127 531 l 1,7,-1
 211 531 l 1,8,-1
 177 330 l 1,9,-1
 255 330 l 1,10,-1
 243 256 l 1,11,-1
 165 256 l 1,12,-1
 123 0 l 1,13,-1
 39 0 l 1,14,-1
 81 256 l 1,15,-1
 2 256 l 1,4,-1
EndSplineSet
EndChar

StartChar: uni0269
Encoding: 617 617 541
Width: 308
GlyphClass: 2
Flags: W
LayerCount: 2
Fore
SplineSet
42 150 m 2,0,-1
 105 531 l 1,1,-1
 190 531 l 1,2,-1
 128 155 l 2,3,4
 113 63 113 63 185 63 c 0,5,6
 223 63 223 63 254 67 c 1,7,-1
 241 -10 l 1,8,9
 177 -17 177 -17 156 -17 c 0,10,11
 92 -17 92 -17 60 24.5 c 128,-1,12
 28 66 28 66 42 150 c 2,0,-1
EndSplineSet
EndChar

StartChar: uni026B
Encoding: 619 619 543
Width: 242
GlyphClass: 2
Flags: W
LayerCount: 2
Fore
SplineSet
-4 355 m 1,0,-1
 9 433 l 1,1,2
 52 447 52 447 78 447 c 0,3,4
 85 447 85 447 106 444 c 1,5,-1
 159 762 l 1,6,-1
 242 762 l 1,7,-1
 187 428 l 1,8,9
 206 426 206 426 221 426 c 0,10,11
 227 426 227 426 231 426 c 0,12,13
 256 427 256 427 286 438 c 1,14,-1
 273 361 l 1,15,16
 246 351 246 351 221 350 c 0,17,18
 215 350 215 350 209 350 c 0,19,20
 193 350 193 350 174 352 c 1,21,-1
 116 0 l 1,22,-1
 33 0 l 1,23,-1
 93 368 l 1,24,25
 72 371 72 371 65 371 c 0,26,27
 42 371 42 371 -4 355 c 1,0,-1
EndSplineSet
EndChar

StartChar: uni026C
Encoding: 620 620 544
Width: 418
GlyphClass: 2
Flags: W
LayerCount: 2
Fore
SplineSet
56 415 m 0,0,1
 64 462 64 462 101 497 c 128,-1,2
 138 532 138 532 190 532 c 0,3,4
 219 532 219 532 242.5 518 c 128,-1,5
 266 504 266 504 276 486 c 1,6,-1
 322 762 l 1,7,-1
 407 762 l 1,8,-1
 340 354 l 1,9,-1
 441 354 l 1,10,-1
 429 282 l 1,11,-1
 328 282 l 1,12,-1
 281 0 l 1,13,-1
 196 0 l 1,14,-1
 242 282 l 1,15,-1
 192 282 l 2,16,17
 124 282 124 282 85 318 c 128,-1,18
 46 354 46 354 56 415 c 0,0,1
134 415 m 0,19,20
 130 388 130 388 149.5 371 c 128,-1,21
 169 354 169 354 197 354 c 2,22,-1
 254 354 l 1,23,-1
 257 377 l 2,24,25
 261 409 261 409 239 434.5 c 128,-1,26
 217 460 217 460 188 460 c 0,27,28
 168 460 168 460 152.5 447 c 128,-1,29
 137 434 137 434 134 415 c 0,19,20
EndSplineSet
EndChar

StartChar: uni026D
Encoding: 621 621 545
Width: 317
GlyphClass: 2
Flags: W
LayerCount: 2
Fore
SplineSet
17 -64 m 2,0,-1
 154 762 l 1,1,-1
 237 762 l 1,2,-1
 101 -60 l 2,3,4
 86 -151 86 -151 158 -151 c 0,5,6
 190 -151 190 -151 229 -145 c 1,7,-1
 216 -223 l 1,8,9
 151 -231 151 -231 129 -231 c 0,10,11
 66 -231 66 -231 34.5 -189.5 c 128,-1,12
 3 -148 3 -148 17 -64 c 2,0,-1
EndSplineSet
EndChar

StartChar: uni026E
Encoding: 622 622 546
Width: 623
GlyphClass: 2
Flags: W
LayerCount: 2
Fore
SplineSet
78 -118 m 1,0,-1
 156 -91 l 1,1,2
 189 -154 189 -154 264 -154 c 256,3,4
 339 -154 339 -154 389 -108.5 c 128,-1,5
 439 -63 439 -63 451 10 c 0,6,7
 463 84 463 84 424.5 130.5 c 128,-1,8
 386 177 386 177 302 177 c 2,9,-1
 220 177 l 1,10,-1
 231 238 l 1,11,-1
 460 455 l 1,12,-1
 187 455 l 1,13,-1
 111 0 l 1,14,-1
 26 0 l 1,15,-1
 152 762 l 1,16,-1
 237 762 l 1,17,-1
 199 531 l 1,18,-1
 597 531 l 1,19,-1
 587 474 l 1,20,-1
 342 245 l 1,21,-1
 349 242 l 1,22,23
 448 240 448 240 500.5 175 c 128,-1,24
 553 110 553 110 537 10 c 0,25,26
 519 -97 519 -97 442 -164 c 128,-1,27
 365 -231 365 -231 255 -231 c 0,28,29
 118 -231 118 -231 78 -118 c 1,0,-1
EndSplineSet
EndChar

StartChar: uni026F
Encoding: 623 623 547
Width: 781
GlyphClass: 2
Flags: W
LayerCount: 2
Fore
SplineSet
45 188 m 2,0,-1
 102 531 l 1,1,-1
 187 531 l 1,2,-1
 132 194 l 2,3,4
 120 124 120 124 133 92 c 128,-1,5
 146 60 146 60 192 60 c 0,6,7
 242 60 242 60 283 104 c 128,-1,8
 324 148 324 148 335 216 c 2,9,-1
 387 531 l 1,10,-1
 472 531 l 1,11,-1
 415 192 l 2,12,13
 393 60 393 60 477 60 c 0,14,15
 531 60 531 60 569.5 102 c 128,-1,16
 608 144 608 144 619 213 c 2,17,-1
 672 531 l 1,18,-1
 756 531 l 1,19,-1
 668 0 l 1,20,-1
 585 0 l 1,21,-1
 597 73 l 1,22,-1
 596 73 l 1,23,24
 585 54 585 54 569.5 37 c 128,-1,25
 554 20 554 20 520 2 c 128,-1,26
 486 -16 486 -16 447 -16 c 0,27,28
 356 -16 356 -16 336 93 c 1,29,30
 333 87 333 87 325.5 76 c 128,-1,31
 318 65 318 65 302 48 c 128,-1,32
 286 31 286 31 266.5 17.5 c 128,-1,33
 247 4 247 4 218.5 -6 c 128,-1,34
 190 -16 190 -16 160 -16 c 0,35,36
 11 -16 11 -16 45 188 c 2,0,-1
EndSplineSet
EndChar

StartChar: uni0270
Encoding: 624 624 548
Width: 800
GlyphClass: 2
Flags: W
LayerCount: 2
Fore
SplineSet
45 188 m 2,0,-1
 102 531 l 1,1,-1
 187 531 l 1,2,-1
 132 194 l 2,3,4
 121 126 121 126 133 93 c 128,-1,5
 145 60 145 60 192 60 c 0,6,7
 243 60 243 60 283.5 104.5 c 128,-1,8
 324 149 324 149 335 216 c 2,9,-1
 387 531 l 1,10,-1
 472 531 l 1,11,-1
 415 192 l 2,12,13
 393 60 393 60 477 60 c 0,14,15
 531 60 531 60 569.5 102 c 128,-1,16
 608 144 608 144 619 213 c 2,17,-1
 672 531 l 1,18,-1
 756 531 l 1,19,-1
 630 -227 l 1,20,-1
 547 -227 l 1,21,-1
 597 73 l 1,22,-1
 596 73 l 1,23,24
 576 39 576 39 538 11.5 c 128,-1,25
 500 -16 500 -16 447 -16 c 0,26,27
 355 -16 355 -16 336 93 c 1,28,29
 317 57 317 57 270.5 20.5 c 128,-1,30
 224 -16 224 -16 160 -16 c 0,31,32
 11 -16 11 -16 45 188 c 2,0,-1
EndSplineSet
EndChar

